<svg xmlns="http://www.w3.org/2000/svg" xmlns:xlink="http://www.w3.org/1999/xlink" width="322" height="260" viewBox="0 0 322 260">
  <defs>
    <clipPath id="clip-food">
      <rect width="322" height="260"/>
    </clipPath>
  </defs>
  <g id="food" clip-path="url(#clip-food)">
    <g id="Group_1234" data-name="Group 1234" transform="translate(11.128 33.333)">
      <path id="Path_5266" data-name="Path 5266" d="M183.766,315.893a400.946,400.946,0,0,1,43.131-24.4c15.4-7.307,31.459-13.133,47.485-18.947,27.1-9.831,54.7-19.767,83.493-21.19a9.1,9.1,0,0,1,4.858.682,8.906,8.906,0,0,1,3.293,4.114,82.788,82.788,0,0,1,8.489,31.385c.817,12.393-1.481,25.573-9.432,35.115-4.536,5.444-10.6,9.364-16.677,13.016A362.979,362.979,0,0,1,152.23,387.1c-8.706-.249-21.1-2.119-24.33-11.975-2.552-7.783,5.58-15.727,10.029-21.3C150.409,338.175,167.023,326.545,183.766,315.893Z" transform="translate(-111.48 -219.71)" fill="#d8e6f3"/>
      <path id="Path_5267" data-name="Path 5267" d="M575.486,149.229c-13.683-22.984-28.3-45.579-46.247-65.412s-39.433-36.912-64.206-47a140.4,140.4,0,0,0-56.015-10.3c-9.665.224-19.429,1.485-28.382,5.134C360.5,39.862,346.482,59.987,343,81.449s2.724,43.8,14.385,62.155,28.452,33,46.717,44.792A231.749,231.749,0,0,0,531.44,225.2c6.3-.068,12.86-.463,18.379-3.508,4.5-2.484,7.914-6.514,11.218-10.455,7.814-9.32,15.534-18.972,19.286-30.718,1.405-4.4,3.914-9.05,3.216-13.818C582.635,160.532,578.61,154.476,575.486,149.229Z" transform="translate(-299.109 -23.153)" fill="#ebf3fa"/>
      <g id="Group_1229" data-name="Group 1229" transform="translate(102.019 32.364)">
        <path id="Path_5268" data-name="Path 5268" d="M970,1087.779l2.892,34.582,69.416-2.012V1083Z" transform="translate(-950.126 -979.172)" fill="#d4145a"/>
        <path id="Path_5269" data-name="Path 5269" d="M1206.5,1098.066s.817,4.062,11.884,4.439,19.922-.04,27.441-11.526,3.244-8.469,3.244-8.469Z" transform="translate(-1156.885 -978.43)" fill="#e6e6e6" style="mix-blend-mode: multiply;isolation: isolate"/>
        <path id="Path_5270" data-name="Path 5270" d="M850.385,551.9s-20.121,2.389-28.169,18.863S810.269,604.336,812.659,610s.126,38.1,2.138,43.134,10.312,19.366,16.348,16.725,11.821-14.084,11.821-14.084l-3.018-30.558s16.725,12.324,32.57,10.815,12.575.755,19.492-2.641,16.725-14.462,18.234-19.24,2.767,2.138,3.647,6.036,1.76,28.672,8.929,31.69,18.109,10.815,23.39,4.527,6.162-11.444,4.15-18.612-10.815-31.313-11.066-36.72,1.006,1.258-.251-7.8-1.509-9.935-1.509-9.935-4.15-11.066-7.168-14.336-15.342-12.953-21.63-13.833S859.314,549.507,850.385,551.9Z" transform="translate(-811.962 -514.278)" fill="#fd7b43"/>
        <path id="Path_5271" data-name="Path 5271" d="M962.468,650.138A8.821,8.821,0,0,0,974.3,659.19a284.873,284.873,0,0,1-10.373,35.317c-2.419,6.62-5.161,13.28-9.747,18.633a32.938,32.938,0,0,1-50.426-.478c-3.082-3.738-5.492-8.293-9.721-10.655-6.963-3.889-17.034-.774-22.6-6.487a42.684,42.684,0,0,0,11.681-21.077,19.1,19.1,0,0,1,1.434-4.861c1.106-2.1,3.1-3.573,4.575-5.428s2.419-4.584,1.1-6.555l9.394,15.908-2.542-21.181,6.555,16.339a5.2,5.2,0,0,0,1.286,2.129,3.693,3.693,0,0,0,4.17,0,16.419,16.419,0,0,0,3.235-3.035,21.5,21.5,0,0,1,21.673-5.491c2.88.931,5.524,2.47,8.353,3.545s6.018,1.667,8.862.634c3.426-1.245,4.081-4.276,5.264-7.3a17.086,17.086,0,0,1,2.169-3.692C959.491,654.266,962.344,651.547,962.468,650.138Z" transform="translate(-863.958 -600.744)" fill="#e6e6e6" style="mix-blend-mode: multiply;isolation: isolate"/>
        <path id="Path_5272" data-name="Path 5272" d="M1026.5,791.5" transform="translate(-999.521 -724.329)" fill="none" stroke="#000" stroke-miterlimit="10" stroke-width="1"/>
        <path id="Path_5273" data-name="Path 5273" d="M1189.8,443.919s-2.641,24.4-4.527,30.433-11.821,17.606-15.468,19.24a12.138,12.138,0,0,1-3.053.953c-2.333.38-4.678-.069-8.39-.953-5.282-1.258-17.606-29.175-17.606-29.175-4.653.377-4.15-5.533-5.785-9.683s-2.012-7.545,0-9.557,5.911,5.533,5.911,5.533-1.372-5.9,4.964-11.161c3.63-3.017,9.79-5.825,20.187-7.2C1194.575,428.577,1189.8,443.919,1189.8,443.919Z" transform="translate(-1093.149 -409.822)" fill="#fcada2"/>
        <path id="Path_5274" data-name="Path 5274" d="M1152.22,643.5l.044.008S1152.337,643.832,1152.22,643.5Z" transform="translate(-1109.431 -594.941)" fill="#603813" stroke="#000" stroke-miterlimit="10" stroke-width="1"/>
        <path id="Path_5275" data-name="Path 5275" d="M1193.343,635.22c.65,2.418.9,3.83.226,2.173A4.135,4.135,0,0,1,1193.343,635.22Z" transform="translate(-1145.338 -587.702)" fill="#603813" stroke="#000" stroke-miterlimit="10" stroke-width="1"/>
        <path id="Path_5276" data-name="Path 5276" d="M1274.925,443.919s-2.641,24.4-4.527,30.433-11.821,17.606-15.468,19.24a12.138,12.138,0,0,1-3.053.953c3.1-9.935,3.648-20.755,4.114-31.256.23-5.209.385-10.748-2.247-15.249-2.591-4.432-7.536-7.077-12.572-8.072a38.743,38.743,0,0,0-8.911-.558c-.36.014-.8.069-1.29.14,3.63-3.017,9.79-5.825,20.187-7.2C1279.7,428.577,1274.925,443.919,1274.925,443.919Z" transform="translate(-1178.278 -409.822)" fill="#f2f2f2" style="mix-blend-mode: multiply;isolation: isolate"/>
        <path id="Path_5277" data-name="Path 5277" d="M1054.653,289.012a9.719,9.719,0,0,0-3.023-5.34,6.8,6.8,0,0,0-3.817-1.524c-5.785-.5-8.426,4.779-13.833,5.03s-9.935-4.15-13.2-3.144-6.162,4.653-8.3,9.054c-1.773,3.652-6.232,8.085-6.766,11.786-.926-3.456-2.666-8.965-3.691-10.522-1.276-1.939-3.674-2.3-3.988.7a12.93,12.93,0,0,0,.644,4.721c.168.587.322,1.12.463,1.6.3,1.042.54,1.859.728,2.495.319,1.083.5,1.65.591,1.933.014.043.026.078.036.108l-.014,0c-.7-.123-7.628-1.4-12.4-4.022a9.885,9.885,0,0,0-9.41-.151s1.488-10.664,9.787-14.185c7.225-3.065,9.209-21.473,24.367-27.6a27.275,27.275,0,0,1,7.7-1.83s.378-.086,1.054-.2c3.75-.63,16.666-2.143,24.977,5.1C1056.365,271.585,1054.653,289.012,1054.653,289.012Z" transform="translate(-957.706 -257.356)" fill="#3a1c00" stroke="#000" stroke-miterlimit="10" stroke-width="1"/>
        <path id="Path_5278" data-name="Path 5278" d="M1352.955,289.012a9.719,9.719,0,0,0-3.023-5.34,38.619,38.619,0,0,0-.838-3.841c-2.027-7.132-7.57-12.892-14.039-16.517a53.906,53.906,0,0,0-15.175-5.385c3.75-.63,16.666-2.143,24.977,5.1C1354.666,271.585,1352.955,289.012,1352.955,289.012Z" transform="translate(-1256.007 -257.356)" fill="#e6e6e6" style="mix-blend-mode: multiply;isolation: isolate"/>
        <path id="Path_5279" data-name="Path 5279" d="M1012.825,278.05a4.588,4.588,0,0,1-.345,1.662c-1.041,2.337-3.4,4.574-4.952,6.607-2.709,3.561-5.445,7.167-7.225,11.271a31.753,31.753,0,0,0-2.271,15.555,39.576,39.576,0,0,0,1.107,6.325q.324,1.26.728,2.495c.069.218.142.434.216.649a10.915,10.915,0,0,1,.375,1.284c.009.035.015.07.023.106-.7-.123-7.628-1.4-12.4-4.022a9.885,9.885,0,0,0-9.41-.151s1.488-10.664,9.787-14.185C995.682,302.582,997.666,284.174,1012.825,278.05Z" transform="translate(-957.706 -275.448)" fill="#e6e6e6" style="mix-blend-mode: multiply;isolation: isolate"/>
        <path id="Path_5280" data-name="Path 5280" d="M1277.686,605.681a6.657,6.657,0,0,0-2.606-1.281l-6.826-2.183a18.621,18.621,0,0,0-3.2-.818,6.239,6.239,0,0,0-3.248.342l12.917,5.592a6.367,6.367,0,0,0,1.843.583C1277.211,607.983,1278.4,606.347,1277.686,605.681Z" transform="translate(-1205.238 -558.072)" fill="#42210b" stroke="#231f20" stroke-linecap="round" stroke-miterlimit="10" stroke-width="1"/>
        <path id="Path_5281" data-name="Path 5281" d="M1467.875,621.009a2.123,2.123,0,0,0,1.448.154,9.714,9.714,0,0,0,3.7-1.714,25.554,25.554,0,0,1,3.463-2.2,5.564,5.564,0,0,1,3.986-.449,1.712,1.712,0,0,0-1.535-1.515,5,5,0,0,0-2.3.384l-6.924,2.319a3.514,3.514,0,0,0-1.622.89C1467.686,619.355,1467.449,620.756,1467.875,621.009Z" transform="translate(-1385.194 -570.25)" fill="#42210b" stroke="#231f20" stroke-linecap="round" stroke-miterlimit="10" stroke-width="1"/>
        <path id="Path_5282" data-name="Path 5282" d="M1471.031,682.78a3.746,3.746,0,0,0,3.263,1.01,12.707,12.707,0,0,1-9.653,1.265,7.077,7.077,0,0,1-2.334-1.055c-.553-.407-.8-.77.017-.9a9.9,9.9,0,0,1,2.447.245,17.012,17.012,0,0,0,2.923.031A16.746,16.746,0,0,0,1471.031,682.78Z" transform="translate(-1380.077 -629.281)" fill="#1a1a1a"/>
        <path id="Path_5283" data-name="Path 5283" d="M1262.171,633.51a13.061,13.061,0,0,0-2.846.934,4.522,4.522,0,0,0-2.121,2.045,4.461,4.461,0,0,0,.989,4.679,10.459,10.459,0,0,0,4.3,2.57,17.355,17.355,0,0,0,5.459,1.2,8.8,8.8,0,0,0,5.321-1.46,5.933,5.933,0,0,0,2.588-4.739,3.464,3.464,0,0,0-.589-2.007,4.925,4.925,0,0,0-2.415-1.518,35.945,35.945,0,0,0-9.638-2.081,5.648,5.648,0,0,0-1.921.093C1261.584,633.373,1261.888,633.362,1262.171,633.51Z" transform="translate(-1200.941 -585.843)" fill="#e6e6e6" style="mix-blend-mode: multiply;isolation: isolate"/>
        <g id="Group_1226" data-name="Group 1226" transform="translate(33.689 50.95)">
          <path id="Path_5284" data-name="Path 5284" d="M1133.762,703.629c-.372.334-3.948.339-8.823.19-9.493-.292-23.92-1.168-29.244-1.333a13.418,13.418,0,0,0-2.049.011c-1.006.377-1.258,2.892-1.258,2.892s-2.892,1.509-9.306-1.132-1.258-11.947-1.383-14.839a73.576,73.576,0,0,1,.5-7.6c.469-4.62,1.964-9.2,2.9-10.386,1.886-2.389,17.983-2.515,17.983-2.515a1.857,1.857,0,0,0,1.509-.629c.755-.755.126-3.27,2.138-5.03a6.344,6.344,0,0,1,3.474-.743,52.818,52.818,0,0,1,8.572.667,29.259,29.259,0,0,1,4.553.957c2.389.88,1.383,6.036,1.383,7.168s2.012.5,6.162.5,2.892,2.012,2.892,2.012a12.631,12.631,0,0,1,.818,3.366C1135.714,685.355,1134.828,702.67,1133.762,703.629Z" transform="translate(-1079.858 -662.509)" fill="#333"/>
          <path id="Path_5285" data-name="Path 5285" d="M1345.154,805.707c-.372.335-3.948.34-8.823.19-3.62-4.183-6.19-8.932-10.113-12.857a27.64,27.64,0,0,1-3.857-4.842,3.2,3.2,0,0,1-.677-2.167c.186-1.049,1.28-1.661,2.29-2,3.916-1.317,8.478-.873,11.872-3.227a3.491,3.491,0,0,1,4.136-.737,8.707,8.707,0,0,0,5.988-.8C1347.106,787.433,1346.221,804.748,1345.154,805.707Z" transform="translate(-1291.251 -764.587)" fill="#242424"/>
          <path id="Path_5286" data-name="Path 5286" d="M1125.122,690.606a61.55,61.55,0,0,0-11.289-.888,20.6,20.6,0,0,0-10.727,3.206c-3.375,2.3-5.68,5.834-7.412,9.562a13.418,13.418,0,0,0-2.049.011c-1.006.377-1.258,2.892-1.258,2.892s-2.892,1.509-9.306-1.132-1.258-11.947-1.383-14.839a73.576,73.576,0,0,1,.5-7.6c.9-.425,1.888.453,2.79.7a7.536,7.536,0,0,0,9.008-4.33,17.011,17.011,0,0,1,.9-2.157,2.313,2.313,0,0,1,1.857-1.246,2.519,2.519,0,0,1,2.011,1.49,20.859,20.859,0,0,0,1.176,2.347,4.369,4.369,0,0,0,5.084,1.242,6.472,6.472,0,0,0,3.527-4.165,12.874,12.874,0,0,0,.228-5.591c-.293-2.046-.806-4.249.137-6.088a4.423,4.423,0,0,1,1.285-1.508,52.818,52.818,0,0,1,8.572.667,1.95,1.95,0,0,1,.195.223,3.015,3.015,0,0,1-.02,3.027,15.509,15.509,0,0,0-1.362,2.866,5.517,5.517,0,0,0,1.137,4.34c.893,1.258,2.065,2.287,3.062,3.463A15.882,15.882,0,0,1,1125.122,690.606Z" transform="translate(-1079.858 -662.509)" fill="#242424"/>
          <path id="Path_5287" data-name="Path 5287" d="M1247.054,780.925a5.457,5.457,0,0,1,1.3-2.791,4.4,4.4,0,0,1,3.054-.644l10.039.371a6.649,6.649,0,0,1,4.145,1.094,6.137,6.137,0,0,1,1.656,3.082,41.34,41.34,0,0,1,1.561,8.692c-3.843-1.823-8.129-2.437-12.341-3.029l-6.273-.882-3.1-.435a15.119,15.119,0,0,1-3.089-.473c.5-.8,1.3-1.447,1.817-2.272A11.061,11.061,0,0,0,1247.054,780.925Z" transform="translate(-1223.366 -763.018)" fill="#191919"/>
          <path id="Path_5288" data-name="Path 5288" d="M1230.2,832.3c0,12.953-6.81,18.526-16.348,18.989-10.375.5-17.354-7.744-17.354-17.606s7.328-18.19,16.851-17.48C1221.776,816.834,1230.2,823.876,1230.2,832.3Z" transform="translate(-1181.832 -796.84)" fill="#333"/>
          <ellipse id="Ellipse_55" data-name="Ellipse 55" cx="14.713" cy="13.33" rx="14.713" ry="13.33" transform="translate(15.926 27.791)" fill="#242424"/>
          <ellipse id="Ellipse_56" data-name="Ellipse 56" cx="13.018" cy="12.229" rx="13.018" ry="12.229" transform="translate(17.715 30.295)" fill="#191919"/>
          <ellipse id="Ellipse_57" data-name="Ellipse 57" cx="2.138" cy="1.698" rx="2.138" ry="1.698" transform="translate(7.123 14.838)" fill="#222423"/>
          <ellipse id="Ellipse_58" data-name="Ellipse 58" cx="1.716" cy="4.212" rx="1.716" ry="4.212" transform="translate(44.057 11.195) rotate(-81.45)" fill="#2d2d2d"/>
          <ellipse id="Ellipse_59" data-name="Ellipse 59" cx="1.716" cy="4.212" rx="1.716" ry="4.212" transform="translate(44.057 10.818) rotate(-81.45)" fill="#191919"/>
          <path id="Path_5289" data-name="Path 5289" d="M1440.516,723.762l.033,1.581-8.3-1.328-.038-1.427Z" transform="translate(-1387.902 -715.032)" fill="#191919"/>
          <ellipse id="Ellipse_60" data-name="Ellipse 60" cx="1.716" cy="4.212" rx="1.716" ry="4.212" transform="translate(44.057 9.057) rotate(-81.45)" fill="#242524"/>
        </g>
        <g id="Group_1227" data-name="Group 1227" transform="translate(49.169 78.343)">
          <path id="Path_5290" data-name="Path 5290" d="M1284.072,937.771c-.5,2.389-5.533,6.665-7.8,7.294-1.552.431-4.058-.514-7.233-.855a21.475,21.475,0,0,1-5.279-1.345c-6.665-2.515-24.4-25.906-24.4-25.906l-.345.045s0,0,0,0c-1.149.15-4.965.631-8.392.9a0,0,0,0,1,0,0c-1.417.112-2.768.187-3.834.187-3.818,0-6.04.426-7.839-4.306q-.234-.615-.46-1.353a12.068,12.068,0,0,1-4.722.143c-.084-.025-.166-.052-.245-.08-1.195-.44-3.018-2.641-4.653-3.773s-3.772-3.647-3.9-4.4-2.138-2.138-2.012-3.521.754-1.886,1.257-1.509c.411.308,4.019,6.673,10.65,8.121a12.97,12.97,0,0,0,4.881.116c2.411-.389,6.036-.629,10.06-3.773,2.941-2.3,4.429-7.2,5.345-8.111,1.823-1.823.773-4.59.88-5.659.251-2.515-.377-4.653-1.886-8.048-.722-1.624,3.27-2.012,4.15-1.132s.377,2.892.88,3.521,2.264,1.258,2.515,3.27a36.731,36.731,0,0,0,2.641,8.174,29.244,29.244,0,0,1,1.509,4.024,49.977,49.977,0,0,0,8.174,7.671c5.282,4.15,14.965,12.072,14.965,12.072s9.809,4.527,11.318,5.785,2.263,1.132,3.4,4.527A13.393,13.393,0,0,1,1284.072,937.771Z" transform="translate(-1202.955 -880.345)" fill="#cc8174"/>
          <path id="Path_5291" data-name="Path 5291" d="M1213.769,1043.442c-.084-.025-.166-.052-.245-.08-1.195-.44-3.018-2.641-4.653-3.773s-3.772-3.647-3.9-4.4-2.138-2.138-2.012-3.521.754-1.886,1.257-1.509c.411.308,4.019,6.673,10.65,8.121C1215.563,1040.055,1215.268,1042.335,1213.769,1043.442Z" transform="translate(-1202.955 -1011.211)" fill="#d69487"/>
          <path id="Path_5292" data-name="Path 5292" d="M1341.834,1150.378c-1.417.112-2.768.187-3.834.187-3.818,0-6.04.426-7.839-4.306a4.376,4.376,0,0,1,.99.306c1.981.86,3.73,2.047,5.807,2.736A24.323,24.323,0,0,0,1341.834,1150.378Z" transform="translate(-1314.163 -1112.82)" fill="#d69487"/>
          <path id="Path_5293" data-name="Path 5293" d="M1519.78,1197.089a21.477,21.477,0,0,1-5.279-1.346c-6.665-2.515-24.4-25.905-24.4-25.905l-.344.045c1.742-.655,4.536-.044,5.951.487a14.9,14.9,0,0,1,6.115,4.743c1.65,2.025,2.977,4.286,4.449,6.441,3.618,5.3,8.1,9.938,12.555,14.552Z" transform="translate(-1453.693 -1133.224)" fill="#d69487"/>
        </g>
        <g id="Group_1228" data-name="Group 1228" transform="translate(9.513 63.432)">
          <path id="Path_5294" data-name="Path 5294" d="M927.829,775.579c-1.291.831-3.132,1.752-3.132,1.752s1.284-.072,2.186-.053h0a4.753,4.753,0,0,1,.705.053c.629.126.88,1.509,0,3.521s-1.635,7.8-1.635,7.8a13.291,13.291,0,0,1-4.276,1.509,26.6,26.6,0,0,0-4.9,1.383s2.138.629,2.012,1.006a34.591,34.591,0,0,1-3.4,3.018s-4.527,32.193-5.03,36.091-5.282,10.815-9.557,12.7a4.983,4.983,0,0,1-2.823.373c-3.232-.5-6.219-3.9-8.369-6.535-2.767-3.4-2.012-11.821-1.509-14.587s6.288-17.983,6.917-20.372,5.407-13.833,5.911-16.474,1.509-10.186,1.132-12.827.755-4.15,1.509-6.162,3.835-3.71,4.716-3.961c.64-.184,3.412-.633,5.843-1.154.911-.195,1.772-.4,2.457-.606a6.584,6.584,0,0,1,1.3-.255,5.536,5.536,0,0,1,2.066.187,3.474,3.474,0,0,1,.785.319,2.775,2.775,0,0,1,.189,4.213,3.179,3.179,0,0,1-.607.318l-.008,0a58.168,58.168,0,0,1-6.3,1.817v.01l-.5,3.008s1.036-.208,2.077-.389c.218-.039.435-.075.644-.108.348-.057.673-.1.926-.132.819-.091,4.335-.248,7.026-.279,1.03-.013,1.94-.008,2.531.028a2.225,2.225,0,0,1,1.066.343c1.339.839,1.787,2.965,1.072,3.681A6.665,6.665,0,0,1,927.829,775.579Z" transform="translate(-887.614 -761.771)" fill="#d69487"/>
          <path id="Path_5295" data-name="Path 5295" d="M1077.315,766.69a3.17,3.17,0,0,1-.607.318l-.008,0-9.445,2.572s-.755-.377-.755-.755,4.653-1.886,4.653-1.886a6.759,6.759,0,0,1-1.006-1.761,2.723,2.723,0,0,1,.372-2.349c.911-.195,1.772-.4,2.457-.606a6.584,6.584,0,0,1,1.3-.255c.663.039,1.372.1,2.066.187a3.474,3.474,0,0,1,.785.319A2.775,2.775,0,0,1,1077.315,766.69Z" transform="translate(-1044.004 -761.945)" fill="#cc8174"/>
          <path id="Path_5296" data-name="Path 5296" d="M1054.638,822.877s-.88,1.886-1.258,2.012a3.131,3.131,0,0,0-.88.629l.629,1.006,3.144-1.132-1.258-2.892Z" transform="translate(-1031.765 -814.863)" fill="#cc8275"/>
          <path id="Path_5297" data-name="Path 5297" d="M1079.087,819.337l-3.529.88-1-2.892,2.884-.745-.5,3.008s1.036-.208,2.077-.389Z" transform="translate(-1051.051 -809.688)" fill="#c27163"/>
          <path id="Path_5298" data-name="Path 5298" d="M1000.916,837.286a25.6,25.6,0,0,1-4.15,2.515,21.614,21.614,0,0,1,2.892,0c.629.126.88,1.509,0,3.521s-1.635,7.8-1.635,7.8a13.293,13.293,0,0,1-4.276,1.509,26.588,26.588,0,0,0-4.9,1.383s2.138.629,2.012,1.006a34.6,34.6,0,0,1-3.4,3.018s-4.527,32.193-5.03,36.092-5.282,10.815-9.557,12.7a4.982,4.982,0,0,1-2.823.374c1.979-4.922,5.464-13.075,5.464-13.075s6.917-27.289,7.8-30.055c.868-2.728-2.788-4.967-2.89-5.029,1.889.5,7.417-1.385,7.543-2.768s-2.389.126-3.773-.377-.5-2.012,0-2.389,5.911-.5,7.294-1.258,1.132-.377,1.006-1.635-.88-1.635-2.515-2.012-4.653,1.006-5.785.629-1.258-1.509,0-2.138,4.276-.629,6.162-1.132,1.006-.377,1.383-1.258-.126-2.515-.629-3.647-1.006-.629-4.276.5-5.03,1.132-5.91.377,2.012-1.383,3.27-2.012,4.527-.629,5.03-.88-.5-1.258-1.006-2.264a6.4,6.4,0,0,1,.08-3.138c.348-.057.673-.1.926-.132,1.132-.126,7.42-.377,9.557-.251S1001.8,836.406,1000.916,837.286Z" transform="translate(-959.683 -824.242)" fill="#cc8174"/>
          <path id="Path_5299" data-name="Path 5299" d="M1157.8,837.288a25.6,25.6,0,0,1-4.15,2.515s1.284-.072,2.186-.053c-1.463.827-6.335.053-6.335.053s5.407-1.635,5.911-2.264.629-1.383,0-2.767a3.788,3.788,0,0,0-2.28-1.537c1.03-.013,1.94-.008,2.531.028C1157.8,833.39,1158.68,836.408,1157.8,837.288Z" transform="translate(-1116.567 -824.244)" fill="#c17163"/>
          <path id="Path_5300" data-name="Path 5300" d="M1206.566,839.911a6.669,6.669,0,0,1-1.017.763c-.045-.252-.075-.528-.115-.763-.126-.755.377-1.132,0-2.012a2.032,2.032,0,0,1,.06-1.669C1206.834,837.069,1207.281,839.2,1206.566,839.911Z" transform="translate(-1165.333 -826.867)" fill="#ba6455"/>
          <path id="Path_5301" data-name="Path 5301" d="M1105.8,929.5s-11.821,2.138-12.072,2.264,0,.88,0,.88-.5-.5.629-.5,2.138.5,3.144.126a9.216,9.216,0,0,1,2.264-.5c.126,0,1.006-.377,2.012-.629a5.009,5.009,0,0,1,2.012-.377C1105.544,930.632,1105.8,929.5,1105.8,929.5Z" transform="translate(-1067.706 -908.407)" fill="#c27164"/>
          <path id="Path_5302" data-name="Path 5302" d="M1074.417,888.5l-6.917,1.886s.5.377,3.144-.251A9.223,9.223,0,0,0,1074.417,888.5Z" transform="translate(-1044.879 -872.563)" fill="#c57569"/>
          <path id="Path_5303" data-name="Path 5303" d="M1099.889,995.5l-2.389,1.509,3.144-.755-.377-.377Z" transform="translate(-1071.106 -966.108)" fill="#c27163"/>
        </g>
      </g>
      <path id="Path_5304" data-name="Path 5304" d="M.5,1314.6s94.316-9.432,167.882-7.294,131.916,9.935,131.916,9.935v37.1l-299.8.126Z" transform="translate(-0.526 -1142.632)" fill="#e9e6e3"/>
      <g id="Group_1230" data-name="Group 1230" transform="translate(61.112 169.372)">
        <path id="Path_5305" data-name="Path 5305" d="M1342.409,1454.49l-42.546-.028a2.71,2.71,0,0,1,.563-3.441,7.47,7.47,0,0,1,3.442-1.551c16.432-4.11,33.626-3.525,50.553-2.913,2.755.1,6.624,4.255,3.663,6.522-1.585,1.214-5.461,1.074-7.378,1.215C1347.945,1454.5,1345.174,1454.492,1342.409,1454.49Z" transform="translate(-1197.247 -1433.641)" fill="#d1cfcc"/>
        <path id="Path_5306" data-name="Path 5306" d="M595.38,1364.028a2.475,2.475,0,0,0-1.965.478c-.52.552-.414,1.417-.5,2.171-.381,3.431-4.7,4.645-8.143,4.9-10.261.753-20.635,4.154-30.784,2.459-4.152-.693-8.309-5.472-12.508-5.164-7.095.52-17.734,7.13-24.841,7.428-13.7.573-12.088-11.353-25.78-10.689-2.119-5.318-7.134-15.039-1.85-17.244s11.268-1.542,16.95-.842l9.277,1.144c17.222,2.124,34.6,4.252,51.883,2.691a20.569,20.569,0,0,1,4.3-.112,24.68,24.68,0,0,1,5.049,1.474c14.921,5.177,31.333,1.391,47.072,2.706,6.173.516,12.274,1.825,18.465,2.036a10.568,10.568,0,0,0,4.363-.527c2.276-.927,3.705-3.135,5.313-4.993s3.949-3.572,6.329-2.962c2.233,1.854.72,5.614-1.547,7.427-2.785,2.227-5.943,5.479-9.394,6.286-5.419,1.268-11.765,1-17.314,1.27Q612.585,1364.81,595.38,1364.028Z" transform="translate(-486.671 -1346.852)" fill="#b5d0ee"/>
        <path id="Path_5307" data-name="Path 5307" d="M619.661,1398.633c7.576.21,14.935,2.388,22.324,4.074s15.129,2.885,22.5,1.139c3.466-.82,6.851-2.288,10.412-2.217,1.832.036,3.673.482,5.48.182,4.109-.682,7.083-5.025,11.247-5.088q.082-1.139.164-2.279,4.547-.245,9.1-.044c1.648.073,3.629.418,4.242,1.95-4.609-2.814-10.125-3.63-15.472-4.386-6.636-.939-13.279-1.879-19.962-2.391l-.435,1.792c-5.867-1.86-11.958-3.743-18.068-3a57.647,57.647,0,0,0-8.486,2.066,86.593,86.593,0,0,1-27.145,3.087c-3.155-.142-7.449-1.638-10.536-1.012-1.047.212-2.765,1.191-3.071,2.312-.55,2.013,2.056,2.583,3.681,3.04C610.189,1399.137,615.011,1398.5,619.661,1398.633Z" transform="translate(-587.399 -1382.999)" fill="#a3bbd6"/>
        <path id="Path_5308" data-name="Path 5308" d="M802.46,1435.714a5.512,5.512,0,0,1-1.563,4.313,7.786,7.786,0,0,1-2.963,1.538,33.438,33.438,0,0,1-9.945,1.664,7.522,7.522,0,0,1-2.138-.2,8.753,8.753,0,0,1-2.3-1.178q-1.068-.684-2.149-1.349a1.892,1.892,0,0,0-.956-.366,2.363,2.363,0,0,0-.877.268,9.648,9.648,0,0,1-3.734.493h-5.563a22.831,22.831,0,0,1-8.812-1.348c-2.074-.63-4.255-1.325-5.713-2.928-.57-.626-.917-1.781-.177-2.191a1.6,1.6,0,0,1,.785-.133l18.4.013c1.51,0,3.3-.15,4.06-1.454a10.472,10.472,0,0,1,.488-.936c.61-.838,1.833-.844,2.867-.783a96.085,96.085,0,0,0,16.259-.434C801.365,1430.377,802.327,1433.209,802.46,1435.714Z" transform="translate(-721.39 -1420.137)" fill="#92a8c0"/>
        <path id="Path_5309" data-name="Path 5309" d="M935.4,1374.4a5.154,5.154,0,0,1-2.228,1.551,8.914,8.914,0,0,1-.921.3,19.239,19.239,0,0,1-4.472.454,21.047,21.047,0,0,1-5.025-.289,7.067,7.067,0,0,1-4.239-2.53c-1.807-2.47-1.274-4.573.322-6.238,2.616-2.729,8.089-4.279,10.785-4.339a7.477,7.477,0,0,1,2.157.209c2.724.749,4.252,3.739,4.541,6.549A6,6,0,0,1,935.4,1374.4Z" transform="translate(-863.221 -1361.232)" fill="#c0272d"/>
        <path id="Path_5310" data-name="Path 5310" d="M932.256,1404.955a19.252,19.252,0,0,1-4.472.454,21.053,21.053,0,0,1-5.025-.289,7.068,7.068,0,0,1-4.239-2.53c-1.807-2.47-1.274-4.573.322-6.237,1.945-.9,2.672,1.242,4.051,2.9a15.763,15.763,0,0,0,3.131,3.061,17.593,17.593,0,0,0,6.171,2.227A1.929,1.929,0,0,1,932.256,1404.955Z" transform="translate(-863.221 -1389.941)" fill="#a31d21"/>
        <path id="Path_5311" data-name="Path 5311" d="M756.628,1366.815c.053,4.608-5.081,8.63-10.06,8.8a10.426,10.426,0,0,1-9.306-5.156c-1.264-2.245-2.273-6.189-.252-8.929,1.376-1.866,3.528-2.318,5.659-2.767,1.854-.39,5.794-1.219,9.432,1.132C753.069,1360.524,756.584,1363.035,756.628,1366.815Z" transform="translate(-704.524 -1356.861)" fill="#a31d21"/>
        <path id="Path_5312" data-name="Path 5312" d="M843.989,1388.3c0,4.584-4.25,8.3-9.494,8.3a10.74,10.74,0,0,1-1.635-.123c-4.466-.677-7.86-4.081-7.86-8.177s3.394-7.5,7.86-8.177a10.755,10.755,0,0,1,1.635-.123C839.738,1380,843.989,1383.716,843.989,1388.3Z" transform="translate(-782.454 -1375.832)" fill="#a31d21"/>
        <ellipse id="Ellipse_61" data-name="Ellipse 61" cx="7.86" cy="8.177" rx="7.86" ry="8.177" transform="translate(42.546 4.292)" fill="#c0272d"/>
        <path id="Path_5313" data-name="Path 5313" d="M992.969,1399.348a5.93,5.93,0,0,1-1.839,2.279,11.377,11.377,0,0,1-7.967,2.465c-3.4-.257-6.515-2.123-7.465-5.955a4.771,4.771,0,0,1-.122-1.967,5.527,5.527,0,0,1,.863-1.971,14.592,14.592,0,0,1,8.414-6.167,6.948,6.948,0,0,1,4.432.033,6.033,6.033,0,0,1,3.146,3.556,9.765,9.765,0,0,1,.363,1.216,21.065,21.065,0,0,1,.435,3.583A6.907,6.907,0,0,1,992.969,1399.348Z" transform="translate(-914.047 -1382.55)" fill="#c0272d"/>
        <path id="Path_5314" data-name="Path 5314" d="M1046.1,1435.17a5.929,5.929,0,0,1-1.839,2.279,11.378,11.378,0,0,1-7.967,2.465c.1-.031.194-.067.289-.1a11.568,11.568,0,0,0,4.784-4.207c1.422-1.919,2.446-4.029,3.739-6.016a3.409,3.409,0,0,1,.82-.927,21.081,21.081,0,0,1,.435,3.583A6.907,6.907,0,0,1,1046.1,1435.17Z" transform="translate(-967.173 -1418.372)" fill="#a31d22"/>
      </g>
      <g id="Group_1233" data-name="Group 1233" transform="translate(128.177 152.391)">
        <path id="Path_5315" data-name="Path 5315" d="M1040,1357.922s13.33,9.683,19.869,11.444c2.965.8,58.979,2.138,63.632.251s21.61-6.73,23.506-10.784S1040,1357.922,1040,1357.922Z" transform="translate(-1037.482 -1338.533)" fill="#54230a"/>
        <ellipse id="Ellipse_62" data-name="Ellipse 62" cx="55.227" cy="9.073" rx="55.227" ry="9.073" transform="translate(0 9.343)" fill="#935f33"/>
        <path id="Path_5316" data-name="Path 5316" d="M1250.611,1234.427a1.547,1.547,0,0,0,.756-.172c.572-.363.431-1.217.614-1.869a2.307,2.307,0,0,1,1.494-1.443,6.375,6.375,0,0,1,2.131-.264,8.5,8.5,0,0,1,4.8,1,1.421,1.421,0,0,1,.746,1.064,6.856,6.856,0,0,0,.846-2.254,5.435,5.435,0,0,1,3.734-2.967c1.581-.47,3.254-.584,4.819-1.1.725-.241,1.423-.569,2.166-.747a11.263,11.263,0,0,1,3.035-.167,1.74,1.74,0,0,1,2.109,1.836,8.477,8.477,0,0,1-.169,4.414,6.592,6.592,0,0,1-1.167,1.762,15.184,15.184,0,0,1-4.456,3.506,5.681,5.681,0,0,0-2.417,1.737c-.592.952-.443,2.181-.781,3.25-.605,1.914-2.605,2.97-4.443,3.779-2.577,1.133-5.37,2.192-8.143,1.705a47.469,47.469,0,0,1-4.613-1.5c-1.588-.45-3.319-.573-4.7-1.484a6.576,6.576,0,0,1-2.554-4.14,8.076,8.076,0,0,1,.243-4.643c.33-.852,1.485-2.933,2.6-2.9.625.017.848.843,1.263,1.188A2.882,2.882,0,0,0,1250.611,1234.427Z" transform="translate(-1216.001 -1223.757)" fill="none" stroke="#82303a" stroke-miterlimit="10" stroke-width="1"/>
        <path id="Path_5317" data-name="Path 5317" d="M1154.08,1245.557a10.7,10.7,0,0,0,3.265-.787c1.515-.845,2.141-2.664,2.644-4.323a2.375,2.375,0,0,1,3.368,3.089c-.351.7-1.027,1.19-1.383,1.885a2.655,2.655,0,0,0,1.387,3.505,2.975,2.975,0,0,0,3.6-1.428,20.252,20.252,0,0,1,.917-2.329,3.9,3.9,0,0,1,2.343-1.394,5.062,5.062,0,0,1,3.495.139,2.511,2.511,0,0,1,1.383,2.949c-.509,1.331-2.415,2.009-2.359,3.433.052,1.326,1.844,2.05,1.951,3.373.1,1.229-1.321,2.173-1.269,3.405a4.507,4.507,0,0,0,.838,1.852,1.566,1.566,0,0,1-.037,1.9,1.844,1.844,0,0,1-1.448.229l-21.173-2.539c-1.778-.213-3.744-.526-4.864-1.924-1.227-1.531-.916-3.87.192-5.49a12.2,12.2,0,0,1,3.788-3.262c.662-.413.821-.946,1.4-1.435A4.3,4.3,0,0,1,1154.08,1245.557Z" transform="translate(-1130.101 -1236.552)" fill="#6d252c"/>
        <path id="Path_5318" data-name="Path 5318" d="M1145,1273.686a1.511,1.511,0,0,0-1.206.355,1.743,1.743,0,0,0-.343.866l-.171.866a1.876,1.876,0,0,0-.02.968,3.853,3.853,0,0,0,.449.721,3.678,3.678,0,0,1,.125,2.669,26.591,26.591,0,0,0,4.622-2.232,2.013,2.013,0,0,0,.571-.456C1150.581,1275.423,1146.328,1273.746,1145,1273.686Z" transform="translate(-1127.704 -1265.903)" fill="#38b64a"/>
        <path id="Path_5319" data-name="Path 5319" d="M1380.386,1309.559a4.69,4.69,0,0,1,1.92.211,1.522,1.522,0,0,0,.085-2.193c-.217-.205-.495-.342-.695-.563a2.865,2.865,0,0,1-.49-1.117,6.4,6.4,0,0,0-.477-1.135.568.568,0,0,0-.172-.219.506.506,0,0,0-.2-.066,2.4,2.4,0,0,0-2.264,1.147c-.386.569-1.31,2.487-.825,3.133.235.313.838.3,1.182.365A16.834,16.834,0,0,0,1380.386,1309.559Z" transform="translate(-1332.22 -1292.803)" fill="#009146"/>
        <path id="Path_5320" data-name="Path 5320" d="M1108.889,1289.467c.553-.012,1.206.069,1.565-.351.457-.535.022-1.372.2-2.054a1.4,1.4,0,0,1,1.887-.793,2.037,2.037,0,0,1,1.079,1.916,3.883,3.883,0,0,1-.841,2.135,14.535,14.535,0,0,1-1.925,2.03l-1.955,1.813,5.315,2.026a5.023,5.023,0,0,0,1.768.437,1.706,1.706,0,0,0,1.537-.818c.268-.526.14-1.18.379-1.72a1.838,1.838,0,0,1,2.373-.718,4.6,4.6,0,0,1,1.92,1.907,5.753,5.753,0,0,1,.941,2.159,2.364,2.364,0,0,1-.686,2.163,2.632,2.632,0,0,1-2.209.409c-.76-.152-1.469-.489-2.212-.709-4.208-1.246-8.781,1.362-13.05.345a3.408,3.408,0,0,1-2.626-2,2.859,2.859,0,0,1,.408-2.3,8.477,8.477,0,0,1,1.628-1.765l1.476-1.322a7.65,7.65,0,0,0,1.672-1.741C1107.856,1289.955,1108.116,1289.467,1108.889,1289.467Z" transform="translate(-1091.902 -1276.805)" fill="#8bc53f"/>
        <path id="Path_5321" data-name="Path 5321" d="M1378,1248.312a2.132,2.132,0,0,0-1.133,2.317.956.956,0,0,1,.041.491.746.746,0,0,1-.245.312,16.18,16.18,0,0,0-1.54,1.365,2.574,2.574,0,0,0-.738,1.863c.032.371.168.788-.055,1.086a1.4,1.4,0,0,1-.37.291,2.369,2.369,0,0,0-.7,3.05.868.868,0,0,0,.79.515c.376-.055.565-.474.672-.839a13.69,13.69,0,0,0,.412-1.89,1.43,1.43,0,0,1,.313-.855.917.917,0,0,1,1.318.268,2.261,2.261,0,0,1,.232,1.486,4.081,4.081,0,0,0,0,1.525c.337.419,1.1.01,1.521.348a.89.89,0,0,1,.259.663,4.341,4.341,0,0,0,.057.8.756.756,0,0,0,.5.581c.341.084.66-.178.923-.41a20.5,20.5,0,0,1,5.563-3.235,4.059,4.059,0,0,0,1.507-.922,2.046,2.046,0,0,0-.295-2.869,3.959,3.959,0,0,0-1.706-.594l-1.974-.361c-.74-.135-1.618-.391-1.815-1.117a2.819,2.819,0,0,1-.032-.787C1381.533,1249.687,1379.931,1247.4,1378,1248.312Z" transform="translate(-1328.583 -1243.541)" fill="none" stroke="#38b44a" stroke-miterlimit="10" stroke-width="1"/>
        <path id="Path_5322" data-name="Path 5322" d="M1438.713,1229.488a2.774,2.774,0,0,1-1.068,1.185l-1.245.932-.089.067a3.62,3.62,0,0,1-1.081.626,3.573,3.573,0,0,1-1.23.073,12.778,12.778,0,0,1-2.861-.391,4.5,4.5,0,0,1-2.388-1.542,6.022,6.022,0,0,0-1.1-1.456.7.7,0,0,0-.343-.15,1.016,1.016,0,0,0-.4.083,4.382,4.382,0,0,1-4.642-1.31,2.465,2.465,0,0,1-.514-.922,3.355,3.355,0,0,1,.57-2.365c.4-.75.961-1.578,1.811-1.64.653-.047,1.266.394,1.919.35,1.852-.128,2-2.988,3.828-3.429a3.7,3.7,0,0,1,2.978,1.121,3.309,3.309,0,0,1,.885,1.212c.367.995.143,2.171.668,3.092a3.717,3.717,0,0,0,1.709,1.374,7.845,7.845,0,0,1,1.929,1.1A1.945,1.945,0,0,1,1438.713,1229.488Z" transform="translate(-1371.17 -1218.578)" fill="none" stroke="#b17f44" stroke-miterlimit="10" stroke-width="1"/>
        <path id="Path_5323" data-name="Path 5323" d="M1494.229,1237.6a2.771,2.771,0,0,1-1.068,1.185l-1.245.932c-.115-.02-.23-.043-.345-.064l-1.773-.334a1.081,1.081,0,0,1-.728-.347.848.848,0,0,1-.122-.464,12.767,12.767,0,0,1,.357-1.933c.086-.651-.146-1.45-.777-1.63-.245-.07-.575-.077-.658-.318a.6.6,0,0,1,.048-.379,3.418,3.418,0,0,0,.172-1.185,1.122,1.122,0,0,0-.172-.634,1.072,1.072,0,0,0-.5-.336c-.425-.162-.884-.22-1.306-.387a1.377,1.377,0,0,1-.911-.934,1.589,1.589,0,0,1,.789-1.421,3.83,3.83,0,0,1,2.377-.521,3.309,3.309,0,0,1,.885,1.212c.367.995.143,2.17.668,3.092a3.719,3.719,0,0,0,1.709,1.375,7.845,7.845,0,0,1,1.929,1.1A1.945,1.945,0,0,1,1494.229,1237.6Z" transform="translate(-1426.686 -1226.693)" fill="#915f31"/>
        <path id="Path_5324" data-name="Path 5324" d="M1437.255,1249.724c.487.352.477,1.06.6,1.648a.743.743,0,0,0,.155.355.866.866,0,0,0,.767.143l1.167-.157a1.389,1.389,0,0,1,1.278.258c.535.639-.362,1.706.082,2.412.317.5,1.169.535,1.355,1.1a.738.738,0,0,1-.536.883,1.077,1.077,0,0,1-1.037-.365,2.063,2.063,0,0,1-.445-1.051,2.6,2.6,0,0,0-.407-1.372,1.783,1.783,0,0,0-1.589-.358,2.558,2.558,0,0,0-1.8.84.33.33,0,0,1-.147.138.3.3,0,0,1-.255-.09c-.725-.559-1.912-1.6-1.073-2.517.309-.339.651-.515.863-.952C1436.432,1250.246,1436.582,1249.238,1437.255,1249.724Z" transform="translate(-1382.887 -1244.844)" fill="#925f33"/>
        <path id="Path_5325" data-name="Path 5325" d="M1473.027,1215.8c.271-.185.485-.443.746-.643a2.19,2.19,0,0,1,2.279-.2,2.455,2.455,0,0,0,.711.325c.763.118,1.208-.833,1.325-1.6s.341-1.725,1.1-1.854c.9-.152,1.371.977,1.912,1.708a5.307,5.307,0,0,0,3.568,1.7,9.332,9.332,0,0,1,3.868,1.1,6.579,6.579,0,0,1,2.344,4.242l-2.536-2.7c-.656.1-.666,1.065-1.117,1.552a2.507,2.507,0,0,1-.63.421,2.355,2.355,0,0,0-1.186,1.382,1.28,1.28,0,0,0,.74,1.527,2.59,2.59,0,0,0,1.673-.384,2.159,2.159,0,0,1,2.606.434,2.2,2.2,0,0,1-.328,2.4,4.419,4.419,0,0,1-2.632,1.811,3.309,3.309,0,0,1-3.016-.851c-.654-.674-.949-1.634-1.6-2.313s-1.991-.88-2.393-.03c-.25.527.012,1.161-.118,1.73a3.316,3.316,0,0,1-1.06,1.418,1.58,1.58,0,0,0-.554,1.6c.253.6,1.026.729,1.642.947s1.237.949.816,1.45a7.071,7.071,0,0,0,2.929,1.287,1.558,1.558,0,0,1,.653.214.936.936,0,0,1,.012,1.34,2.128,2.128,0,0,1-1.375.548,1.585,1.585,0,0,1-.851-.089c-.477-.23-.678-.837-1.151-1.077a1.426,1.426,0,0,0-1.587.464c-.406.43-.669.98-1.085,1.4-1.21,1.224-3.195.983-4.915.918-1.55-.059-3.1.1-4.651.008a7.625,7.625,0,0,1-4.353-1.419,3.944,3.944,0,0,1-1.472-4.117,4.257,4.257,0,0,1,1.923-2.223,1.821,1.821,0,0,0,.665-.541,1.493,1.493,0,0,0,.158-.751,10.825,10.825,0,0,0-.324-2.868,12.5,12.5,0,0,1-.511-2.286c-.109-1.857,1.221-4.071,2.519-5.35C1469.292,1214.936,1471.376,1216.926,1473.027,1215.8Z" transform="translate(-1407.46 -1211.818)" fill="#009145"/>
        <g id="Group_1231" data-name="Group 1231" transform="translate(54.036 10.02)">
          <path id="Path_5326" data-name="Path 5326" d="M1449.709,1305s-.755,4.9,4.15,5.91,6.954,1.509,8.947-1.886Z" transform="translate(-1449.668 -1303.302)" fill="#f2f2f2"/>
          <path id="Path_5327" data-name="Path 5327" d="M1465.051,1296.907c-.443,1.392-4.1,1.551-7.684.414s-5.712-3.3-5.269-4.689,3.291-1.489,6.871-.352c.444.141.879.3,1.3.464a14.155,14.155,0,0,1,3.471,1.924C1464.726,1295.454,1465.257,1296.258,1465.051,1296.907Z" transform="translate(-1451.742 -1291.499)" fill="#fafafa"/>
          <path id="Path_5328" data-name="Path 5328" d="M1488.413,1302.83c-.215,1.09-2.257,1.606-4.56,1.152s-4-1.706-3.781-2.8,2.256-1.606,4.56-1.152c.043.009.084.016.126.026a14.156,14.156,0,0,1,3.471,1.924A1.183,1.183,0,0,1,1488.413,1302.83Z" transform="translate(-1476.232 -1298.816)" fill="#f9b01b"/>
        </g>
        <g id="Group_1232" data-name="Group 1232" transform="translate(31.777 16.182)">
          <path id="Path_5329" data-name="Path 5329" d="M1272.71,1354s-.755,4.9,4.15,5.91,6.954,1.509,8.947-1.886Z" transform="translate(-1272.668 -1352.302)" fill="#f2f2f2"/>
          <path id="Path_5330" data-name="Path 5330" d="M1288.051,1345.907c-.443,1.392-4.1,1.551-7.684.414s-5.712-3.3-5.269-4.689,3.291-1.489,6.871-.352c.444.141.879.3,1.3.464a14.147,14.147,0,0,1,3.471,1.924C1287.726,1344.454,1288.257,1345.258,1288.051,1345.907Z" transform="translate(-1274.742 -1340.499)" fill="#fafafa"/>
          <path id="Path_5331" data-name="Path 5331" d="M1311.413,1351.83c-.215,1.09-2.257,1.606-4.56,1.152s-4-1.706-3.781-2.8,2.256-1.606,4.56-1.152c.043.009.084.016.126.026a14.14,14.14,0,0,1,3.471,1.924A1.183,1.183,0,0,1,1311.413,1351.83Z" transform="translate(-1299.232 -1347.816)" fill="#f9b01b"/>
        </g>
        <path id="Path_5332" data-name="Path 5332" d="M1398.438,1340.74a2.856,2.856,0,0,1,.746.53,2.322,2.322,0,0,1,.491,1.105,4.9,4.9,0,0,1-.112,2.587,3.517,3.517,0,0,1-1.628,1.975,5.829,5.829,0,0,1-2.457.5,26.27,26.27,0,0,1-11.512-1.515,2.9,2.9,0,0,1,.63-2.767,8.566,8.566,0,0,1,2.352-1.792l3.072-1.821a10.9,10.9,0,0,1,2.849-1.622c.836-.154,1.889.755,2.579,1.142A19.486,19.486,0,0,0,1398.438,1340.74Z" transform="translate(-1338.072 -1322.05)" fill="#c1262d"/>
        <path id="Path_5333" data-name="Path 5333" d="M1416.713,1344.212a4.813,4.813,0,0,1,.907,1.7,2.14,2.14,0,0,1-.323,1.845,2.692,2.692,0,0,1-.9.667,7.452,7.452,0,0,1-8.229-1.136,2.612,2.612,0,0,1-.91-1.454,1.174,1.174,0,0,1,.827-1.346c.573-.1,1.071.361,1.511.741a8.234,8.234,0,0,0,3.995,1.877,1.553,1.553,0,0,0,1.054-.1c.5-.3.557-.98.56-1.559a1.45,1.45,0,0,0-.717-1.481l-1.189-.946a2.72,2.72,0,0,1-.68-.689.779.779,0,0,1,.341-1.21c.481-.144.88.283,1.237.557A13.372,13.372,0,0,1,1416.713,1344.212Z" transform="translate(-1358.543 -1324.84)" fill="#a31d22"/>
        <path id="Path_5334" data-name="Path 5334" d="M1738.623,1286.831c.088.709.94,1.069,1.653,1.017s1.39-.367,2.1-.393a1.177,1.177,0,0,1,.489.067c.683.279.589,1.3.208,1.931s-.948,1.266-.83,1.994a1.575,1.575,0,0,0,1.055,1.137,4.641,4.641,0,0,0,1.605.194l1.132,0a1.16,1.16,0,0,0-.937.914.928.928,0,0,0,.712,1.037,4.215,4.215,0,0,0,1.173-.219c.4-.052.909.274.751.643-.067.156-.23.244-.356.357a1,1,0,0,0,.76,1.643c.035.784-.913,1.186-1.679,1.354q-4.47.982-9.016,1.556a1.323,1.323,0,0,1-1.053-.167,1.191,1.191,0,0,1-.319-.706c-.4-2.226.447-4.719-.686-6.676-.4-.693-1.022-1.247-1.372-1.968C1732.309,1287.023,1736.417,1286.932,1738.623,1286.831Z" transform="translate(-1643.869 -1277.398)" fill="#008436"/>
        <path id="Path_5335" data-name="Path 5335" d="M1600.477,1236c-.576.569-1.524.9-1.643,1.7-.963-.541-2.281-1.043-3.059-.26-.448-1.143-1.1-2.456-2.314-2.63a3.535,3.535,0,0,0-2.2.7,3.345,3.345,0,0,0-.9.679c-.857,1.02-.246,2.556.391,3.725l1.317-.53a4.24,4.24,0,0,1,1.892-.439,1.451,1.451,0,0,1,1.379,1.164,1.884,1.884,0,0,1-.327,1.078,3.943,3.943,0,0,1-2.579,2.106,4.587,4.587,0,0,1-3.449-1.355,8.1,8.1,0,0,0-3.207-2.008,11.572,11.572,0,0,1-1.835,4.516c-.327.479-.7,1.116-.356,1.585a1.566,1.566,0,0,0,1,.443,5.143,5.143,0,0,1,3.723,3.357c-1.412-.357-3.095-.627-4.165.36a4.531,4.531,0,0,0-1.086,2.722l5.374.056a40.157,40.157,0,0,0,5.759-.216c3.948-.53,7.753-2.234,11.733-2.076a1.135,1.135,0,0,0,.915-.221c.309-.342.069-.884-.2-1.258a11.276,11.276,0,0,0-1.677-1.849c1.015-.5,2.153-1.152,2.339-2.267a2.436,2.436,0,0,0-1.117-2.267,7.168,7.168,0,0,0-2.472-.951,2.519,2.519,0,0,1,.753-2.172,16.8,16.8,0,0,0,1.621-1.756,5.954,5.954,0,0,0,.72-3.426,4.007,4.007,0,0,0-.621-2.4c-.754-.975-3.168-1.955-4.185-.918C1600.8,1232.405,1601.79,1234.7,1600.477,1236Z" transform="translate(-1512.244 -1228.365)" fill="#006429"/>
        <path id="Path_5336" data-name="Path 5336" d="M1671.672,1356.994c.287-.671.692-1.458,1.42-1.513a2.476,2.476,0,0,1,1.094.31,4.834,4.834,0,0,0,3.372.106,1.61,1.61,0,0,1-1.136,1.81c-.545.14-1.209.006-1.6.407-.265.268-.3.682-.475,1.017a2.373,2.373,0,0,1-2.081.98,7.881,7.881,0,0,1-3.387-.49c.4-.539,1.053-.442,1.574-.785A4.021,4.021,0,0,0,1671.672,1356.994Z" transform="translate(-1587.271 -1337.412)" fill="#009145"/>
      </g>
      <rect id="Rectangle_317" data-name="Rectangle 317" width="300.59" height="211.439" transform="translate(-0.422 0)" fill="none"/>
    </g>
  </g>
</svg>
