<svg xmlns="http://www.w3.org/2000/svg" xmlns:xlink="http://www.w3.org/1999/xlink" width="322" height="260" viewBox="0 0 322 260">
  <defs>
    <clipPath id="clip-path">
      <path id="SVGID" d="M727.309,1307.187c-1.965.617-3.922,1.158-5.9,1.6,1.058,7.246,2.72,15.257,6.28,21.852.993,1.84.832,6.28.761,9.937-.06,3.064,2.22,9.42,3.619,13.036.247.638-.3,2.934-.4,3.671,1.27,1.738,6.066,4.9,7.729,5.468a50.087,50.087,0,0,0-2-4.739c-.291-.445-2.4-4.742-2.4-4.762-1.559-8.105-.827-18.76-1.1-20.822-.557-4.277-1.4-8.056-1.722-11.538C731.668,1315.36,728.9,1312.1,727.309,1307.187Z" transform="translate(-721.404 -1307.187)" fill="none"/>
    </clipPath>
    <clipPath id="clip-path-2">
      <path id="SVGID-2" data-name="SVGID" d="M685.787,1273.066c-.408.9-3.011,7.6-2.876,10.219.225,4.373,1.76,7.685,2.139,12.1.035.405,2.818.413,4.652.5,1.521.075,8.286-.082,10.061-.327-.691-6.047-3.035-19.386-3.893-22.136Z" transform="translate(-682.906 -1273.066)" fill="none"/>
    </clipPath>
    <linearGradient id="linear-gradient" x1="0.142" y1="-0.332" x2="0.75" y2="1.058" gradientUnits="objectBoundingBox">
      <stop offset="0" stop-color="#f0baa2"/>
      <stop offset="0.267" stop-color="#efb79e"/>
      <stop offset="0.504" stop-color="#eeb093"/>
      <stop offset="0.731" stop-color="#eda381"/>
      <stop offset="0.95" stop-color="#eb9267"/>
      <stop offset="1" stop-color="#eb8e61"/>
    </linearGradient>
    <linearGradient id="linear-gradient-2" x1="-209.866" y1="-3.446" x2="-208.859" y2="-3.446" gradientUnits="objectBoundingBox">
      <stop offset="0" stop-color="#4d4d4d"/>
      <stop offset="1" stop-color="#1a1a1a"/>
    </linearGradient>
    <linearGradient id="linear-gradient-3" x1="-87.39" y1="0.839" x2="-85.894" y2="0.121" xlink:href="#linear-gradient-2"/>
    <linearGradient id="linear-gradient-4" x1="-18.555" y1="0.494" x2="-19.717" y2="0.505" xlink:href="#linear-gradient-2"/>
    <linearGradient id="linear-gradient-5" y1="0.5" x2="1" y2="0.5" gradientUnits="objectBoundingBox">
      <stop offset="0.001" stop-color="#fff3e8"/>
      <stop offset="0.553" stop-color="#ffece0"/>
      <stop offset="1" stop-color="#ffe4d6"/>
    </linearGradient>
    <linearGradient id="linear-gradient-9" x1="12.584" y1="0.5" x2="13.584" y2="0.5" gradientUnits="objectBoundingBox">
      <stop offset="0" stop-color="#4c5e75"/>
      <stop offset="1" stop-color="#333e4f"/>
    </linearGradient>
    <linearGradient id="linear-gradient-10" x1="123.235" y1="-0.05" x2="123.235" y2="1.215" xlink:href="#linear-gradient-9"/>
    <linearGradient id="linear-gradient-11" x1="129.501" y1="-0.05" x2="129.501" y2="1.215" xlink:href="#linear-gradient-9"/>
    <linearGradient id="linear-gradient-12" x1="123.218" y1="-0.05" x2="123.218" y2="1.215" xlink:href="#linear-gradient-9"/>
    <linearGradient id="linear-gradient-13" x1="129.508" y1="-0.05" x2="129.508" y2="1.215" xlink:href="#linear-gradient-9"/>
    <linearGradient id="linear-gradient-14" x1="135.767" y1="-0.05" x2="135.767" y2="1.215" xlink:href="#linear-gradient-9"/>
    <linearGradient id="linear-gradient-15" x1="135.773" y1="-0.05" x2="135.773" y2="1.215" xlink:href="#linear-gradient-9"/>
    <linearGradient id="linear-gradient-16" x1="142.045" y1="-0.05" x2="142.045" y2="1.215" xlink:href="#linear-gradient-9"/>
    <linearGradient id="linear-gradient-17" x1="142.045" y1="-0.05" x2="142.045" y2="1.215" xlink:href="#linear-gradient-9"/>
    <linearGradient id="linear-gradient-18" x1="-6.963" y1="0.5" x2="-5.963" y2="0.5" xlink:href="#linear-gradient-9"/>
    <linearGradient id="linear-gradient-19" x1="-46.842" y1="-0.017" x2="-46.876" y2="1.1" xlink:href="#linear-gradient-9"/>
    <linearGradient id="linear-gradient-20" x1="-53.114" y1="-0.018" x2="-53.148" y2="1.099" xlink:href="#linear-gradient-9"/>
    <linearGradient id="linear-gradient-22" x1="-53.114" y1="-0.018" x2="-53.148" y2="1.099" xlink:href="#linear-gradient-9"/>
    <linearGradient id="linear-gradient-23" x1="-59.391" y1="-0.02" x2="-59.426" y2="1.098" xlink:href="#linear-gradient-9"/>
    <linearGradient id="linear-gradient-24" x1="-59.386" y1="-0.02" x2="-59.42" y2="1.098" xlink:href="#linear-gradient-9"/>
    <linearGradient id="linear-gradient-25" x1="-65.658" y1="-0.021" x2="-65.692" y2="1.097" xlink:href="#linear-gradient-9"/>
    <linearGradient id="linear-gradient-26" x1="-65.658" y1="-0.021" x2="-65.692" y2="1.097" xlink:href="#linear-gradient-9"/>
    <clipPath id="clip-promo-videos">
      <rect width="322" height="260"/>
    </clipPath>
  </defs>
  <g id="promo-videos" clip-path="url(#clip-promo-videos)">
    <g id="Group_1175" data-name="Group 1175" transform="translate(5.198 -5.772)">
      <g id="Group_1174" data-name="Group 1174" transform="translate(30.96 36.698)">
        <g id="Group_1173" data-name="Group 1173">
          <path id="Path_2725" data-name="Path 2725" d="M321.508,471.509c-63.521.77-95.163-43.153-92.683-82.1A59.966,59.966,0,0,1,266.9,337.464c12.576-4.9,17.356-1.447,23.513-3.552,19.576-6.692,17.49-24.124,33.921-42.411,45.8-41.534,149.426-21.809,159.395,52.032a26.6,26.6,0,0,1-.075,7.792c-2.731,16.984-17.017,24.324-5.352,42.375,29.979,46.393-39.546,70.134-58.444,75.526C407.727,472.688,321.508,471.509,321.508,471.509Z" transform="translate(-228.69 -270.095)" fill="#ebf3fa" opacity="0.3"/>
          <g id="Group_1130" data-name="Group 1130" transform="translate(3.102 9.783)">
            <g id="Group_1085" data-name="Group 1085" transform="translate(31.056 107.9)" opacity="0.5">
              <path id="Path_2746" data-name="Path 2746" d="M788.05,1304.2l-.041-.013c-.01.1-.025.2-.043.3Z" transform="translate(-746.21 -1281.505)" fill="#dff3f7" opacity="0.8"/>
              <path id="Path_2747" data-name="Path 2747" d="M729.082,1288.065l-.022-.008.008.017Z" transform="translate(-695.3 -1267.566)" fill="#dff3f7"/>
              <path id="Path_2748" data-name="Path 2748" d="M640.047,1258.709l.009.019.016-.011Z" transform="translate(-618.37 -1242.201)" fill="#dff3f7"/>
              <path id="Path_2749" data-name="Path 2749" d="M553.109,1229.533l-.028-.01.01.021Z" transform="translate(-543.208 -1216.977)" fill="#dff3f7"/>
              <path id="Path_2750" data-name="Path 2750" d="M480.374,1205.337l-.031-.011.011.024Z" transform="translate(-480.343 -1196.065)" fill="#dff3f7"/>
              <path id="Path_2751" data-name="Path 2751" d="M776.2,1248.065l-.532.49A3.06,3.06,0,0,0,776.2,1248.065Z" transform="translate(-735.583 -1233.002)" fill="#a0d4ce"/>
              <path id="Path_2752" data-name="Path 2752" d="M775.669,1251.677Z" transform="translate(-735.583 -1236.124)" fill="#dff3f7" opacity="0.8"/>
              <path id="Path_2753" data-name="Path 2753" d="M779.784,1246.537l-.03-.031q-.078.109-.165.212Z" transform="translate(-738.97 -1231.655)" fill="#dff3f7" opacity="0.8"/>
              <path id="Path_2754" data-name="Path 2754" d="M735.917,1204.221l-.016-.017v.017Z" transform="translate(-701.212 -1195.095)" fill="#dff3f7"/>
              <path id="Path_2755" data-name="Path 2755" d="M670.477,1137.111l-.018-.02v.02Z" transform="translate(-644.653 -1137.092)" fill="#dff3f7"/>
              <g id="Group_1082" data-name="Group 1082" transform="translate(29.271 14.433)">
                <path id="Path_2756" data-name="Path 2756" d="M699.778,1290.98l-2.133,1.382q-.813.527-1.654.982a47.712,47.712,0,0,1,6.377,3.565l4.663-1.8a2.666,2.666,0,0,0,1.328-2.036l-.23.781Z" transform="translate(-695.991 -1284.525)" fill="#90bfbf"/>
                <path id="Path_2757" data-name="Path 2757" d="M706.14,1243.426a30.121,30.121,0,0,1,1.544,2.914l1.216,2.634,8.273,2.7a2.612,2.612,0,0,0-.291-1.623l-2.684-4.306q-.263-.423-.532-.836l-6.717-1.312Q706.542,1243.513,706.14,1243.426Z" transform="translate(-704.762 -1243.426)" fill="#90bfbf"/>
              </g>
              <path id="Path_2758" data-name="Path 2758" d="M480.354,1205.351l-.011-.024.031.011Zm21.676,7.241-.009-.019.025.009Zm11.964,3.977-.008-.017.022.008Z" transform="translate(-480.343 -1196.065)" fill="#dff3f7"/>
              <g id="Group_1084" data-name="Group 1084" transform="translate(2.026 35.204)">
                <g id="Group_1083" data-name="Group 1083">
                  <path id="Path_2759" data-name="Path 2759" d="M754.146,1399.581c-.011-.1-.025-.2-.043-.291l-8.417-.137.357.4h.022l-.011.013.012.013h-.022l-.432.512,8.537.276Z" transform="translate(-711.63 -1398.786)" fill="#dff3f7"/>
                  <path id="Path_2760" data-name="Path 2760" d="M495.3,1396.449l-.015.018-.017-.019Zm22.1.486-.012.015-.014-.015Z" transform="translate(-495.266 -1396.448)" fill="#dff3f7"/>
                </g>
              </g>
            </g>
            <g id="Group_1129" data-name="Group 1129" transform="translate(20.595)">
              <g id="Group_1117" data-name="Group 1117" transform="translate(0 47.258)">
                <g id="Group_1116" data-name="Group 1116">
                  <path id="Path_2761" data-name="Path 2761" d="M1217.138,706.695a.686.686,0,1,1-.686-.7A.692.692,0,0,1,1217.138,706.695Z" transform="translate(-1105.481 -703.87)" fill="#333"/>
                  <g id="Group_1115" data-name="Group 1115">
                    <path id="Rectangle_269" data-name="Rectangle 269" d="M0,0H124.72a0,0,0,0,1,0,0V1.1a2.548,2.548,0,0,1-2.548,2.548H3.645A3.645,3.645,0,0,1,0,0V0A0,0,0,0,1,0,0Z" transform="translate(48.611 103.764)" fill="#28314c"/>
                    <path id="Rectangle_270" data-name="Rectangle 270" d="M23.016,0H131.868a23.016,23.016,0,0,1,23.016,23.016v39.8A42.694,42.694,0,0,1,112.19,105.51h-69.5A42.694,42.694,0,0,1,0,62.816v-39.8A23.016,23.016,0,0,1,23.016,0Z" transform="translate(33.529)" fill="#4a5b7d"/>
                    <path id="Path_5337" data-name="Path 5337" d="M3.207,0H91.9a3.207,3.207,0,0,1,3.207,3.207V142.05a3.207,3.207,0,0,1-3.207,3.207H3.207A3.207,3.207,0,0,1,0,142.05V3.207A3.207,3.207,0,0,1,3.207,0Z" transform="translate(183.599 5.199) rotate(90)" fill="#7b8cad"/>
                    <path id="Path_2762" data-name="Path 2762" d="M622.682,1728.4v-.8l-219.409-.328v1.13h0c0,2.572,2.576,4.657,5.754,4.657h207.9c3.178,0,5.754-2.085,5.754-4.657Z" transform="translate(-403.273 -1586.523)" fill="#586d95"/>
                    <g id="Group_1089" data-name="Group 1089" transform="translate(0 106.653)">
                      <path id="Path_2763" data-name="Path 2763" d="M620.326,1511.583h-214.7c-2.36,0-3.055-1.127-1.589-2.483l34.257-31.683a5.063,5.063,0,0,1,3.438-1.352H584.22a5.063,5.063,0,0,1,3.438,1.352l34.257,31.683C623.381,1510.456,622.687,1511.583,620.326,1511.583Z" transform="translate(-403.273 -1476.065)" fill="#4a5b7d"/>
                      <g id="Group_1088" data-name="Group 1088" transform="translate(31.003 3.03)" opacity="0.3">
                        <g id="Group_1086" data-name="Group 1086" transform="translate(9.398)">
                          <path id="Path_2764" data-name="Path 2764" d="M710.648,1500.819h-9.242c-.4,0-.592-.137-.433-.3l1.753-1.845a1.58,1.58,0,0,1,.969-.286h8.934c.384,0,.595.128.468.286l-1.484,1.845A1.452,1.452,0,0,1,710.648,1500.819Z" transform="translate(-700.917 -1498.385)" fill="#fff"/>
                          <path id="Path_2765" data-name="Path 2765" d="M797.464,1500.819h-9.242c-.4,0-.614-.137-.482-.3l1.455-1.845a1.381,1.381,0,0,1,.923-.286h8.934c.384,0,.615.128.514.286l-1.186,1.845A1.26,1.26,0,0,1,797.464,1500.819Z" transform="translate(-775.921 -1498.385)" fill="#fff"/>
                          <path id="Path_2766" data-name="Path 2766" d="M884.261,1500.819h-9.242c-.4,0-.636-.137-.531-.3l1.157-1.845a1.2,1.2,0,0,1,.877-.286h8.934c.384,0,.636.128.56.286l-.888,1.845C885.049,1500.682,884.658,1500.819,884.261,1500.819Z" transform="translate(-850.907 -1498.385)" fill="#fff"/>
                          <path id="Path_2767" data-name="Path 2767" d="M1057.8,1500.819h-9.242c-.4,0-.68-.137-.629-.3l.562-1.845c.048-.158.4-.286.785-.286h8.935c.384,0,.677.128.652.286l-.292,1.845C1058.542,1500.682,1058.2,1500.819,1057.8,1500.819Z" transform="translate(-1000.821 -1498.385)" fill="#fff"/>
                          <path id="Path_2768" data-name="Path 2768" d="M971.04,1500.819H961.8c-.4,0-.658-.137-.58-.3l.859-1.845c.073-.158.447-.286.831-.286h8.934c.384,0,.657.128.606.286l-.59,1.845C971.805,1500.682,971.437,1500.819,971.04,1500.819Z" transform="translate(-925.874 -1498.385)" fill="#fff"/>
                          <path id="Path_2769" data-name="Path 2769" d="M1231.042,1500.819H1221.8c-.4,0-.724-.137-.727-.3l-.034-1.845c0-.158.309-.286.693-.286h8.934c.384,0,.719.128.745.286l.3,1.845C1231.741,1500.682,1231.439,1500.819,1231.042,1500.819Z" transform="translate(-1150.44 -1498.385)" fill="#fff"/>
                          <path id="Path_2770" data-name="Path 2770" d="M1315.843,1500.819H1306.6c-.4,0-.746-.137-.776-.3l-.331-1.845c-.028-.158.262-.286.646-.286h8.934c.384,0,.74.128.791.286l.6,1.845C1316.521,1500.682,1316.24,1500.819,1315.843,1500.819Z" transform="translate(-1223.429 -1498.385)" fill="#fff"/>
                          <path id="Path_2771" data-name="Path 2771" d="M1400.625,1500.819h-9.242c-.4,0-.768-.137-.825-.3l-.629-1.845c-.054-.158.216-.286.6-.286h8.934c.384,0,.76.128.837.286l.9,1.845C1401.28,1500.682,1401.022,1500.819,1400.625,1500.819Z" transform="translate(-1296.399 -1498.385)" fill="#fff"/>
                          <path id="Path_2772" data-name="Path 2772" d="M1485.389,1500.819h-9.242a1.108,1.108,0,0,1-.874-.3l-.927-1.845c-.079-.158.17-.286.554-.286h8.935a1.223,1.223,0,0,1,.883.286l1.2,1.845C1486.022,1500.682,1485.786,1500.819,1485.389,1500.819Z" transform="translate(-1369.351 -1498.385)" fill="#fff"/>
                          <path id="Path_2773" data-name="Path 2773" d="M1580.676,1500.819h-19.065a1.8,1.8,0,0,1-1.3-.425l-1.066-1.606c-.147-.222.174-.4.713-.4h18.431a2.225,2.225,0,0,1,1.363.4l1.529,1.606C1581.507,1500.627,1581.234,1500.819,1580.676,1500.819Z" transform="translate(-1442.711 -1498.385)" fill="#fff"/>
                          <path id="Path_2774" data-name="Path 2774" d="M1144.538,1500.819H1135.3c-.4,0-.7-.137-.678-.3l.264-1.845c.022-.158.355-.286.738-.286h8.934c.384,0,.7.128.7.286l.005,1.845C1145.259,1500.682,1144.935,1500.819,1144.538,1500.819Z" transform="translate(-1075.748 -1498.385)" fill="#fff"/>
                        </g>
                        <g id="Group_1087" data-name="Group 1087" transform="translate(6.67 2.795)">
                          <path id="Path_2775" data-name="Path 2775" d="M1652.43,1521.613h9.62c.413,0,.61-.148.438-.329l-1.9-2a1.652,1.652,0,0,0-1.019-.309h-9.288c-.4,0-.613.139-.476.309l1.609,2A1.517,1.517,0,0,0,1652.43,1521.613Z" transform="translate(-1518.243 -1518.979)" fill="#fff"/>
                          <path id="Path_2776" data-name="Path 2776" d="M1564.33,1521.613h9.62c.413,0,.634-.148.491-.329l-1.578-2a1.44,1.44,0,0,0-.969-.309h-9.287c-.4,0-.636.139-.526.309l1.287,2A1.311,1.311,0,0,0,1564.33,1521.613Z" transform="translate(-1442.438 -1518.979)" fill="#fff"/>
                          <path id="Path_2777" data-name="Path 2777" d="M1476.21,1521.613h9.62c.413,0,.658-.148.544-.329l-1.256-2a1.248,1.248,0,0,0-.92-.309h-9.287c-.4,0-.658.139-.576.309l.965,2A1.129,1.129,0,0,0,1476.21,1521.613Z" transform="translate(-1366.613 -1518.979)" fill="#fff"/>
                          <path id="Path_2778" data-name="Path 2778" d="M1299.908,1521.613h9.62c.413,0,.706-.148.65-.329l-.612-2c-.052-.17-.421-.309-.82-.309h-9.287c-.4,0-.7.139-.676.309l.32,2C1299.133,1521.464,1299.5,1521.613,1299.908,1521.613Z" transform="translate(-1214.903 -1518.979)" fill="#fff"/>
                          <path id="Path_2779" data-name="Path 2779" d="M1388.07,1521.613h9.62c.413,0,.682-.148.6-.329l-.934-2c-.08-.17-.471-.309-.87-.309H1387.2c-.4,0-.68.139-.626.309l.642,2C1387.271,1521.464,1387.657,1521.613,1388.07,1521.613Z" transform="translate(-1290.769 -1518.979)" fill="#fff"/>
                          <path id="Path_2780" data-name="Path 2780" d="M1121.456,1521.613h9.62c.413,0,.754-.148.756-.329l.033-2c0-.17-.321-.309-.72-.309h-9.288c-.4,0-.748.139-.775.309l-.324,2C1120.729,1521.464,1121.043,1521.613,1121.456,1521.613Z" transform="translate(-1061.041 -1518.979)" fill="#fff"/>
                          <path id="Path_2781" data-name="Path 2781" d="M1031.175,1521.613h9.62c.413,0,.777-.148.81-.329l.355-2c.03-.17-.272-.309-.67-.309H1032c-.4,0-.77.139-.825.309l-.646,2C1030.472,1521.464,1030.762,1521.613,1031.175,1521.613Z" transform="translate(-983.056 -1518.979)" fill="#fff"/>
                          <path id="Path_2782" data-name="Path 2782" d="M940.872,1521.613h9.62c.413,0,.8-.148.863-.329l.677-2c.058-.17-.222-.309-.621-.309h-9.287c-.4,0-.792.139-.875.309l-.969,2C940.192,1521.464,940.458,1521.613,940.872,1521.613Z" transform="translate(-905.048 -1518.979)" fill="#fff"/>
                          <path id="Path_2783" data-name="Path 2783" d="M850.546,1521.613h9.62a1.147,1.147,0,0,0,.916-.329l1-2c.085-.17-.172-.309-.571-.309h-9.287a1.268,1.268,0,0,0-.925.309l-1.291,2C849.891,1521.464,850.133,1521.613,850.546,1521.613Z" transform="translate(-827.017 -1518.979)" fill="#fff"/>
                          <path id="Path_2784" data-name="Path 2784" d="M681.525,1521.613H701.37a1.874,1.874,0,0,0,1.361-.461l1.151-1.738c.159-.24-.171-.435-.731-.435H683.991a2.317,2.317,0,0,0-1.432.435l-1.652,1.738C680.667,1521.4,680.944,1521.613,681.525,1521.613Z" transform="translate(-680.821 -1518.979)" fill="#fff"/>
                          <path id="Path_2785" data-name="Path 2785" d="M1211.714,1521.613h9.62c.413,0,.73-.148.7-.329l-.29-2c-.025-.17-.371-.309-.77-.309h-9.287c-.4,0-.725.139-.726.309l0,2C1210.963,1521.464,1211.3,1521.613,1211.714,1521.613Z" transform="translate(-1139.004 -1518.979)" fill="#fff"/>
                        </g>
                        <path id="Path_2786" data-name="Path 2786" d="M1581.352,1546.779h22.322c.576,0,.843-.215.594-.477l-1.44-1.512a2.327,2.327,0,0,0-1.447-.453h-21.636c-.558,0-.884.2-.723.453l.975,1.512A1.831,1.831,0,0,0,1581.352,1546.779Z" transform="translate(-1450.397 -1538.099)" fill="#fff"/>
                        <path id="Path_2787" data-name="Path 2787" d="M1487.19,1544.127h10.031c.431,0,.682-.161.558-.357l-1.364-2.167a1.3,1.3,0,0,0-.966-.335h-9.67c-.415,0-.682.151-.593.335l1.047,2.167A1.174,1.174,0,0,0,1487.19,1544.127Z" transform="translate(-1369.32 -1535.447)" fill="#fff"/>
                        <path id="Path_2788" data-name="Path 2788" d="M1670.711,1544.127h10.031c.431,0,.63-.161.443-.357l-2.063-2.167a1.731,1.731,0,0,0-1.074-.335h-9.67c-.415,0-.634.151-.485.335l1.747,2.167A1.586,1.586,0,0,0,1670.711,1544.127Z" transform="translate(-1527.201 -1535.447)" fill="#fff"/>
                        <path id="Path_2789" data-name="Path 2789" d="M1303.579,1544.127h10.031c.431,0,.734-.161.674-.357l-.664-2.167c-.057-.184-.442-.335-.858-.335h-9.67c-.415,0-.731.151-.7.335l.348,2.167C1302.77,1543.966,1303.148,1544.127,1303.579,1544.127Z" transform="translate(-1211.349 -1535.447)" fill="#fff"/>
                        <path id="Path_2790" data-name="Path 2790" d="M1395.4,1544.127h10.031c.431,0,.708-.161.616-.357l-1.014-2.167c-.086-.184-.5-.335-.912-.335h-9.669c-.416,0-.707.151-.647.335l.7,2.167C1394.561,1543.966,1394.965,1544.127,1395.4,1544.127Z" transform="translate(-1290.346 -1535.447)" fill="#fff"/>
                        <path id="Path_2791" data-name="Path 2791" d="M1499.12,1568.584H1509.6c.45,0,.708-.176.573-.39l-1.486-2.361a1.355,1.355,0,0,0-1.017-.364h-10.084c-.433,0-.708.163-.611.364l1.141,2.361A1.226,1.226,0,0,0,1499.12,1568.584Z" transform="translate(-1379.505 -1556.363)" fill="#fff"/>
                        <path id="Path_2792" data-name="Path 2792" d="M1690.573,1568.584h10.478c.45,0,.651-.176.447-.39l-2.248-2.361a1.814,1.814,0,0,0-1.134-.364h-10.084c-.433,0-.656.163-.494.364l1.9,2.361A1.666,1.666,0,0,0,1690.573,1568.584Z" transform="translate(-1544.174 -1556.363)" fill="#fff"/>
                        <path id="Path_2793" data-name="Path 2793" d="M1592.952,1566.771h10.8c.288,0,.436-.11.33-.244l-.649-.82a1.029,1.029,0,0,0-.7-.238H1592.1c-.283,0-.446.107-.361.238l.529.82A.916.916,0,0,0,1592.952,1566.771Z" transform="translate(-1461.408 -1556.363)" fill="#fff"/>
                        <path id="Path_2794" data-name="Path 2794" d="M1601.367,1579.754h11.044c.294,0,.444-.115.333-.255l-.678-.857a1.054,1.054,0,0,0-.722-.248h-10.863c-.289,0-.454.112-.366.248l.552.857A.937.937,0,0,0,1601.367,1579.754Z" transform="translate(-1468.643 -1567.534)" fill="#fff"/>
                        <path id="Path_2795" data-name="Path 2795" d="M1403.357,1568.584h10.478c.45,0,.736-.176.636-.39l-1.1-2.361a1.16,1.16,0,0,0-.958-.364h-10.084c-.433,0-.735.163-.67.364l.76,2.361C1402.482,1568.408,1402.907,1568.584,1403.357,1568.584Z" transform="translate(-1297.132 -1556.363)" fill="#fff"/>
                        <path id="Path_2796" data-name="Path 2796" d="M1117.628,1544.127h10.031c.431,0,.786-.161.789-.357l.035-2.167c0-.184-.334-.335-.75-.335h-9.669c-.415,0-.78.151-.81.335l-.352,2.167C1116.871,1543.966,1117.2,1544.127,1117.628,1544.127Z" transform="translate(-1051.038 -1535.447)" fill="#fff"/>
                        <path id="Path_2797" data-name="Path 2797" d="M1023.506,1544.127h10.031c.431,0,.812-.161.847-.357l.385-2.167c.033-.184-.28-.335-.7-.335h-9.67c-.415,0-.8.151-.864.335l-.7,2.167C1022.775,1543.966,1023.076,1544.127,1023.506,1544.127Z" transform="translate(-969.737 -1535.447)" fill="#fff"/>
                        <path id="Path_2798" data-name="Path 2798" d="M929.76,1568.584h60.477c1.036,0,1.76-.4,1.611-.892l-.423-1.379c-.143-.466-1.075-.844-2.072-.844H931.147a2.67,2.67,0,0,0-2.208.844l-.645,1.379C928.065,1568.18,928.724,1568.584,929.76,1568.584Z" transform="translate(-887.993 -1556.363)" fill="#fff"/>
                        <path id="Path_2799" data-name="Path 2799" d="M929.359,1544.127h10.031c.431,0,.838-.161.9-.357l.735-2.167c.063-.184-.226-.335-.641-.335h-9.67a1.135,1.135,0,0,0-.918.335l-1.051,2.167C928.654,1543.966,928.928,1544.127,929.359,1544.127Z" transform="translate(-888.409 -1535.447)" fill="#fff"/>
                        <path id="Path_2800" data-name="Path 2800" d="M835.186,1544.127h10.031a1.194,1.194,0,0,0,.962-.357l1.085-2.167c.092-.184-.172-.335-.587-.335h-9.67a1.321,1.321,0,0,0-.972.335l-1.4,2.167C834.507,1543.966,834.755,1544.127,835.186,1544.127Z" transform="translate(-807.057 -1535.447)" fill="#fff"/>
                        <path id="Path_2801" data-name="Path 2801" d="M829,1568.584h10.478a1.226,1.226,0,0,0,1.006-.39l1.141-2.361c.1-.2-.178-.364-.611-.364H830.93a1.355,1.355,0,0,0-1.017.364l-1.485,2.361C828.293,1568.408,828.55,1568.584,829,1568.584Z" transform="translate(-801.691 -1556.363)" fill="#fff"/>
                        <path id="Path_2802" data-name="Path 2802" d="M730.615,1568.584h10.478a1.433,1.433,0,0,0,1.069-.39l1.522-2.361c.129-.2-.12-.364-.553-.364H733.047a1.572,1.572,0,0,0-1.076.364l-1.867,2.361C729.936,1568.408,730.165,1568.584,730.615,1568.584Z" transform="translate(-716.697 -1556.363)" fill="#fff"/>
                        <path id="Path_2803" data-name="Path 2803" d="M632.2,1568.584h10.478a1.666,1.666,0,0,0,1.132-.39l1.9-2.361c.162-.2-.061-.364-.494-.364H635.139a1.814,1.814,0,0,0-1.134.364l-2.248,2.361C631.554,1568.408,631.755,1568.584,632.2,1568.584Z" transform="translate(-631.678 -1556.363)" fill="#fff"/>
                        <path id="Path_2804" data-name="Path 2804" d="M658.985,1544.127h20.692a1.957,1.957,0,0,0,1.432-.5l1.249-1.887c.172-.26-.165-.471-.749-.471H661.662a2.425,2.425,0,0,0-1.509.471l-1.793,1.887C658.1,1543.9,658.379,1544.127,658.985,1544.127Z" transform="translate(-654.654 -1535.447)" fill="#fff"/>
                        <path id="Path_2805" data-name="Path 2805" d="M1211.723,1544.127h10.031c.431,0,.76-.161.731-.357l-.314-2.167c-.027-.184-.388-.335-.8-.335h-9.67c-.415,0-.755.151-.755.335l0,2.167C1210.94,1543.966,1211.292,1544.127,1211.723,1544.127Z" transform="translate(-1132.313 -1535.447)" fill="#fff"/>
                      </g>
                      <path id="Path_2806" data-name="Path 2806" d="M925.942,1620.42H838.1c-3.2,0-5.035-1.49-4.107-3.252l4.776-9.067c.737-1.4,3.554-2.511,6.281-2.511h74.83c2.727,0,5.477,1.112,6.13,2.511l4.232,9.067C931.066,1618.93,929.143,1620.42,925.942,1620.42Z" transform="translate(-775.323 -1588.01)" fill="#fff" opacity="0.3"/>
                    </g>
                    <path id="Path_2807" data-name="Path 2807" d="M746.669,860.224H868.377a4.155,4.155,0,0,0,4.056-4.248V782.955a4.155,4.155,0,0,0-4.056-4.248H746.669a4.155,4.155,0,0,0-4.056,4.248v73.021A4.155,4.155,0,0,0,746.669,860.224Z" transform="translate(-696.552 -766.711)" fill="#407bff" opacity="0.9"/>
                  </g>
                </g>
              </g>
              <g id="Group_1128" data-name="Group 1128" transform="translate(113.576)">
                <g id="Group_1119" data-name="Group 1119" transform="translate(0)">
                  <path id="Path_2976" data-name="Path 2976" d="M1251.8,351.769a2.868,2.868,0,0,0,1.323-1.2c2.816-5.663,9.814-8.646,12.645-6.026a4.21,4.21,0,0,0-3.165-1.431,6.682,6.682,0,0,0-3.663.817,12.868,12.868,0,0,0-2.994,2.146,18.674,18.674,0,0,0-1.827,2.12,11.708,11.708,0,0,1-1.5,1.716,4.429,4.429,0,0,1-2.059,1.022,4.66,4.66,0,0,1-2.356-.12,6.235,6.235,0,0,0-3.229-.082,6.594,6.594,0,0,0-4.045,2.813,4.417,4.417,0,0,0-.918,2.431,4.4,4.4,0,0,1,.793-2.5,6.722,6.722,0,0,1,4.132-2.872,6.445,6.445,0,0,1,3.3.084,4.528,4.528,0,0,0,2.286.118c1.686-.359,2.479-1.387,3.483-2.689a13.866,13.866,0,0,1,4.863-4.3,8.623,8.623,0,0,1,1.822-.754,5.677,5.677,0,0,1,1.8-.157,4.588,4.588,0,0,1,4.617,3.943,2.858,2.858,0,0,0-.132-.742,5.8,5.8,0,0,0-1.959-2.7c-2.236-1.74-5.615-1.22-8.033,1.235,2.507-2.545,5.85-3.285,8.182-1.471a5.919,5.919,0,0,1,1.923,2.727,3.6,3.6,0,0,1,.112,1.6c0,.045.006.088.009.132a2.011,2.011,0,0,1,1.385.276,2.727,2.727,0,0,1,.837.566c1.328,1.182,1.448,4.46,1.274,6.374.168-1.846.019-5.079-1.255-6.212-.108-.1-.212-.183-.313-.261,2.178,2.465,1.555,10.1-2.178,11.518-6.709,3.7-15.147,9.1-18.052,8.307-5.926-.335-9.807-7.35-7.59-12.513C1244.7,349.779,1249.825,353.14,1251.8,351.769Zm15.183-4.094c.025-.006.05-.01.075-.015-.033-.224-.078-.474-.142-.739A6.541,6.541,0,0,1,1266.987,347.674Z" transform="translate(-1240.012 -342.165)" fill="#5b2f32"/>
                  <g id="Group_1118" data-name="Group 1118" transform="translate(19.288 5.314)">
                    <path id="Path_2977" data-name="Path 2977" d="M1383.094,453.62a2.95,2.95,0,0,0,2.093-2.852c1.128.2,2.828,1.14,3.955,1.358-.548.642-.958.882.521,3.377,0,0-.082.463-.323.494-1.338.173-1.571-1.161-2.918-1.26a20.148,20.148,0,0,1-2.71-.536,15.408,15.408,0,0,1-1.6-.488A8.579,8.579,0,0,0,1383.094,453.62Z" transform="translate(-1382.108 -441.34)" fill="#f0b394"/>
                    <path id="Path_2978" data-name="Path 2978" d="M1397.085,383.215c1.25-2.207,2.3-1.271,4.28-1.9a4.527,4.527,0,0,1,2.521,3.743,15.193,15.193,0,0,0-.127,1.539c0,.195.225.652.145.982-.486,2-2.376,4.871-3.1,4.944a5.315,5.315,0,0,1-2.865-1.008,2.574,2.574,0,0,1-1.025-1.047A7.516,7.516,0,0,1,1397.085,383.215Z" transform="translate(-1394.172 -381.312)" fill="#f8b999"/>
                  </g>
                  <path id="Path_2979" data-name="Path 2979" d="M1388.564,376.984c-.009.024-.044.028,0,0,2.586,1.015,2.8,5.326,1.584,7.4.925-2.237-1.043-4.2-1.443-6.533a5.824,5.824,0,0,0,1.271,3.428,4.117,4.117,0,0,1-1.68-3.55,5.6,5.6,0,0,1-4.635,3.378c2.182-.654,3.09-2.251,4.1-3.724-2.99,3.75-4.637,2.722-4.537,5.545a6.479,6.479,0,0,0,.214,1.411c.213.813.575,2.261.358,2.21C1375.75,384.663,1384.863,372.655,1388.564,376.984Z" transform="translate(-1361.494 -371.45)" fill="#5b2f32"/>
                </g>
                <g id="Group_1122" data-name="Group 1122" transform="translate(15.381 35.019)">
                  <g id="Group_1121" data-name="Group 1121" transform="translate(0 0.208)">
                    <path id="Path_2980" data-name="Path 2980" d="M1624.254,760.146l2.915-2.265h0a5.923,5.923,0,0,0,1.7,1.571l3.79,2.3a15.8,15.8,0,0,0,2.256,1.105l1.086.426-1.384,1.313-9.478-2.726Z" transform="translate(-1587.479 -736.681)" fill="#f8b999"/>
                    <path id="Path_2981" data-name="Path 2981" d="M1626.328,778.943l.6,2.22a2.347,2.347,0,0,0,1.881,1.752l1.428.215a15.067,15.067,0,0,1,4.358,1.359l1.026.5a3.314,3.314,0,0,0,3.717-.567h0a2.1,2.1,0,0,0,.357-2.194.53.53,0,0,0-.287-.224l-1.767-.579a1.953,1.953,0,0,1-2.242.589Z" transform="translate(-1589.271 -754.884)" fill="#fd7b43"/>
                    <g id="Group_1120" data-name="Group 1120">
                      <path id="Path_2982" data-name="Path 2982" d="M1362.686,605.163c3.14,2.685,8.73,1.856,12.405,3.433a25.839,25.839,0,0,1,6.948,4.024c3.778,2.946,7.8,7.334,11.454,10.685-.794,1.13-2.176,1.676-3.035,2.742-2.285-1.333-4.707-3.078-6.848-4.372a23.047,23.047,0,0,1-4.691-3.872h0a8.672,8.672,0,0,0-5.443-2.818c-3.439-.487-7.931.049-11.392-.025-3.2-.068-5.768-.917-7.643-3.246a6.78,6.78,0,0,1-.613-6.358c1.293-3.39,2.24-2.215,4.15-3.662.147.154.272.392.4.529C1359.793,603.686,1360.74,603.5,1362.686,605.163Z" transform="translate(-1353.324 -601.694)" fill="#23314d"/>
                    </g>
                  </g>
                  <path id="Path_2983" data-name="Path 2983" d="M1591.215,796.511a24.609,24.609,0,0,0,1.771,1.918l3.221,2.712,2.7,2.4-.17,1.073-1.422.758-8.168-4.781-.809-1.708Z" transform="translate(-1556.438 -769.859)" fill="#f8b999"/>
                  <path id="Path_2984" data-name="Path 2984" d="M1395.076,600.159l9.773,4.989a5.841,5.841,0,0,1,2.336,2.216l11.334,19.581-2.947,2.43-7.184-8.869a18.93,18.93,0,0,1-2.171-3.2l-1.592-2.949c-.729-1.351-1.451-3.475-2.613-4.357l-10.382-6.721-.864-.487a6.068,6.068,0,0,1-2.091-1.985l-.332-.509Z" transform="translate(-1383.591 -600.159)" fill="#323e5f"/>
                  <path id="Path_2985" data-name="Path 2985" d="M1590.125,818.126l.307,2.52a1.306,1.306,0,0,0,.828,1.084h0a15.336,15.336,0,0,1,6.186,4.208l.056.063a2.833,2.833,0,0,0,2.2.962h0a2.083,2.083,0,0,0,1.939-1.814h0a3.008,3.008,0,0,0-.381-1.9,2.3,2.3,0,0,0-.365-.538l-.306-.336a3.766,3.766,0,0,0-.287-.284l-.477-.424a1.16,1.16,0,0,1,.008,1.347c-.372.435-1.039.609-2.195-.055Z" transform="translate(-1557.983 -788.54)" fill="#fd7b43"/>
                </g>
                <g id="Group_1127" data-name="Group 1127" transform="translate(15.453 17.282)">
                  <g id="Group_1126" data-name="Group 1126">
                    <g id="Group_1125" data-name="Group 1125">
                      <g id="Group_1124" data-name="Group 1124">
                        <path id="Path_2986" data-name="Path 2986" d="M1425.942,508.912l7.179,5.786,1.384-1.266-6-5.815a5.125,5.125,0,0,1-1.583-2.039c-.06-.231-.124-.461-.2-.686l-1.089-4.12-2.872.776,2.054,5.494A7.032,7.032,0,0,0,1425.942,508.912Z" transform="translate(-1413.407 -496.525)" fill="#fd7b43"/>
                        <path id="Path_2987" data-name="Path 2987" d="M1364.069,469.53c1.2.232,2.173,1.107,5,1.2.563.018.691.012,1.259-.641h0l1.952,3.759a7.708,7.708,0,0,1,.645,1.673c.444,1.772-.639,3.8-1.8,6.911-.327.877.526,4.508,1.083,5.472-4.084,1.485-12.152,2.865-12.01,2.56a18.165,18.165,0,0,0,1.319-8.589c-.379-2.5-.422-4.7-.45-4.878l.139-6.753A4.458,4.458,0,0,1,1364.069,469.53Z" transform="translate(-1359.334 -469.489)" fill="#fd7b43"/>
                        <g id="Group_1123" data-name="Group 1123" transform="translate(6.604 8.832)">
                          <path id="Path_2988" data-name="Path 2988" d="M1421.408,593.185l-10.5,4.656a4.1,4.1,0,0,1-3.193-.008l-4.757-2.6c-.722-.394-.548-1.032.375-1.427l10.046-4.3a4.278,4.278,0,0,1,3-.053l5.141,2.3C1422.374,592.134,1422.329,592.777,1421.408,593.185Z" transform="translate(-1402.51 -581.789)" fill="#fbede7"/>
                          <path id="Path_2989" data-name="Path 2989" d="M1452.813,546.01l-11.246,5.2a2.088,2.088,0,0,1-2.865-1.156l.9-8.219c.158-1.892.166-2.449,1.339-2.86l11.666-4.091c.938-.329,1.965-.878,1.917,1.131l-.781,7.405C1453.546,544.628,1453.606,545.536,1452.813,546.01Z" transform="translate(-1433.789 -534.556)" fill="#fff"/>
                          <path id="Path_2990" data-name="Path 2990" d="M1501.8,586.85c-.1.692-.6,1.2-1.139,1.125a1.166,1.166,0,0,1-.809-1.408c.1-.706.618-1.208,1.158-1.123A1.174,1.174,0,0,1,1501.8,586.85Z" transform="translate(-1486.625 -578.529)" fill="#fbede7"/>
                        </g>
                        <path id="Path_2991" data-name="Path 2991" d="M1427.573,627.443a.9.9,0,0,0,.69.212c.329-.039.7-.1.751-.109.436-.081.908-.073,1.169-.143l.608-.177c.511.012.142.523.142.523l-.62.476c-.69.32.065,1.007.227,1.066l1.451.641c.288.1,2.216-.467,2.257-.155,0,0-2.773,1.5-2.936,1.476l-1.635.478a4.653,4.653,0,0,1-1.294-.785l-1.851-1.913A12.983,12.983,0,0,0,1427.573,627.443Z" transform="translate(-1416.669 -605.815)" fill="#f8b999"/>
                        <path id="Path_2992" data-name="Path 2992" d="M1357.271,470.246l.181,4.3a15.141,15.141,0,0,1,.156,2.576l-.144,5.792a5.6,5.6,0,0,0,1.69,2.924l5.847,5.85a13.741,13.741,0,0,1-1.281,1.879l-7.323-5.83a12.815,12.815,0,0,1-1.225-1.334q-.177-.219-.332-.453a6.111,6.111,0,0,1-.979-3.469l.336-6.809a17.809,17.809,0,0,1,.158-2.2C1354.724,470.8,1356.6,470.133,1357.271,470.246Z" transform="translate(-1353.86 -470.133)" fill="#fd7b43"/>
                      </g>
                    </g>
                  </g>
                </g>
              </g>
            </g>
          </g>
          <g id="Group_1155" data-name="Group 1155" transform="translate(53.17 97.026)">
            <g id="Group_1154" data-name="Group 1154">
              <g id="Group_1152" data-name="Group 1152">
                <g id="Group_1137" data-name="Group 1137" transform="translate(4.962)">
                  <g id="Group_1132" data-name="Group 1132" transform="translate(7.936 7.27)">
                    <g id="Group_1131" data-name="Group 1131">
                      <path id="Path_2993" data-name="Path 2993" d="M723.545,1104.887a17.521,17.521,0,0,1-4.368.492,24.249,24.249,0,0,1-2.965-.432c-.606-.1-.985-.493-.668-.577,2.031-.045.97-4.813,1.068-5.036,1.234.151,3.863,2.781,5.1,2.943.045.079,0,.257-.076.456a.979.979,0,0,0,.443,1.187,8.482,8.482,0,0,0,2.279.961c.018,0-.026.106-.005.111C724.044,1105.085,723.862,1104.819,723.545,1104.887Z" transform="translate(-715.43 -1091.073)" fill="#e6ac8e"/>
                      <path id="Path_2994" data-name="Path 2994" d="M719.4,1040.566c.929-2.274,3.135-1.306,4.658-2.1a4.275,4.275,0,0,1,2.922,3.8c-.026.556-.094.85-.081,1.494,0,.2.4,1.326.285,1.683-1.508,4.579-2.974,5.024-2.992,5.031-.968.429-3.159-.63-3.994-1.548C717.152,1045.581,718.394,1043.023,719.4,1040.566Z" transform="translate(-717.888 -1038.469)" fill="#f8b999"/>
                    </g>
                  </g>
                  <g id="Group_1136" data-name="Group 1136">
                    <path id="Path_2995" data-name="Path 2995" d="M660.928,1000a2.751,2.751,0,0,1,1.9-2.98c-1.067-.886-2.8-1.483-2.374-4.23.881-2.177,1.962-2.034,3.326-2.337-.036-.292-.512-.49-.559-1.574a4.26,4.26,0,0,1,4.377-3.961c1.842.071,3.51,1.446,3.229,4.636-.029.327-1.915,1.7-3.056.643-1.261-1.166-.9.286-2.681.64-.361.072,1.039,1.044,1.073,2.8a5.2,5.2,0,0,1-1.826,3.1,3.891,3.891,0,0,1,1.839,2.234,4.708,4.708,0,0,1-1.305,4.451c-.1.073.284.357-.765.226A4.09,4.09,0,0,1,660.928,1000Z" transform="translate(-659.921 -984.91)" fill="#5b2f32"/>
                    <path id="Path_2996" data-name="Path 2996" d="M706.023,1033.193c-.679-7.74,6.058-6.268,7.142-6.168a4.863,4.863,0,0,1,3.331,2.135,1.712,1.712,0,0,1-.123,2.031,1.41,1.41,0,0,1-1.138.223,15.147,15.147,0,0,1-1.967-.771,1.525,1.525,0,0,0-1.262.191,7.806,7.806,0,0,0-1.347,1.071c-.521.505-.34,1.994-1.426,1.9-.285-.026-.516-.117-.762.1a.756.756,0,0,0-.233.474,2.257,2.257,0,0,0,.234,1.087c.131.348.386.783.255,1.159-.111.318-.153.5-.492.451C706.691,1036.869,706.138,1034.5,706.023,1033.193Z" transform="translate(-699.323 -1021.158)" fill="#5b2f32"/>
                    <path id="Path_2997" data-name="Path 2997" d="M715.713,1020.129l.485.842.5-.282a4.346,4.346,0,0,1,2.371-.55h0l-.234-.964a.242.242,0,0,0-.222-.185l-.152-.008a4.347,4.347,0,0,0-1.792.278,2.418,2.418,0,0,0-.553.306l-.338.245A.242.242,0,0,0,715.713,1020.129Z" transform="translate(-707.711 -1014.352)" fill="#ffeacd"/>
                    <path id="Path_2998" data-name="Path 2998" d="M661.643,1120.385c.466-.123,1.191.6,1.474,1.366a3.313,3.313,0,0,1-1.2,3.645c-.054.035-.611.307-1.726.85-.621.3-.866.42-.935.671-.164.6.862,1.217.725,1.435-.116.184-1.005-.01-1.682-.529a3.566,3.566,0,0,1-1.329-2.79,3.363,3.363,0,0,1,1.6-3.032c.895-.393,1.625.133,2.294-.467C661.375,1121.075,661.259,1120.486,661.643,1120.385Z" transform="translate(-656.966 -1101.984)" fill="#5b2f32"/>
                    <g id="Group_1133" data-name="Group 1133" transform="translate(3.54 5.226)">
                      <path id="Path_2999" data-name="Path 2999" d="M683.581,1023.413l1.818.639a.075.075,0,0,1,.047.091l-.008.032a.081.081,0,0,1-.105.056l-1.81-.672a.076.076,0,0,1-.039-.109h0A.08.08,0,0,1,683.581,1023.413Z" transform="translate(-683.416 -1023.409)" fill="#ffeacd"/>
                      <path id="Path_3000" data-name="Path 3000" d="M684.978,1025.149l-1.811-.657a.08.08,0,0,0-.1.039l-.016.03a.076.076,0,0,0,.041.108l1.827.627a.081.081,0,0,0,.1-.058h0A.076.076,0,0,0,684.978,1025.149Z" transform="translate(-683.044 -1024.341)" fill="#ffeacd"/>
                    </g>
                    <g id="Group_1134" data-name="Group 1134" transform="translate(2.701 11.67)">
                      <path id="Path_3001" data-name="Path 3001" d="M676.923,1071.16l1.659-.272a.067.067,0,0,1,.075.05l.007.029a.071.071,0,0,1-.056.088l-1.667.243a.067.067,0,0,1-.076-.068h0A.07.07,0,0,1,676.923,1071.16Z" transform="translate(-676.866 -1070.887)" fill="#ffeacd"/>
                      <path id="Path_3002" data-name="Path 3002" d="M678.8,1071.973l-1.661.256a.07.07,0,0,0-.058.071v.03a.067.067,0,0,0,.077.066l1.661-.285a.071.071,0,0,0,.055-.088h0A.066.066,0,0,0,678.8,1071.973Z" transform="translate(-677.054 -1071.825)" fill="#ffeacd"/>
                    </g>
                    <g id="Group_1135" data-name="Group 1135" transform="translate(4.215 18.362)">
                      <path id="Path_3003" data-name="Path 3003" d="M688.042,1120.518l.866-.327a.04.04,0,0,1,.048.02l.008.015a.038.038,0,0,1-.018.054l-.874.312a.041.041,0,0,1-.051-.029h0A.037.037,0,0,1,688.042,1120.518Z" transform="translate(-688.019 -1120.188)" fill="#ffeacd"/>
                      <path id="Path_3004" data-name="Path 3004" d="M689.171,1120.766l-.87.319a.037.037,0,0,0-.021.045l0,.016a.04.04,0,0,0,.052.028l.865-.335a.038.038,0,0,0,.017-.054h0A.04.04,0,0,0,689.171,1120.766Z" transform="translate(-688.243 -1120.685)" fill="#ffeacd"/>
                    </g>
                  </g>
                </g>
                <g id="Group_1151" data-name="Group 1151" transform="translate(0 20.311)">
                  <g id="Group_1150" data-name="Group 1150">
                    <path id="Path_3005" data-name="Path 3005" d="M943.79,1175.2h2.418a2.913,2.913,0,0,0,1.863-.659l1.384-1.155c.026-.021.009-.066-.029-.116a.49.49,0,0,0-.617-.11,8.765,8.765,0,0,1-1.606.7,2.926,2.926,0,0,1-1.763-.033l-.889-.3c-.016-.006-.1-.03-.186-.058a.264.264,0,0,1-.184-.34l.706-1.179c-.02-.727-2.181,1.065-2.181,1.065a4.958,4.958,0,0,0-.642.846l.929,1.437a.114.114,0,0,0,.113.039l.659-.136Z" transform="translate(-898.403 -1166.722)" fill="#f8b999"/>
                    <g id="Group_1149" data-name="Group 1149">
                      <g id="Group_1148" data-name="Group 1148">
                        <g id="Group_1142" data-name="Group 1142" transform="translate(13.709 23.434)">
                          <g id="Group_1140" data-name="Group 1140">
                            <g id="Group_1139" data-name="Group 1139" clip-path="url(#clip-path)">
                              <g id="Group_1138" data-name="Group 1138">
                                <path id="Path_3006" data-name="Path 3006" d="M727.309,1307.187c-1.965.617-3.922,1.158-5.9,1.6,1.058,7.246,2.72,15.257,6.28,21.852.993,1.84.832,6.28.761,9.937-.06,3.064,2.22,9.42,3.619,13.036.247.638-.3,2.934-.4,3.671,1.27,1.738,6.066,4.9,7.729,5.468a50.087,50.087,0,0,0-2-4.739c-.291-.445-2.4-4.742-2.4-4.762-1.559-8.105-.827-18.76-1.1-20.822-.557-4.277-1.4-8.056-1.722-11.538C731.668,1315.36,728.9,1312.1,727.309,1307.187Z" transform="translate(-721.404 -1307.187)" fill="#f8b999"/>
                              </g>
                              <path id="Path_3007" data-name="Path 3007" d="M714.866,1292.324c5.588,12.143,6.471,17.219,5.908,19.406a7.612,7.612,0,0,0-.492,3.842,71.559,71.559,0,0,1,.886,11.92c-.533,6.448,3.428,11.448,2.471,14.081-.335.923-3.771.015-5.523-2.851-1.69-2.763-5.511-9.771-6.3-21.771A67,67,0,0,1,714.866,1292.324Z" transform="translate(-712.994 -1294.341)" fill="#edab8a" opacity="0.4"/>
                            </g>
                          </g>
                          <g id="Group_1141" data-name="Group 1141" transform="translate(9.655 47.232)">
                            <path id="Path_3008" data-name="Path 3008" d="M793.524,1655.156c-1.152,1.805-1.242,3.562-.563,4.2.326.305.681.181,1.235.262,2.265.335,2.1,3.87,4.608,5.055.775.366,2.357.316,4.9.044.2-.021,1.516-.349-.464-1.169l-2.718-1.217-.394.1a1.239,1.239,0,0,1-1.281-.461Z" transform="translate(-792.534 -1655.156)" fill="#23314d"/>
                            <path id="Path_3009" data-name="Path 3009" d="M794.489,1683.609l.936,6.01.3-.014-.3-4.033a3.373,3.373,0,0,1-.005-.473.848.848,0,0,1,.51-.865l.249-.162Z" transform="translate(-794.224 -1679.747)" fill="#23314d"/>
                          </g>
                        </g>
                        <g id="Group_1144" data-name="Group 1144" transform="translate(0 25.098)">
                          <path id="Path_3010" data-name="Path 3010" d="M648.914,1319.449h-6.078a89.162,89.162,0,0,0,.375,22.087c.285,1.958-2.941,5.594-4.148,7.826-1.011,1.871-2.118,9.418-3.123,13.028-.177.637-2.173,2.787-2.376,3.128-.185,1.467,5.505,6.645,4.342,7.794.934.914,1.255.819,1.085-4.219-.015-.444-.056-.887-.1-1.328a13.624,13.624,0,0,1,0-2.8c0-.013.019-.044.021-.063.567-4.189,3.428-9.1,5.166-12.394,1.522-2.882,3.5-4.756,4.073-6.6A71.309,71.309,0,0,0,650.415,1334C651.077,1328.5,649.25,1325.2,648.914,1319.449Z" transform="translate(-631.773 -1319.449)" fill="#f8b999"/>
                          <g id="Group_1143" data-name="Group 1143" transform="translate(0 43.632)">
                            <path id="Path_3011" data-name="Path 3011" d="M633.14,1640.893c-1.755,1.14-2.524,2.7-2.154,3.574.178.421.55.462,1.022.779,1.931,1.3.4,4.442,2.219,6.618.563.673,2.022,1.319,4.447,2.185.186.067,1.516.345.035-1.267l-2-2.3-.4-.082a1.311,1.311,0,0,1-.986-.98Z" transform="translate(-629.471 -1640.893)" fill="#23314d"/>
                            <path id="Path_3012" data-name="Path 3012" d="M621.9,1664.461l-1.5,5.881.277.118,1.3-3.805a3.28,3.28,0,0,1,.18-.432c.261-.512.43-.514.8-.564l.29-.039Z" transform="translate(-620.406 -1661.262)" fill="#23314d"/>
                          </g>
                        </g>
                        <g id="Group_1146" data-name="Group 1146" transform="translate(8.483 18.802)">
                          <g id="Group_1145" data-name="Group 1145" clip-path="url(#clip-path-2)">
                            <path id="Path_3013" data-name="Path 3013" d="M685.787,1273.066c-.408.9-3.011,7.6-2.876,10.219.225,4.373,1.76,7.685,2.139,12.1.035.405,2.818.413,4.652.5,1.521.075,8.286-.082,10.061-.327-.691-6.047-3.035-19.386-3.893-22.136Z" transform="translate(-682.906 -1273.066)" fill="#23314d"/>
                            <path id="Path_3014" data-name="Path 3014" d="M598.532,1231.237c-.678,1.079-4.177-.736-7.963,1.535-3.052,1.83-3.815,8.275-3.992,9.708-.746,6.038,3.253,8.983,2.257,13.32-.927,4.039-5.166,8.038-8.766,7.825-6.667-.4-14.734-15.452-10.384-27.253.182-.494,4.472-11.611,14.161-12.277C593.778,1223.411,599.5,1229.689,598.532,1231.237Z" transform="translate(-583.988 -1230.697)" fill="#23314d"/>
                          </g>
                        </g>
                        <g id="Group_1147" data-name="Group 1147" transform="translate(1.699)">
                          <path id="Path_3015" data-name="Path 3015" d="M642.837,1158.164c-8.217-5.819-10.289-8.4-9.86-10.512.652-3.208,2.87-4.231,4.519-7.041.663-1.13,3.74-4.729,5.214-5.388,1.991-.891,3.486-.166,5.287.064a3.861,3.861,0,0,0,1.505-.049,14.692,14.692,0,0,1,1.394-.586c.173-.056.138-.04.488-.048.049,0-.716-.076.254-.055a6.434,6.434,0,0,1,4.657,2.748c.711,1.143,2.447,5.23,3.863,6.409,2.394,1.993,11.908-1.259,14.8-2.078.663.6.359.807.889,1.524-2.995,2.308-14.088,7.312-17.659,5.824a37.56,37.56,0,0,1-3.255-4.8c-3.052,4.007-1.647,9.432.176,13.744-.753.152-1.827.449-2.511.585a21.394,21.394,0,0,1-8.325.235,31.932,31.932,0,0,1-4.347-.8c-.357-.121-.779.171-.422-.792,1.873-5.042,5.668-7.978,2.142-14.4-2.134,1.7-2.787,3.257-5,5.229-.151.134,5.023,4.953,7.354,8.222Z" transform="translate(-632.923 -1134.544)" fill="#fd7b43"/>
                        </g>
                      </g>
                    </g>
                  </g>
                </g>
                <path id="Path_3016" data-name="Path 3016" d="M712.959,1028.846a.626.626,0,0,0,.511-.23,3.906,3.906,0,0,1,.641-.673,4.244,4.244,0,0,1,3.23-.92,5.006,5.006,0,0,1,2.912,1.234c0-.005,0,0,0,0,.255-.311.171-.875-1.317-1.725a5.667,5.667,0,0,0-1.852-.516,5.588,5.588,0,0,0-2.131.186,5.221,5.221,0,0,0-1.887.991,4.919,4.919,0,0,0-.746.766.479.479,0,0,0,.038.622,4.454,4.454,0,0,0-.275.517,4.336,4.336,0,0,0-.371,2.1l0,.052a.776.776,0,0,0-.731.83l0,.043-.232.151a.717.717,0,0,0-.326.649l.091,1.292a.676.676,0,0,0,.413.579l.25.106,0,.043a.733.733,0,0,0,.849.679l.433-.065a4.081,4.081,0,0,0,1.573,1.981,3.671,3.671,0,0,0,1.266.52,3.627,3.627,0,0,0,1.192.043.559.559,0,0,0,.7.466l.859-.22a.817.817,0,0,0,.555-.842.552.552,0,0,0-.654-.556l-.861.185a.834.834,0,0,0-.61.775,3.619,3.619,0,0,1-3.8-2.389c.138-.042.65-.24.64-.386l-.257-3.649c-.01-.145-.543-.244-.683-.26v-.02A3.973,3.973,0,0,1,712.959,1028.846Z" transform="translate(-698.21 -1020.411)" fill="#fff"/>
              </g>
              <g id="Group_1153" data-name="Group 1153" transform="translate(10.463 30.134)">
                <path id="Path_3017" data-name="Path 3017" d="M719.382,1257.5l-13.17,2.453a5.133,5.133,0,0,1-3.63-.728l-4.727-3.762c-.717-.571-.352-1.192.8-1.392l12.557-2.185a5.379,5.379,0,0,1,3.428.621l5.242,3.537C720.756,1256.628,720.537,1257.283,719.382,1257.5Z" transform="translate(-697.488 -1245.726)" fill="url(#linear-gradient)"/>
                <path id="Path_3018" data-name="Path 3018" d="M743.456,1218.411l-14.159,2.845a2.394,2.394,0,0,1-2.955-1.842l-1.241-8.223a2.422,2.422,0,0,1,2.276-2.658l14.346-1.606a2.18,2.18,0,0,1,2.385,1.831l1.083,7.178A2.207,2.207,0,0,1,743.456,1218.411Z" transform="translate(-721.332 -1206.914)" fill="#fff"/>
                <path id="Path_3019" data-name="Path 3019" d="M797.113,1248.894a1.3,1.3,0,0,1-1.1,1.442,1.28,1.28,0,0,1-1.5-1.035,1.3,1.3,0,0,1,1.128-1.446A1.28,1.28,0,0,1,797.113,1248.894Z" transform="translate(-781.327 -1242.284)" fill="#fbede7"/>
              </g>
            </g>
            <path id="Path_3020" data-name="Path 3020" d="M709.512,1289.868l2.954.34a3.534,3.534,0,0,0,2.368-.558l1.851-1.242c.035-.023.021-.081-.019-.149a.6.6,0,0,0-.738-.223,10.658,10.658,0,0,1-2.059.648,3.542,3.542,0,0,1-2.149-.289l-1.045-.5c-.019-.01-.114-.051-.219-.1a.333.333,0,0,1-.177-.449l.369-1.38c.039-.469-.311-.257-.659.057a4.374,4.374,0,0,1-1.495.881,2.242,2.242,0,0,1-1.377-.074l-1.158,1.966C705.984,1288.841,709.5,1289.867,709.512,1289.868Z" transform="translate(-694.346 -1244.866)" fill="#f8b999"/>
          </g>
          <g id="Group_1172" data-name="Group 1172" transform="translate(176.777 140.123)">
            <g id="Group_1161" data-name="Group 1161" transform="translate(5.57)">
              <g id="Group_1158" data-name="Group 1158" transform="translate(13.179)">
                <path id="Path_3021" data-name="Path 3021" d="M1680.9,1414.646a14.954,14.954,0,0,0,4.692.457,21.218,21.218,0,0,0,3.187-.576,12.719,12.719,0,0,0,1.97-.586l-1.231-.08a2.657,2.657,0,0,1-2.343-1.8l-.278-.818-3.983.566-.392.781a3.229,3.229,0,0,1-2.51,1.758l-.074.009C1680.254,1414.469,1680.573,1414.564,1680.9,1414.646Z" transform="translate(-1678.48 -1396.473)" fill="#ea8"/>
                <g id="Group_1157" data-name="Group 1157">
                  <path id="Path_3022" data-name="Path 3022" d="M1670.57,1364.927l-.055-.022a.98.98,0,0,0-1.222.453h0a.98.98,0,0,0-.079.722l.115.414a.98.98,0,0,0,1.208.681l.159-.045Z" transform="translate(-1669.178 -1356.364)" fill="#f8b999"/>
                  <path id="Path_3023" data-name="Path 3023" d="M1751.112,1364.927l.055-.022a.98.98,0,0,1,1.222.453h0a.979.979,0,0,1,.079.722l-.115.414a.98.98,0,0,1-1.208.681l-.159-.045Z" transform="translate(-1739.882 -1356.364)" fill="#f8b999"/>
                  <g id="Group_1156" data-name="Group 1156" transform="translate(0.185)">
                    <path id="Path_3024" data-name="Path 3024" d="M1687.02,1325.155h0a5.106,5.106,0,0,0-4.653-1.56h0a5.07,5.07,0,0,0-4.078,4.259l-.28,1.849a2.139,2.139,0,0,0-.009.553c.851,6.834,5.109,6.8,6.151,6.37C1684.151,1336.626,1691.157,1333.47,1687.02,1325.155Z" transform="translate(-1676.976 -1320.648)" fill="#f8b999"/>
                    <path id="Path_3025" data-name="Path 3025" d="M1681.731,1309.992l-.122-1.042a2.711,2.711,0,0,0-.391-1.123,6.959,6.959,0,0,0-2.664-2.459l-.413-.169a4.581,4.581,0,0,0-2.626-.254h0a.763.763,0,0,1-.91-.8l.629-1.734-1.472.468a4.567,4.567,0,0,0-3.208,4.017,4.891,4.891,0,0,0,.371,2.2s.34.539.535.609a2.932,2.932,0,0,0,2.19-.1l1.4-.627a2.506,2.506,0,0,1,.631-.187,8.68,8.68,0,0,1,3.931.168Z" transform="translate(-1670.545 -1302.413)" fill="#5b2f32"/>
                  </g>
                  <path id="Path_3026" data-name="Path 3026" d="M1750,1363.678l.522-.516a.276.276,0,0,1,.22-.079l.062.006-.1-.158a.28.28,0,0,0-.357-.111l-.406.191Z" transform="translate(-1738.985 -1354.598)" fill="url(#linear-gradient-2)"/>
                  <path id="Path_3027" data-name="Path 3027" d="M1675.857,1363.678l-.522-.516a.276.276,0,0,0-.22-.079l-.062.006.1-.158a.28.28,0,0,1,.358-.111l.406.191Z" transform="translate(-1674.256 -1354.598)" fill="url(#linear-gradient-3)"/>
                  <path id="Path_3028" data-name="Path 3028" d="M1689.834,1362.725h-3.314a.461.461,0,0,0-.458.512l.013.121a1.011,1.011,0,0,0-.97.049l-.021.013.02-.183a.461.461,0,0,0-.458-.512h-3.314a.461.461,0,0,0-.461.461v1.9a.461.461,0,0,0,.483.461l3.12-.153a.461.461,0,0,0,.436-.41l.141-1.27.045-.029a.983.983,0,0,1,.988-.047l.022.011.148,1.335a.461.461,0,0,0,.436.41l3.12.153a.461.461,0,0,0,.484-.461v-1.9A.461.461,0,0,0,1689.834,1362.725Zm-5.312,2.216a.069.069,0,0,1-.066.062l-3.125.153a.07.07,0,0,1-.069-.07v-1.9a.07.07,0,0,1,.07-.07h3.314a.07.07,0,0,1,.069.077Zm5.382.145a.07.07,0,0,1-.069.07l-3.125-.153a.07.07,0,0,1-.066-.062l-.194-1.747a.069.069,0,0,1,.069-.077h3.314a.07.07,0,0,1,.07.07Z" transform="translate(-1679.284 -1354.538)" fill="url(#linear-gradient-4)"/>
                </g>
              </g>
              <g id="Group_1160" data-name="Group 1160" transform="translate(0 17.13)">
                <g id="Group_1159" data-name="Group 1159">
                  <path id="Path_3029" data-name="Path 3029" d="M1642,1428.739c1.019-.414,2.911.328,3.058.35a11.687,11.687,0,0,0,4.314.307c1.547-.336,3.153-1.089,5.052-.624h0l-.012,0,2.052,8.052a5.524,5.524,0,0,1,.144.814l1.833,18.345c-3.164,1.044-21.221.841-21.221.841s.893-13.075,2.554-19.6Z" transform="translate(-1628.375 -1428.614)" fill="#fd7b43"/>
                  <path id="Path_3030" data-name="Path 3030" d="M1760.1,1429.522h0a6.412,6.412,0,0,1,1.389.132,8.882,8.882,0,0,1,5.85,4.006c1.791,2.871,5.3,8.858,6.27,13.136a4.679,4.679,0,0,1-1.953,4.866l-8.439,5.887-3.627-3.318,7.45-5.526c.965-.653.539-1.794.1-2.845a48.217,48.217,0,0,0-5.068-8.214Z" transform="translate(-1734.134 -1429.397)" fill="url(#linear-gradient-5)"/>
                  <path id="Path_3031" data-name="Path 3031" d="M1585.706,1429.522h0a6.414,6.414,0,0,0-1.389.132,8.882,8.882,0,0,0-5.85,4.006c-1.791,2.871-5.3,8.858-6.27,13.136a4.679,4.679,0,0,0,1.954,4.866l8.439,5.887,3.627-3.318-7.45-5.526c-.965-.653-.734-1.729-.3-2.781,1.411-3.417,5.263-8.279,5.263-8.279Z" transform="translate(-1572.085 -1429.397)" fill="url(#linear-gradient-5)"/>
                </g>
              </g>
            </g>
            <g id="Group_1162" data-name="Group 1162" transform="translate(21.158 16.841)">
              <path id="Path_3032" data-name="Path 3032" d="M1690.964,1429.271l-1.129,1.808a.126.126,0,0,1-.184.033l-2.68-2.078a.121.121,0,0,1,0-.194l.568-.42a.122.122,0,0,1,.1-.02Z" transform="translate(-1686.923 -1428.138)" fill="url(#linear-gradient-5)"/>
              <path id="Path_3033" data-name="Path 3033" d="M1716.142,1427.6l1.257,1.721a.126.126,0,0,0,.186.02l2.525-2.268a.119.119,0,0,0-.016-.189l-.6-.38a.119.119,0,0,0-.1-.012Z" transform="translate(-1712.176 -1426.487)" fill="url(#linear-gradient-5)"/>
            </g>
            <g id="Group_1163" data-name="Group 1163" transform="translate(12.057 30.259)">
              <path id="Rectangle_283" data-name="Rectangle 283" d="M0,0H26.52a0,0,0,0,1,0,0V4.579a13.26,13.26,0,0,1-13.26,13.26h0A13.26,13.26,0,0,1,0,4.579V0A0,0,0,0,1,0,0Z" transform="translate(26.52 17.839) rotate(180)" fill="#fff"/>
              <path id="Path_3034" data-name="Path 3034" d="M1704.442,1583.36h1.084a1.433,1.433,0,0,0,1.433-1.433h0a1.433,1.433,0,0,0-1.433-1.433h-1.084a1.433,1.433,0,0,0-1.433,1.433h0A1.433,1.433,0,0,0,1704.442,1583.36Z" transform="translate(-1691.724 -1573.008)" fill="#9bb0c2" opacity="0.3"/>
            </g>
            <g id="Group_1167" data-name="Group 1167" transform="translate(0 40.911)">
              <path id="Path_3035" data-name="Path 3035" d="M1616.265,1690.726l1.018,4.186,2.774-.706-1.472-4.065Z" transform="translate(-1604.698 -1678.424)" fill="#f8b999"/>
              <path id="Path_3036" data-name="Path 3036" d="M1631.8,1615.47l1.418,4.348,16.152-3.162a45.884,45.884,0,0,0,10.306-3.319l5.814-2.665a2.9,2.9,0,0,0,1.525-3.6h0c-.448-1.271-1.714-3.4-3.054-3.252l-5.078.233c-4.878.546-9.638,3.542-14.1,5.595Z" transform="translate(-1618.125 -1603.815)" fill="#242c44"/>
              <g id="Group_1166" data-name="Group 1166" transform="translate(0 11.301)">
                <path id="Path_3037" data-name="Path 3037" d="M1535.018,1687.1l.415.061.167,6.631h-1.323a3.231,3.231,0,0,1-2.337-1h0a3.23,3.23,0,0,1,.086-4.545l.274-.266A3.23,3.23,0,0,1,1535.018,1687.1Z" transform="translate(-1531.047 -1687.069)" fill="url(#linear-gradient-9)"/>
                <path id="Path_3038" data-name="Path 3038" d="M1549.821,1688.586l.962,4.328-7.431,1.426a3.148,3.148,0,0,1-2.279-.433l-.528-.335a3.148,3.148,0,0,1-.888-4.472h0a3.149,3.149,0,0,1,2.92-1.316Z" transform="translate(-1537.99 -1687.671)" fill="#fff"/>
                <g id="Group_1165" data-name="Group 1165" transform="translate(6.18 1.669)">
                  <rect id="Rectangle_284" data-name="Rectangle 284" width="0.34" height="3.079" rx="0.17" transform="translate(4.305 0) rotate(21.14)" fill="url(#linear-gradient-10)"/>
                  <rect id="Rectangle_285" data-name="Rectangle 285" width="0.34" height="3.079" rx="0.17" transform="translate(3.557 2.872) rotate(158.862)" fill="url(#linear-gradient-11)"/>
                  <g id="Group_1164" data-name="Group 1164" transform="translate(0 0)">
                    <rect id="Rectangle_286" data-name="Rectangle 286" width="0.34" height="3.079" rx="0.17" transform="translate(4.622 2.872) rotate(158.863)" fill="url(#linear-gradient-12)"/>
                    <rect id="Rectangle_287" data-name="Rectangle 287" width="0.34" height="3.079" rx="0.17" transform="translate(3.24 0) rotate(21.14)" fill="url(#linear-gradient-13)"/>
                    <rect id="Rectangle_288" data-name="Rectangle 288" width="0.34" height="3.079" rx="0.17" transform="translate(2.176 0) rotate(21.146)" fill="url(#linear-gradient-14)"/>
                    <rect id="Rectangle_289" data-name="Rectangle 289" width="0.34" height="3.079" rx="0.17" transform="translate(2.492 2.872) rotate(158.858)" fill="url(#linear-gradient-15)"/>
                    <rect id="Rectangle_290" data-name="Rectangle 290" width="0.34" height="3.079" rx="0.17" transform="translate(1.111 0) rotate(21.142)" fill="url(#linear-gradient-16)"/>
                    <rect id="Rectangle_291" data-name="Rectangle 291" width="0.34" height="3.079" rx="0.17" transform="translate(1.428 2.872) rotate(158.853)" fill="url(#linear-gradient-17)"/>
                  </g>
                </g>
              </g>
            </g>
            <g id="Group_1171" data-name="Group 1171" transform="translate(0 40.911)">
              <path id="Path_3039" data-name="Path 3039" d="M1783.093,1690.726l-1.018,4.186-2.775-.706,1.472-4.065Z" transform="translate(-1745.604 -1678.424)" fill="#f8b999"/>
              <path id="Path_3040" data-name="Path 3040" d="M1566.427,1615.47l-1.418,4.348-16.152-3.162a45.885,45.885,0,0,1-10.306-3.319l-5.814-2.665a2.9,2.9,0,0,1-1.525-3.6h0c.449-1.271,1.714-3.4,3.054-3.252l5.078.233c4.878.546,9.638,3.542,14.1,5.595Z" transform="translate(-1531.047 -1603.815)" fill="#28314c"/>
              <g id="Group_1170" data-name="Group 1170" transform="translate(36.264 11.301)">
                <path id="Path_3041" data-name="Path 3041" d="M1859.494,1687.1l-.415.061-.167,6.631h1.323a3.229,3.229,0,0,0,2.337-1h0a3.23,3.23,0,0,0-.086-4.545l-.274-.266A3.23,3.23,0,0,0,1859.494,1687.1Z" transform="translate(-1850.672 -1687.069)" fill="url(#linear-gradient-18)"/>
                <path id="Path_3042" data-name="Path 3042" d="M1799.176,1688.586l-.962,4.328,7.432,1.426a3.147,3.147,0,0,0,2.279-.433l.528-.335a3.148,3.148,0,0,0,.888-4.472h0a3.149,3.149,0,0,0-2.92-1.316Z" transform="translate(-1798.214 -1687.671)" fill="#fff"/>
                <g id="Group_1169" data-name="Group 1169" transform="translate(1.99 1.669)">
                  <rect id="Rectangle_292" data-name="Rectangle 292" width="0.34" height="3.079" rx="0.17" transform="translate(1.427 2.872) rotate(158.855)" fill="url(#linear-gradient-19)"/>
                  <rect id="Rectangle_293" data-name="Rectangle 293" width="0.34" height="3.079" rx="0.17" transform="translate(2.175 0) rotate(21.139)" fill="url(#linear-gradient-20)"/>
                  <g id="Group_1168" data-name="Group 1168" transform="translate(0 0)">
                    <rect id="Rectangle_294" data-name="Rectangle 294" width="0.34" height="3.079" rx="0.17" transform="translate(1.11 0) rotate(21.14)" fill="url(#linear-gradient-19)"/>
                    <rect id="Rectangle_295" data-name="Rectangle 295" width="0.34" height="3.079" rx="0.17" transform="translate(2.492 2.872) rotate(158.867)" fill="url(#linear-gradient-22)"/>
                    <rect id="Rectangle_296" data-name="Rectangle 296" width="0.34" height="3.079" rx="0.17" transform="translate(3.557 2.872) rotate(158.861)" fill="url(#linear-gradient-23)"/>
                    <rect id="Rectangle_297" data-name="Rectangle 297" width="0.34" height="3.079" rx="0.17" transform="translate(3.24 0) rotate(21.132)" fill="url(#linear-gradient-24)"/>
                    <rect id="Rectangle_298" data-name="Rectangle 298" width="0.34" height="3.079" rx="0.17" transform="translate(4.622 2.872) rotate(158.857)" fill="url(#linear-gradient-25)"/>
                    <rect id="Rectangle_299" data-name="Rectangle 299" width="0.34" height="3.079" rx="0.17" transform="translate(4.305 0) rotate(21.14)" fill="url(#linear-gradient-26)"/>
                  </g>
                </g>
              </g>
            </g>
          </g>
        </g>
        <path id="Path_3043" data-name="Path 3043" d="M1677.463,1326.662l-.2-.121v-.038a.7.7,0,0,0-.668-.708v-.047a4.151,4.151,0,0,0-.441-1.894,4.6,4.6,0,0,0-.276-.48.442.442,0,0,0,0-.571,5.471,5.471,0,0,0-.734-.753,6.282,6.282,0,0,0-1.937-1.113,7.256,7.256,0,0,0-4.765-.039,6.284,6.284,0,0,0-1.954,1.081,5.441,5.441,0,0,0-.744.739.443.443,0,0,0-.01.572,4.626,4.626,0,0,0-.284.476,4.157,4.157,0,0,0-.471,1.887v.046h-.026a.7.7,0,0,0-.689.7v.038l-.2.118a.63.63,0,0,0-.309.54l-.009,1.121a.631.631,0,0,0,.3.545l.2.121v.038a.7.7,0,0,0,.678.709l.548,0c.145,0,.649-.115.65-.265l.027-3.388c0-.122-.463-.229-.57-.263v-.058a3.79,3.79,0,0,1,.688-2.13.657.657,0,0,0,.5-.224,5.147,5.147,0,0,1,3.837-1.752,5.4,5.4,0,0,1,3.579,1.151,4.421,4.421,0,0,1,.666.669.655.655,0,0,0,.5.231,3.868,3.868,0,0,1,.655,2.173v.018c-.126.019-.609.126-.61.261l-.027,3.389c0,.136.481.252.608.272a4.184,4.184,0,0,1-3.611,2.911.74.74,0,0,0-.731-.643l-1.012-.008a.738.738,0,0,0-.749.727h0a.739.739,0,0,0,.737.74l1.013.008a.739.739,0,0,0,.741-.63,4.411,4.411,0,0,0,2.476-1.045,4.363,4.363,0,0,0,1.338-2.055l.385,0a.7.7,0,0,0,.689-.7v-.038l.2-.118a.63.63,0,0,0,.309-.54l.009-1.121A.631.631,0,0,0,1677.463,1326.662Z" transform="translate(-1468.956 -1177.934)" fill="#fff"/>
      </g>
    </g>
    <path id="ic_play_circle_filled_24px" d="M12,2A10,10,0,1,0,22,12,10,10,0,0,0,12,2ZM10,16.5v-9L16,12Z" transform="translate(159 128)" fill="#fff"/>
  </g>
</svg>
