<svg xmlns="http://www.w3.org/2000/svg" xmlns:xlink="http://www.w3.org/1999/xlink" width="322" height="260" viewBox="0 0 322 260">
  <defs>
    <clipPath id="clip-wildlife">
      <rect width="322" height="260"/>
    </clipPath>
  </defs>
  <g id="wildlife" clip-path="url(#clip-wildlife)">
    <g id="Group_1225" data-name="Group 1225" transform="translate(-8.228 -47.121)">
      <g id="Background_Complete" data-name="Background Complete" transform="translate(21.604 58.014)">
        <g id="Group_1206" data-name="Group 1206" transform="translate(0 0)">
          <g id="Group_1204" data-name="Group 1204" transform="translate(0 19.375)">
            <g id="Group_1203" data-name="Group 1203">
              <path id="Path_5195" data-name="Path 5195" d="M226.99,167.518l67.837,7.791c5.744.659,11.317-2.495,14.413-8.154,3.376-6.17,6.146-14.009,1.98-18.62a19.379,19.379,0,0,1-4.876-14.185c1.233-19.609-6.8-44.082-32.255-46.184-14.4-1.19-19.47,8.887-20.807,19.851-1.249,10.24-9.624,17.12-18.338,15-7.672-1.867-14.5.32-13.943,14.444.269,6.886-2.932,13.354-8.207,16.51C205.211,158.51,201,166.05,226.99,167.518Z" transform="translate(-87.496 -88.07)" fill="#ebf3fa"/>
              <path id="Path_5196" data-name="Path 5196" d="M152.845,338.255c.572.437,1.153.844,1.744,1.236H280.151c11.15-4.969,16.753-9.668,9.213-12.443a31.249,31.249,0,0,1-16.429-15.067c-4.28-8.68-17.163-9.819-28.74-8.861-9.823.815-21.515-7.171-26.326-18.25-5.116-11.787-15.09-23.8-34.438-23.181-30.824.98-40.66,22.126-34.636,45.405,1.864,7.194.215,13.755-4.588,16.96C139.776,327.019,146.659,333.534,152.845,338.255Z" transform="translate(-64.675 -149.765)" fill="#ebf3fa"/>
              <path id="Path_5197" data-name="Path 5197" d="M24.7,348.493a10.6,10.6,0,0,0,.8.95h96.442c10.727-3.817,17.074-7.425,12.491-9.557-4.084-1.905-6.451-6.319-6.062-11.573.489-6.667-8.91-7.541-18.219-6.806-7.9.625-13.4-5.509-12.279-14.017,1.2-9.054-1.234-18.281-16.364-17.805a49.649,49.649,0,0,0-46.362,34.875,21.943,21.943,0,0,1-10.9,13.027C19.556,339.862,22.008,344.867,24.7,348.493Z" transform="translate(-21.604 -159.716)" fill="#ebf3fa"/>
              <path id="Path_5198" data-name="Path 5198" d="M268.951,212.45l107.067-26.175c5.58-.647,10.614-4.43,13.583-10.909,2.253-4.918,2.9-10.356-2.888-13.142-6.659-3.2-11.52-9.493-13.829-16.888-5.489-17.58-24.484-35.44-60.865-31.826-18.858,1.873-25.3,9.821-26.238,18.689-1.412,13.352-11.78,23.219-24.373,23.348-10.537.108-19.12,3.022-17.811,12.628a25.352,25.352,0,0,1-9.95,23.792C226,197.6,233.238,216.587,268.951,212.45Z" transform="translate(-95.986 -96.944)" fill="#ebf3fa"/>
            </g>
          </g>
          <g id="Group_1205" data-name="Group 1205" transform="translate(21.231)">
            <circle id="Ellipse_54" data-name="Ellipse 54" cx="16.344" cy="16.344" r="16.344" transform="translate(70.535 12.509) rotate(-22.5)" fill="#fd7b43"/>
            <path id="Path_5199" data-name="Path 5199" d="M154.361,79.324c7.331-4.691,5.8-9.165-9.542-8.278s-17.841,7.88-17.841,7.88-23.237-.85-21.277,4.1c-13.231,1.164-16.843,2.316-7.746,2.916l66.512-4.61S166.859,78.294,154.361,79.324Z" transform="translate(-68.181 -62.605)" fill="#ebf3fa"/>
            <path id="Path_5200" data-name="Path 5200" d="M62.722,148.873l36.243-2.512s14.016-4.885,5.2-4.779c6.716-3.812,11.266-9.8-2.682-8.969S83,141.6,83,141.6s-13.63-4.3-18.689,4.389C61.015,146.213,45.05,150.1,62.722,148.873Z" transform="translate(-54.541 -84.498)" fill="#ebf3fa"/>
            <path id="Path_5201" data-name="Path 5201" d="M363.136,82.221l26.488-1.836s10.243-3.57,3.8-3.493c4.909-2.785,8.234-7.165-1.96-6.554S377.954,76.9,377.954,76.9s-9.961-3.139-13.658,3.208C361.888,80.277,350.221,83.116,363.136,82.221Z" transform="translate(-162.088 -62.373)" fill="#ebf3fa"/>
          </g>
        </g>
      </g>
      <g id="Shadow" transform="translate(43.848 281.63)">
        <ellipse id="_Path_" data-name="&lt;Path&gt;" cx="124.983" cy="7.299" rx="124.983" ry="7.299" fill="#ebf3fa"/>
      </g>
      <g id="Butterflies" transform="translate(69.569 84.564)">
        <g id="Group_1214" data-name="Group 1214">
          <g id="Group_1207" data-name="Group 1207" transform="translate(37.033)">
            <path id="Path_5202" data-name="Path 5202" d="M166.3,110.928c-.9-4.038-6.4-9.455-9.569-11.448s-3.505,7.243-2.841,10.453,2.9,7.59,5.171,8.644c-2.294.639-8.3,6.456-4.212,8.577s9.224-.743,9.224-.743Z" transform="translate(-153.462 -99.201)" fill="#407bff"/>
            <path id="Path_5203" data-name="Path 5203" d="M183.03,149.376l-.125-.632a4.788,4.788,0,0,0,2.311-1.12l.431.48A5.423,5.423,0,0,1,183.03,149.376Z" transform="translate(-163.926 -116.41)" fill="#407bff"/>
            <path id="Path_5204" data-name="Path 5204" d="M188.831,139.745l-.634-.115a10.268,10.268,0,0,0-1.159-6.219l.569-.3A10.943,10.943,0,0,1,188.831,139.745Z" transform="translate(-165.395 -111.251)" fill="#407bff"/>
            <path id="Path_5205" data-name="Path 5205" d="M172.767,112.894c2.156-3.61,9.151-7.283,12.814-8.323s1.122,8.693-.746,11.41-4.132,5.992-6.636,6.38c1.987,1.237,4.365,8.564-.22,9.474s-8.051-3.543-8.051-3.543Z" transform="translate(-159.314 -101.082)" fill="#407bff"/>
            <path id="Path_5206" data-name="Path 5206" d="M169.089,132.289l1.746-16.418a1.029,1.029,0,0,1,1.067-.992l1.041.146a.972.972,0,0,1,.7,1.238l-3.6,16.159C169.889,133.118,169.015,133,169.089,132.289Z" transform="translate(-159.014 -104.77)" fill="#263238"/>
            <path id="Path_5207" data-name="Path 5207" d="M172.709,112.414l-.387-.115c.015-.05,1.46-5.09-1.7-6.9l.2-.35C174.26,107.017,172.774,112.194,172.709,112.414Z" transform="translate(-159.562 -101.281)" fill="#263238"/>
            <path id="Path_5208" data-name="Path 5208" d="M174.817,112.368l-.4-.052c.039-.3,1.006-7.364,4.958-7.547l.019.4C175.778,105.339,174.826,112.3,174.817,112.368Z" transform="translate(-160.909 -101.18)" fill="#263238"/>
          </g>
          <g id="Group_1210" data-name="Group 1210" transform="translate(0 38.548)">
            <g id="Group_1208" data-name="Group 1208" transform="translate(9.207)">
              <path id="Path_5209" data-name="Path 5209" d="M110.3,167.091c.044-2.579,2.391-6.354,3.862-7.826s4.222,3.633,4.214,5.68-2.3,5.555-3.4,6.376c1.291.23,5.116,3.411,3.168,5.03s-4.993.213-4.993.213Z" transform="translate(-110.296 -159.003)" fill="#407bff"/>
              <path id="Path_5210" data-name="Path 5210" d="M110.3,167.091c.044-2.579,2.391-6.354,3.862-7.826s4.222,3.633,4.214,5.68-2.3,5.555-3.4,6.376c1.291.23,5.116,3.411,3.168,5.03s-4.993.213-4.993.213Z" transform="translate(-110.296 -159.003)" fill="#fff" opacity="0.3"/>
            </g>
            <g id="Group_1209" data-name="Group 1209" transform="translate(0 3.927)">
              <path id="Path_5211" data-name="Path 5211" d="M104.9,169.354c-1.538-2.09-5.659-3.863-7.721-4.242s-1.024,5.6.265,7.155,4.209,3.319,5.584,3.378c-.925.915-1.4,5.65,1.138,5.881s3.906-2.8,3.906-2.8Z" transform="translate(-96.013 -165.094)" fill="#407bff"/>
              <path id="Path_5212" data-name="Path 5212" d="M104.9,169.354c-1.538-2.09-5.659-3.863-7.721-4.242s-1.024,5.6.265,7.155,4.209,3.319,5.584,3.378c-.925.915-1.4,5.65,1.138,5.881s3.906-2.8,3.906-2.8Z" transform="translate(-96.013 -165.094)" fill="#fff" opacity="0.3"/>
            </g>
            <path id="Path_5213" data-name="Path 5213" d="M112.891,180.6l-2.5-10.118a.649.649,0,0,0-.752-.528l-.639.18a.613.613,0,0,0-.332.834l3.641,9.8C112.462,181.188,113,181.036,112.891,180.6Z" transform="translate(-100.491 -162.888)" fill="#263238"/>
            <path id="Path_5214" data-name="Path 5214" d="M109.634,167.9c-.077-.166-1.862-4.09.118-5.613l.155.2c-1.82,1.4-.061,5.266-.043,5.3Z" transform="translate(-100.565 -160.169)" fill="#263238"/>
            <path id="Path_5215" data-name="Path 5215" d="M107.694,169.1c-.007-.035-.71-3.62-2.977-3.415l-.023-.253c2.49-.236,3.22,3.464,3.25,3.622Z" transform="translate(-99.098 -161.285)" fill="#263238"/>
          </g>
          <g id="Group_1213" data-name="Group 1213" transform="translate(53.579 62.55)">
            <g id="Group_1211" data-name="Group 1211" transform="translate(0 0.56)">
              <path id="Path_5216" data-name="Path 5216" d="M186.373,203.791c-.028-2.194-2.029-5.3-3.286-6.488s-3.641,3.286-3.643,5.028,1.955,4.624,2.891,5.275c-1.11.255-4.408,3.136-2.742,4.427s4.287-.045,4.287-.045Z" transform="translate(-179.132 -197.106)" fill="#407bff"/>
              <path id="Path_5217" data-name="Path 5217" d="M186.373,203.791c-.028-2.194-2.029-5.3-3.286-6.488s-3.641,3.286-3.643,5.028,1.955,4.624,2.891,5.275c-1.11.255-4.408,3.136-2.742,4.427s4.287-.045,4.287-.045Z" transform="translate(-179.132 -197.106)" fill="#fff" opacity="0.7"/>
            </g>
            <g id="Group_1212" data-name="Group 1212" transform="translate(4.696 3.957)">
              <path id="Path_5218" data-name="Path 5218" d="M188.441,205.664c1.137-1.782,4.427-3.09,6.105-3.284s1.2,5.148.234,6.463-3.264,2.7-4.395,2.656c.821.9,1.514,5.221-.567,5.246s-3.4-2.815-3.4-2.815Z" transform="translate(-186.416 -202.375)" fill="#407bff"/>
              <path id="Path_5219" data-name="Path 5219" d="M188.441,205.664c1.137-1.782,4.427-3.09,6.105-3.284s1.2,5.148.234,6.463-3.264,2.7-4.395,2.656c.821.9,1.514,5.221-.567,5.246s-3.4-2.815-3.4-2.815Z" transform="translate(-186.416 -202.375)" fill="#fff" opacity="0.7"/>
            </g>
            <path id="Path_5220" data-name="Path 5220" d="M186.034,214.534l2.188-10.118c.081-.375.383-.617.658-.529l.559.18a.646.646,0,0,1,.29.835l-3.184,9.8C186.409,215.122,185.939,214.97,186.034,214.534Z" transform="translate(-181.58 -198.95)" fill="#263238"/>
            <path id="Path_5221" data-name="Path 5221" d="M190.428,201.83l-.22-.09c.016-.039,1.559-3.918-.038-5.324l.157-.179C192.051,197.756,190.5,201.665,190.428,201.83Z" transform="translate(-183.055 -196.237)" fill="#263238"/>
            <path id="Path_5222" data-name="Path 5222" d="M191.082,203.039l-.235-.039c.026-.157.673-3.845,2.852-3.617l-.025.237C191.7,199.425,191.087,203,191.082,203.039Z" transform="translate(-183.295 -197.351)" fill="#263238"/>
          </g>
        </g>
      </g>
      <g id="Character" transform="translate(159.456 110.569)">
        <g id="Group_1224" data-name="Group 1224">
          <g id="Group_1223" data-name="Group 1223">
            <g id="Group_1216" data-name="Group 1216" transform="translate(15.81 4.649)">
              <path id="Path_5223" data-name="Path 5223" d="M312.871,172.442l-.877-3.169-4.837,4.068a29.906,29.906,0,0,0,2.944,1.9,1.6,1.6,0,0,0,2.176-.579l.39-.665A2.011,2.011,0,0,0,312.871,172.442Z" transform="translate(-276.748 -154.758)" fill="#b55b52"/>
              <path id="Path_5224" data-name="Path 5224" d="M306.483,163.949l-2.205,4.6,1.856,2.9,4.837-4.068Z" transform="translate(-275.725 -152.866)" fill="#b55b52"/>
              <g id="Group_1215" data-name="Group 1215" transform="translate(0)">
                <rect id="Rectangle_309" data-name="Rectangle 309" width="17.943" height="12.816" rx="4.076" transform="translate(23.042 2.463) rotate(7.37)" fill="#263238"/>
                <path id="Path_5225" data-name="Path 5225" d="M321.208,194.51c-2.961,0-8.421-2.5-15.45-8.256-7.661-6.27-6.935-11.2-6.405-14.8a8.747,8.747,0,0,0,.1-3.44l.677-.185a9.211,9.211,0,0,1-.078,3.727c-.534,3.625-1.2,8.136,6.155,14.153,9.382,7.678,15.3,9.067,16.512,7.6.777-.942-.3-3.554-4.519-7.062-4.722-3.931-4.954-9.949-5.125-14.343a17.2,17.2,0,0,0-.4-3.881l.668-.214a17.44,17.44,0,0,1,.428,4.067c.165,4.262.391,10.1,4.873,13.829,4.115,3.426,5.881,6.511,4.61,8.049A2.534,2.534,0,0,1,321.208,194.51Z" transform="translate(-273.867 -154.24)" fill="#263238"/>
                <path id="Path_5226" data-name="Path 5226" d="M313.216,154.583l-3.648-1.208a1,1,0,0,1-.656-1.025l.289-2.23a.627.627,0,0,1,.855-.525l3.649,1.208a1,1,0,0,1,.655,1.025l-.288,2.23A.628.628,0,0,1,313.216,154.583Z" transform="translate(-277.37 -147.751)" fill="#263238"/>
                <path id="Path_5227" data-name="Path 5227" d="M312,149.655l-2.1-.7a.575.575,0,0,1-.378-.591l.166-1.286a.362.362,0,0,1,.494-.3l2.1.7a.575.575,0,0,1,.378.592l-.166,1.286A.362.362,0,0,1,312,149.655Z" transform="translate(-277.584 -146.756)" fill="#263238"/>
                <rect id="Rectangle_310" data-name="Rectangle 310" width="9.545" height="11.1" rx="2.767" transform="translate(1.424 0.532) rotate(7.37)"/>
                <rect id="Rectangle_311" data-name="Rectangle 311" width="12.543" height="8.959" rx="4.48" transform="matrix(0.992, 0.128, -0.128, 0.992, 5.54, 2.144)" fill="#263238"/>
                <path id="Path_5228" data-name="Path 5228" d="M269.889,159.632h-.023a3.2,3.2,0,0,1-2.757-3.576l.375-2.9a3.2,3.2,0,0,1,3.576-2.758.175.175,0,0,1,.151.2.178.178,0,0,1-.2.151,2.846,2.846,0,0,0-3.182,2.454l-.375,2.9a2.851,2.851,0,0,0,2.454,3.182.176.176,0,0,1-.023.35Z" transform="translate(-262.506 -148.041)" fill="#fff"/>
                <rect id="Rectangle_312" data-name="Rectangle 312" width="8.074" height="9.389" rx="2.34" transform="translate(11.769 2.732) rotate(7.37)" fill="#263238"/>
                <rect id="Rectangle_313" data-name="Rectangle 313" width="8.074" height="9.389" rx="2.34" transform="translate(12.958 2.886) rotate(7.37)"/>
                <rect id="Rectangle_314" data-name="Rectangle 314" width="10.61" height="7.578" rx="3.789" transform="matrix(0.992, 0.128, -0.128, 0.992, 16.44, 4.25)" fill="#263238"/>
                <path id="Path_5229" data-name="Path 5229" d="M286.581,161.439h-.023a2.732,2.732,0,0,1-2.355-3.055l.317-2.453a2.735,2.735,0,0,1,3.055-2.355.176.176,0,0,1,.151.2.18.18,0,0,1-.2.151,2.385,2.385,0,0,0-2.662,2.052l-.317,2.453a2.379,2.379,0,0,0,2.052,2.662.176.176,0,0,1-.023.35Z" transform="translate(-268.583 -149.171)" fill="#fff"/>
                <rect id="Rectangle_315" data-name="Rectangle 315" width="4.419" height="3.157" rx="1.004" transform="translate(34.125 5.433) rotate(7.37)" fill="#407bff" opacity="0.6"/>
                <rect id="Rectangle_316" data-name="Rectangle 316" width="6.099" height="12.816" rx="3.049" transform="matrix(0.992, 0.128, -0.128, 0.992, 23.043, 2.463)"/>
              </g>
            </g>
            <g id="Group_1218" data-name="Group 1218" transform="translate(97.146 20.887)">
              <g id="Group_1217" data-name="Group 1217">
                <line id="Line_1" data-name="Line 1" opacity="0.2"/>
              </g>
            </g>
            <g id="Group_1222" data-name="Group 1222">
              <g id="Group_1219" data-name="Group 1219" transform="translate(22.58 12.139)">
                <path id="Path_5230" data-name="Path 5230" d="M298.757,177.943h-.026l-.074,0h-.085a3.9,3.9,0,0,0-.489.039c-7.615,5.1,1.02,8.923-.5,7.63.086.024.172.045.259.063l.1.02.03.006-.109-.013-.332-.04-.7-.085c-.473-.056-.945-.126-1.418-.2q-1.418-.211-2.836-.456c-1.891-.319-3.773-.727-5.658-1.187a45.1,45.1,0,0,1-11.315-4.243,18.6,18.6,0,0,1-2.824-2c-.233-.2-.464-.42-.693-.65l-.34-.357-.084-.093-.165-.191a4.17,4.17,0,0,1-.532-.8,4.39,4.39,0,0,1-.458-1.579,5.4,5.4,0,0,1-.019-.629c.008-.184.025-.346.046-.52a6.2,6.2,0,0,1,.395-1.439,10,10,0,0,1,.955-1.768c.324-.49.648-.925.976-1.34a29.819,29.819,0,0,1,2.009-2.276,64.627,64.627,0,0,1,8.716-7.454l2.647,2.827c-2.249,2.864-4.576,5.749-6.612,8.591-.5.712-.976,1.426-1.395,2.106-.206.34-.394.676-.543.982a3.1,3.1,0,0,0-.273.717c-.009.05.011.067.045-.1a.986.986,0,0,0,.02-.173,1.612,1.612,0,0,0,0-.282,2.524,2.524,0,0,0-.264-.918,2.916,2.916,0,0,0-.34-.517c-.1-.117-.058-.066-.051-.061l.035.033.15.133c.106.09.219.182.342.274a11.72,11.72,0,0,0,1.788,1.071,28.613,28.613,0,0,0,4.548,1.757c1.625.5,3.317.931,5.034,1.307s3.463.708,5.217,1.026q1.317.231,2.644.43l1.329.2.672.1.356.053.234.036.116.02.145.028c.094.019.188.042.28.068-1.512-1.292,7.135,2.539-.493,7.637a4.239,4.239,0,0,1-.51.041H298.6l-.117,0-.113-.005Z" transform="translate(-270.487 -158.376)" fill="#b55b52"/>
              </g>
              <path id="Path_5231" data-name="Path 5231" d="M293.7,152.43h2.353l-.822,3.213-4.452-1.6.772-.745A3.094,3.094,0,0,1,293.7,152.43Z" transform="translate(-255.118 -144.123)" fill="#b55b52"/>
              <path id="Path_5232" data-name="Path 5232" d="M289.056,159.315l1.11-4.382,4.452,1.6s-.032,5.278-3.465,5.009Z" transform="translate(-254.506 -145.013)" fill="#b55b52"/>
              <path id="Path_5233" data-name="Path 5233" d="M332.232,193.159c-.389.142-.537.184-.776.258-.224.07-.42.119-.632.178-.41.1-.815.191-1.213.263-.8.157-1.585.239-2.37.317a27.442,27.442,0,0,1-4.635-.034,30.471,30.471,0,0,1-4.483-.717c-.734-.16-1.455-.364-2.166-.585l-.535-.161-.307-.093c-.171-.057-.345-.111-.51-.18a6.859,6.859,0,0,1-1.759-1.029,8.453,8.453,0,0,1-2.072-2.535,13.675,13.675,0,0,1-1.037-2.43,23.387,23.387,0,0,1-.893-4.537,37.241,37.241,0,0,1,.144-8.624l3.873.006a74.63,74.63,0,0,0,1.646,7.553,20.732,20.732,0,0,0,1.226,3.3,6.946,6.946,0,0,0,.729,1.227,1.5,1.5,0,0,0,.574.521c.044.011.043-.015.011-.045-.008,0-.017-.019-.028-.022s.041.006.073.011l.113.019.454.079.9.156.9.119c.6.1,1.2.127,1.8.194.6.019,1.194.082,1.784.081a27.86,27.86,0,0,0,3.49-.128c.564-.059,1.126-.132,1.659-.226.271-.043.527-.1.777-.15l.351-.078c.088-.018.264-.072.2-.043Z" transform="translate(-261.473 -151.522)" fill="#b55b52"/>
              <path id="Path_5234" data-name="Path 5234" d="M331.177,165.2c-1.17,5.227-1.463,9.12-.4,13.244,0,0-1.18,3.828-8.191,3.828-7.71,0-3.536-3.827-3.536-3.827,4.246-1,4.258-4.127,3.639-7.058Z" transform="translate(-264.764 -148.662)" fill="#b55b52"/>
              <path id="Path_5235" data-name="Path 5235" d="M332.519,187.432c.6-1.211,1.262-2.6.019-3.032-1.366-.478-8.927-.966-11.575-.068a2.793,2.793,0,0,0-2,3.355Z" transform="translate(-265.109 -155.283)" fill="#263238"/>
              <path id="Path_5236" data-name="Path 5236" d="M394.884,405.571a6.647,6.647,0,0,0,1.181-.907.134.134,0,0,0-.086-.231c-.242-.01-2.375-.079-2.758.508a.425.425,0,0,0-.012.442.8.8,0,0,0,.59.476A1.706,1.706,0,0,0,394.884,405.571Zm.752-.878c-.735.641-1.392.975-1.788.9a.544.544,0,0,1-.4-.331.163.163,0,0,1,0-.178C393.644,404.782,394.782,404.688,395.635,404.693Z" transform="translate(-291.501 -233.68)" fill="#407bff"/>
              <path id="Path_5237" data-name="Path 5237" d="M396.225,403.861a.13.13,0,0,0,.052-.055.134.134,0,0,0-.008-.136c-.039-.057-.962-1.4-1.8-1.543a.73.73,0,0,0-.579.133h0a.435.435,0,0,0-.2.514c.208.6,1.8,1.118,2.462,1.1A.127.127,0,0,0,396.225,403.861Zm-2.12-1.421a.475.475,0,0,1,.324-.05c.535.09,1.161.824,1.453,1.2-.721-.1-1.807-.55-1.931-.907-.011-.033-.037-.109.1-.213h0C394.07,402.462,394.087,402.451,394.1,402.44Z" transform="translate(-291.686 -232.859)" fill="#407bff"/>
              <path id="Path_5238" data-name="Path 5238" d="M399.845,396.031l-3.745,3.051-8.934-9.171,3.745-3.051Z" transform="translate(-289.373 -227.438)" fill="#b55b52"/>
              <path id="Path_5239" data-name="Path 5239" d="M394.879,402.085l4.763-3.3a.428.428,0,0,1,.551.047l2.747,3.562a.792.792,0,0,1-.1,1.207,47.82,47.82,0,0,1-4.616,2.816c-1.361.777-2.4,3.955-7.057,3.955-2.118,0-2.825-1.685-1.951-1.952,4.584-1.4,4.715-3.9,5.146-5.59A1.293,1.293,0,0,1,394.879,402.085Z" transform="translate(-289.971 -231.647)" fill="#263238"/>
              <path id="Path_5240" data-name="Path 5240" d="M304.833,231.665h27.593c.316-3.8-1.149-20.8,2.041-38.659a6.147,6.147,0,0,0-5.491-7.182c-.787-.075-1.6-.138-2.4-.177a102.015,102.015,0,0,0-11.725,0,48.059,48.059,0,0,0-4.817.71c-2.243.441-4.34,2.027-4.677,4.288-2.077,13.958-.525,41.018-.525,41.018" transform="translate(-259.915 -155.868)" fill="#407bff"/>
              <g id="Group_1220" data-name="Group 1220" transform="translate(39.321 29.636)">
                <path id="Path_5241" data-name="Path 5241" d="M307.671,244.408h-8.154a2.926,2.926,0,0,1-2.955-3.311l.948-8.817a3.792,3.792,0,0,1,3.667-3.311h8.154a2.925,2.925,0,0,1,2.955,3.311l-.948,8.817A3.792,3.792,0,0,1,307.671,244.408Z" transform="translate(-296.487 -200.96)" fill="#263238"/>
                <path id="Path_5242" data-name="Path 5242" d="M315.466,228.969l-1.66,15.439a3.792,3.792,0,0,0,3.667-3.311l.948-8.817A2.926,2.926,0,0,0,315.466,228.969Z" transform="translate(-302.622 -200.96)"/>
                <path id="Path_5243" data-name="Path 5243" d="M319.7,216.949a.322.322,0,0,1-.2-.572c.181-.146,18.033-14.794,14.531-30.466a.322.322,0,1,1,.628-.141c3.59,16.064-14.571,30.959-14.754,31.108A.321.321,0,0,1,319.7,216.949Z" transform="translate(-304.603 -185.518)" fill="#263238"/>
                <path id="Path_5244" data-name="Path 5244" d="M309.748,229.888l-9.562-.024a2.33,2.33,0,0,0-.931.2A3.749,3.749,0,0,0,297.8,232.6l-.44,4.1a1.587,1.587,0,0,0,.937.289l9.562.018a3.025,3.025,0,0,0,2.689-2.237l.7-2.629A1.63,1.63,0,0,0,309.748,229.888Z" transform="translate(-296.779 -201.278)"/>
                <path id="Path_5245" data-name="Path 5245" d="M307.6,236.119l-9.558-.023a1.631,1.631,0,0,1-1.5-2.249l.7-2.633a3.034,3.034,0,0,1,2.691-2.239l9.558.023a1.631,1.631,0,0,1,1.5,2.249l-.7,2.633A3.035,3.035,0,0,1,307.6,236.119Z" transform="translate(-296.456 -200.962)" fill="#263238"/>
              </g>
              <path id="Path_5246" data-name="Path 5246" d="M304.893,200.6c-.239,2.738-.387,5.729-.471,8.783C307.5,205.973,309.59,201.718,304.893,200.6Z" transform="translate(-259.967 -161.243)" opacity="0.2"/>
              <path id="Path_5247" data-name="Path 5247" d="M307.815,196.289c-3.659,3.277-11.117-1.053-11.117-1.053l-2.224-10.684s8.257.03,14.716.8C316.4,186.2,311.935,192.6,307.815,196.289Z" transform="translate(-256.431 -155.539)" fill="#407bff"/>
              <g id="Group_1221" data-name="Group 1221" transform="translate(97.794 159.424)" opacity="0.2">
                <path id="Path_5248" data-name="Path 5248" d="M390.915,386.863l-3.747,3.053,4.607,4.726,3.747-3.053Z" transform="translate(-387.168 -386.863)"/>
              </g>
              <path id="Path_5249" data-name="Path 5249" d="M312.931,257.13s9.1,29.2,11.741,43.971c2.895,16.171,37.275,46.661,37.275,46.661l6.409-5.968s-21.177-28.251-28.266-39.227c-1.509-17.377-4.591-45.437-4.591-45.437Z" transform="translate(-262.991 -181.333)" fill="#263238"/>
              <path id="Path_5250" data-name="Path 5250" d="M384.885,392.892c-.031.026,3,2.21,3,2.21l8.069-6.919-2.16-2.412Z" transform="translate(-288.562 -227.05)" fill="#407bff"/>
              <path id="Path_5251" data-name="Path 5251" d="M319.879,277.559c.73,2.535,1.488,5.245,2.239,8a30.823,30.823,0,0,0,4.634-13.284Z" transform="translate(-265.46 -186.714)" opacity="0.2"/>
              <path id="Path_5252" data-name="Path 5252" d="M317.838,156.8c-.058.412-.325.724-.6.7s-.442-.384-.384-.8.326-.724.6-.7S317.9,156.388,317.838,156.8Z" transform="translate(-264.382 -145.393)" fill="#263238"/>
              <path id="Path_5253" data-name="Path 5253" d="M316.574,158.37a15.62,15.62,0,0,1-2.477,3.323,2.361,2.361,0,0,0,1.925.572Z" transform="translate(-263.405 -146.234)" fill="#a02724"/>
              <path id="Path_5254" data-name="Path 5254" d="M318.036,152.779a.248.248,0,0,1-.153-.167.245.245,0,0,1,.173-.3,2.4,2.4,0,0,1,2.136.6.244.244,0,1,1-.329.361,1.916,1.916,0,0,0-1.68-.491A.247.247,0,0,1,318.036,152.779Z" transform="translate(-264.748 -144.063)" fill="#263238"/>
              <path id="Path_5255" data-name="Path 5255" d="M331.591,153.57c-1.029,5.031-1.375,8.018-4.311,10.354a6.658,6.658,0,0,1-10.858-4.626c-.448-4.661,1.311-12.105,6.571-13.61A6.726,6.726,0,0,1,331.591,153.57Z" transform="translate(-264.208 -141.622)" fill="#b55b52"/>
              <path id="Path_5256" data-name="Path 5256" d="M320.737,153.915l-2.2.195s-.327-3.159,1.4-4.954c-1.162-.213-2.22-2.041-2.029-4.569.2-2.671,4.276-6.87,7.233-4.176,3.188,2.9,9.445,3.58,8.2,5.344,1.833-.343,6.163,5.7,1.833,8.668s-2.862,5.849-4.922,7.02S321.361,161.4,320.737,153.915Z" transform="translate(-264.751 -139.544)" fill="#263238"/>
              <path id="Path_5257" data-name="Path 5257" d="M341.473,147.939s.892-.822-.117-2.547C342.819,146.125,342.526,147.646,341.473,147.939Z" transform="translate(-273.093 -141.622)" fill="#263238"/>
              <path id="Path_5258" data-name="Path 5258" d="M323.752,160.341a6.085,6.085,0,0,1-1.947,3.242c-1.3,1.106-2.34.206-2.31-1.318.028-1.372.735-3.6,2.2-4.126C323.131,157.623,324.072,158.829,323.752,160.341Z" transform="translate(-265.323 -146.109)" fill="#b55b52"/>
              <path id="Path_5259" data-name="Path 5259" d="M246.757,407.855a6.656,6.656,0,0,0,1.475-.2.133.133,0,0,0,.039-.243c-.205-.128-2.023-1.245-2.646-.925a.425.425,0,0,0-.229.378.8.8,0,0,0,.276.705A1.705,1.705,0,0,0,246.757,407.855Zm1.088-.39a2.718,2.718,0,0,1-2-.1.543.543,0,0,1-.181-.484c.006-.1.048-.139.084-.157C246.071,406.556,247.107,407.037,247.846,407.465Z" transform="translate(-238.989 -234.391)" fill="#407bff"/>
              <path id="Path_5260" data-name="Path 5260" d="M248.831,406.927a.129.129,0,0,0,.073-.022.132.132,0,0,0,.061-.122c-.005-.069-.14-1.7-.795-2.23a.73.73,0,0,0-.569-.171h0a.435.435,0,0,0-.425.349c-.119.629,1.008,1.864,1.592,2.18A.139.139,0,0,0,248.831,406.927Zm-1.137-2.284a.475.475,0,0,1,.306.117,3.212,3.212,0,0,1,.666,1.766c-.58-.44-1.3-1.373-1.227-1.744.006-.034.021-.113.195-.135h0A.482.482,0,0,1,247.694,404.643Z" transform="translate(-239.619 -233.662)" fill="#407bff"/>
              <path id="Path_5261" data-name="Path 5261" d="M256.287,401.723h-5.158l-.053-11.945h5.158Z" transform="translate(-241.008 -228.475)" fill="#b55b52"/>
              <path id="Path_5262" data-name="Path 5262" d="M245.635,407.091h5.633a.429.429,0,0,1,.425.352l.842,4.585a.783.783,0,0,1-.777.917c-2.031-.034-4.962-.153-7.516-.153-2.986,0-3.132.163-6.634.163-2.118,0-2.622-2.141-1.729-2.335,4.069-.883,4.928-.977,8.5-3.128A2.468,2.468,0,0,1,245.635,407.091Z" transform="translate(-235.457 -234.627)" fill="#263238"/>
              <path id="Path_5263" data-name="Path 5263" d="M251.078,389.783l.026,6.157h5.16l-.026-6.157Z" transform="translate(-241.009 -228.476)" opacity="0.2"/>
              <path id="Path_5264" data-name="Path 5264" d="M284.372,257.13s-35.513,27.5-37.044,43.151c-1.593,16.284.344,47.136.344,47.136h8.738s4.982-32,5.99-48.072c19.057-18.7,39.826-23.989,45.638-42.215Z" transform="translate(-239.453 -181.333)" fill="#263238"/>
              <path id="Path_5265" data-name="Path 5265" d="M245.806,391.8c-.04,0,.353,3.627.353,3.627h10.63l.412-3.237Z" transform="translate(-239.134 -229.191)" fill="#407bff"/>
            </g>
          </g>
        </g>
      </g>
    </g>
  </g>
</svg>
