<svg xmlns="http://www.w3.org/2000/svg" xmlns:xlink="http://www.w3.org/1999/xlink" width="636" height="476" viewBox="0 0 636 476">
  <defs>
    <linearGradient id="linear-gradient" x1="0.5" y1="0.995" x2="0.5" gradientUnits="objectBoundingBox">
      <stop offset="0" stop-color="gray" stop-opacity="0.251"/>
      <stop offset="0.54" stop-color="gray" stop-opacity="0.122"/>
      <stop offset="1" stop-color="gray" stop-opacity="0.102"/>
    </linearGradient>
    <linearGradient id="linear-gradient-2" x1="0.5" y1="0.999" x2="0.5" y2="0.001" xlink:href="#linear-gradient"/>
    <linearGradient id="linear-gradient-3" x1="0.5" y1="0.998" x2="0.5" y2="0" xlink:href="#linear-gradient"/>
    <linearGradient id="linear-gradient-4" x1="0.5" y1="0.998" x2="0.5" y2="-0.002" xlink:href="#linear-gradient"/>
    <linearGradient id="linear-gradient-5" x1="0.498" y1="1" x2="0.498" y2="0" xlink:href="#linear-gradient"/>
    <linearGradient id="linear-gradient-6" x1="0.499" y1="0.999" x2="0.499" y2="-0.002" xlink:href="#linear-gradient"/>
    <linearGradient id="linear-gradient-7" x1="0.5" y1="1" x2="0.5" y2="0" xlink:href="#linear-gradient"/>
    <linearGradient id="linear-gradient-8" x1="0.5" y1="1.001" x2="0.5" y2="0.006" xlink:href="#linear-gradient"/>
    <linearGradient id="linear-gradient-9" x1="0.5" y1="0.984" x2="0.5" y2="0" xlink:href="#linear-gradient"/>
    <linearGradient id="linear-gradient-10" x1="0.5" y1="1" x2="0.5" y2="0" xlink:href="#linear-gradient"/>
    <linearGradient id="linear-gradient-11" x1="0.5" y1="1.001" x2="0.5" y2="0.001" xlink:href="#linear-gradient"/>
    <clipPath id="clip-photographer-steps">
      <rect width="636" height="476"/>
    </clipPath>
  </defs>
  <g id="photographer-steps" clip-path="url(#clip-photographer-steps)">
    <g id="Group_320" data-name="Group 320" transform="translate(-4429.964 -1031.493)">
      <rect id="Rectangle_172" data-name="Rectangle 172" width="114.343" height="114.343" transform="translate(4514 1125.251)" fill="#e8e9ed"/>
      <rect id="Rectangle_173" data-name="Rectangle 173" width="114.343" height="114.343" transform="translate(4867.586 1125.251)" fill="#e8e9ed"/>
      <path id="Path_991" data-name="Path 991" d="M196.8,83.267,195.662,82.1a.238.238,0,0,0-.181-.079.229.229,0,0,0-.181.079l-7.887,7.931-2.873-2.868a.247.247,0,0,0-.361,0l-1.15,1.15a.256.256,0,0,0,0,.37l3.622,3.617a1.132,1.132,0,0,0,.753.37,1.2,1.2,0,0,0,.753-.357h0l8.649-8.676a.278.278,0,0,0,0-.37Z" transform="translate(4381.258 1001.69)" fill="#ff8643" opacity="0.5"/>
      <path id="Path_992" data-name="Path 992" d="M181.672,65.4a11.628,11.628,0,1,1-8.231,3.406,11.628,11.628,0,0,1,8.231-3.406m0-1.811a13.443,13.443,0,1,0,9.514,3.937,13.452,13.452,0,0,0-9.514-3.937Z" transform="translate(4389.498 1012)" fill="#361cc1" opacity="0.5"/>
      <path id="Path_993" data-name="Path 993" d="M392.681,168.188l-1.436-1.472a.3.3,0,0,0-.225-.1.291.291,0,0,0-.229.1l-9.927,10-3.617-3.613a.308.308,0,0,0-.225-.1.317.317,0,0,0-.229.1l-1.45,1.45a.317.317,0,0,0,0,.463l4.556,4.547a1.428,1.428,0,0,0,.952.463,1.511,1.511,0,0,0,.943-.441h0l10.883-10.945a.348.348,0,0,0,0-.441Z" transform="translate(4273.691 954.366)" fill="#ff8643" opacity="0.8"/>
      <path id="Path_994" data-name="Path 994" d="M373.623,145.688a14.65,14.65,0,1,1-10.363,4.292,14.649,14.649,0,0,1,10.363-4.292m0-2.278a16.933,16.933,0,1,0,16.933,16.933,16.933,16.933,0,0,0-16.933-16.933Z" transform="translate(4284.069 967.349)" fill="#361cc1" opacity="0.8"/>
      <path id="Path_995" data-name="Path 995" d="M984.162,65.4a11.628,11.628,0,1,1-8.231,3.406,11.628,11.628,0,0,1,8.231-3.406m0-1.811a13.443,13.443,0,1,0,9.514,3.937A13.452,13.452,0,0,0,984.162,63.59Z" transform="translate(3940.593 1012)" fill="#361cc1" opacity="0.5"/>
      <path id="Path_996" data-name="Path 996" d="M782,145.688a14.631,14.631,0,1,0,.022,0m0-2.278a16.966,16.966,0,1,1-.022,0Z" transform="translate(4055.615 967.349)" fill="#361cc1" opacity="0.8"/>
      <path id="Path_997" data-name="Path 997" d="M569.907,205.734a19.36,19.36,0,1,1-13.7,5.671,19.361,19.361,0,0,1,13.7-5.671m0-3.014a22.387,22.387,0,1,0,22.387,22.387,22.387,22.387,0,0,0-22.387-22.387Z" transform="translate(4177.321 934.172)" fill="#361cc1"/>
      <rect id="Rectangle_174" data-name="Rectangle 174" width="127.425" height="127.425" transform="translate(4593.979 1155.221)" fill="#f3f5f7"/>
      <rect id="Rectangle_175" data-name="Rectangle 175" width="127.425" height="127.425" transform="translate(4773.903 1155.221)" fill="#f3f5f7"/>
      <rect id="Rectangle_176" data-name="Rectangle 176" width="42.501" height="4.723" transform="translate(4525.425 1145.55)" opacity="0.1"/>
      <rect id="Rectangle_177" data-name="Rectangle 177" width="42.501" height="4.723" transform="translate(4888.162 1145.55)" opacity="0.1"/>
      <path id="Path_1020" data-name="Path 1020" d="M754.55,621.952c1.379,2.252,9.46,6.274,9.46,6.274s.07-9.028-1.322-11.28a4.781,4.781,0,0,0-8.147,5.005Z" transform="translate(4061.912 703.732)" fill="#361cc1"/>
      <rect id="Rectangle_178" data-name="Rectangle 178" width="42.501" height="4.723" transform="translate(4610.428 1182.42)" opacity="0.1"/>
      <rect id="Rectangle_179" data-name="Rectangle 179" width="25.375" height="4.723" transform="translate(4688.746 1223.939)" opacity="0.1"/>
      <rect id="Rectangle_180" data-name="Rectangle 180" width="37.575" height="4.723" transform="translate(4688.746 1255.636)" opacity="0.1"/>
      <rect id="Rectangle_181" data-name="Rectangle 181" width="42.501" height="4.723" transform="translate(4610.428 1199.066)" opacity="0.1"/>
      <rect id="Rectangle_182" data-name="Rectangle 182" width="42.501" height="4.723" transform="translate(4801.684 1182.42)" opacity="0.1"/>
      <rect id="Rectangle_183" data-name="Rectangle 183" width="42.501" height="4.723" transform="translate(4801.684 1199.066)" opacity="0.1"/>
      <path id="Path_1021" data-name="Path 1021" d="M584.66,250.793l1.19-1.56A6.169,6.169,0,0,0,590.132,251c2.009,0,3.5-.983,3.5-2.573,0-1.727-1.428-2.864-5.384-2.864v-1.793c3.525,0,4.847-1.159,4.847-2.688,0-1.384-1.185-2.247-2.943-2.247a5.666,5.666,0,0,0-3.683,1.507l-1.265-1.507a7.706,7.706,0,0,1,5.045-1.961c3.045,0,5.287,1.463,5.287,4.027,0,1.807-1.322,2.987-3.225,3.639v.1c2.04.441,3.75,1.793,3.75,3.9,0,2.785-2.644,4.455-5.763,4.455A7.643,7.643,0,0,1,584.66,250.793Z" transform="translate(4156.545 915.069)" fill="#361cc1"/>
      <g id="Group_299" data-name="Group 299" transform="translate(4831.562 1120.272)" opacity="0.8">
        <path id="Path_1022" data-name="Path 1022" d="M797.19,169.988c0-.846.075-1.925.119-2.771h-.11c-.485.749-1.035,1.494-1.529,2.238l-3.525,4.521H801.5v1.82H789.73v-1.542L796.758,165h2.586v14.712H797.19Z" transform="translate(-789.73 -165)" fill="#361cc1"/>
      </g>
      <g id="Group_300" data-name="Group 300" transform="translate(4920.177 1084.305)" opacity="0.5">
        <path id="Path_1023" data-name="Path 1023" d="M990.85,92.768l.8-1.088a4.146,4.146,0,0,0,2.886,1.185,2.291,2.291,0,0,0,2.534-2.234c0-1.388-.983-2.137-2.441-2.137a3.732,3.732,0,0,0-2.08.612l-.828-.533.335-5.2h6.169V84.8h-4.715l-.26,2.851a4.335,4.335,0,0,1,1.829-.388c2.022,0,3.67,1.04,3.67,3.34a3.738,3.738,0,0,1-4.014,3.644,5.415,5.415,0,0,1-3.882-1.48Z" transform="translate(-990.85 -83.37)" fill="#361cc1"/>
      </g>
      <rect id="Rectangle_184" data-name="Rectangle 184" width="157.514" height="157.514" transform="translate(4666.962 1195.678)" fill="#361cc1" opacity="0.1"/>
      <rect id="Rectangle_185" data-name="Rectangle 185" width="157.514" height="157.514" transform="translate(4672.25 1188.188)" fill="#fff"/>
      <rect id="Rectangle_186" data-name="Rectangle 186" width="124.517" height="4.723" transform="translate(4688.746 1205.636)" fill="#361cc1" opacity="0.5"/>
      <rect id="Rectangle_187" data-name="Rectangle 187" width="79.288" height="4.723" transform="translate(4688.746 1239.788)" opacity="0.1"/>
      <rect id="Rectangle_188" data-name="Rectangle 188" width="76.931" height="4.723" transform="translate(4688.746 1271.49)" opacity="0.1"/>
      <rect id="Rectangle_189" data-name="Rectangle 189" width="104.87" height="4.723" transform="translate(4688.746 1287.338)" opacity="0.1"/>
      <path id="Path_1024" data-name="Path 1024" d="M688.138,436.445l-.542-.56a.132.132,0,0,0-.088-.035.119.119,0,0,0-.084.035l-3.758,3.789-1.37-1.37a.141.141,0,0,0-.088-.035.128.128,0,0,0-.084.035l-.551.551a.123.123,0,0,0,0,.176l1.727,1.723a.458.458,0,0,0,.718,0h0l4.12-4.137A.141.141,0,0,0,688.138,436.445Z" transform="translate(4102.354 803.761)" fill="#ff8643" opacity="0.5"/>
      <path id="Path_1025" data-name="Path 1025" d="M680.925,427.909A5.552,5.552,0,1,1,677,429.535a5.552,5.552,0,0,1,3.921-1.626m0-.859a6.4,6.4,0,1,1,0,.009Z" transform="translate(4106.284 808.684)" fill="#ff8643" opacity="0.5"/>
      <path id="Path_1026" data-name="Path 1026" d="M688.138,508.39l-.542-.555a.114.114,0,0,0-.088-.035.106.106,0,0,0-.084.035l-3.758,3.785-1.37-1.366a.123.123,0,0,0-.088-.04.115.115,0,0,0-.084.04l-.551.546a.123.123,0,0,0,0,.176L683.3,512.7a.551.551,0,0,0,.361.176.577.577,0,0,0,.357-.172h0l4.12-4.142a.141.141,0,0,0,0-.176Z" transform="translate(4102.354 763.513)" fill="#ff8643" opacity="0.5"/>
      <path id="Path_1027" data-name="Path 1027" d="M680.925,499.881A5.552,5.552,0,1,1,677,501.507a5.552,5.552,0,0,1,3.921-1.626m0-.881a6.411,6.411,0,1,0,6.406,6.409A6.411,6.411,0,0,0,680.925,499Z" transform="translate(4106.284 768.436)" fill="#ff8643" opacity="0.5"/>
      <path id="Path_1030" data-name="Path 1030" d="M206.349,751.784c0,.758-.084,1.37-.189,1.37s-.189-.612-.189-1.37.106-.4.212-.4S206.349,751.031,206.349,751.784Z" transform="translate(4368.38 627.302)" fill="#ffd037"/>
      <path id="Path_1031" data-name="Path 1031" d="M207.567,753.779c-.665.361-1.243.582-1.291.489s.441-.441,1.11-.824.4-.1.441,0S208.228,753.417,207.567,753.779Z" transform="translate(4368.211 626.211)" fill="#ffd037"/>
      <path id="Path_1034" data-name="Path 1034" d="M173.3,751.784c0,.758.084,1.37.189,1.37s.189-.612.189-1.37-.106-.4-.211-.4S173.3,751.031,173.3,751.784Z" transform="translate(4386.656 627.302)" fill="#ffd037"/>
      <path id="Path_1035" data-name="Path 1035" d="M170.428,753.779c.661.361,1.238.582,1.291.489s-.441-.441-1.11-.824-.4-.1-.441,0S169.762,753.417,170.428,753.779Z" transform="translate(4388.484 626.211)" fill="#ffd037"/>
      <g id="Group_303" data-name="Group 303" transform="translate(4744.946 1368.477)" opacity="0.1">
        <path id="Path_1047" data-name="Path 1047" d="M593.15,728.417a32.276,32.276,0,0,0,5.389.04C599.962,728.175,593.15,728.417,593.15,728.417Z" transform="translate(-593.15 -728.32)" fill="url(#linear-gradient)"/>
      </g>
      <g id="Group_304" data-name="Group 304" transform="translate(4745.228 1370.807)" opacity="0.1">
        <path id="Path_1048" data-name="Path 1048" d="M593.79,733.609s5.287.916,5.552.441S593.79,733.609,593.79,733.609Z" transform="translate(-593.79 -733.609)" fill="url(#linear-gradient-2)"/>
      </g>
      <g id="Group_305" data-name="Group 305" transform="translate(4729.106 1369.852)" opacity="0.1">
        <path id="Path_1049" data-name="Path 1049" d="M557.2,731.44a14.632,14.632,0,0,1,4.221.8C562.91,732.916,557.2,731.44,557.2,731.44Z" transform="translate(-557.2 -731.44)" fill="url(#linear-gradient-3)"/>
      </g>
      <g id="Group_307" data-name="Group 307" transform="translate(4716.872 1299.689)" opacity="0.1">
        <path id="Path_1055" data-name="Path 1055" d="M539,572.993l-.15,3.732s-4.944.4-7.64-.282-1.555-3.626-1.45-4.243Z" transform="translate(-529.432 -572.2)" fill="url(#linear-gradient-4)"/>
      </g>
      <g id="Group_308" data-name="Group 308" transform="translate(4726.233 1299.098)" opacity="0.1">
        <path id="Path_1056" data-name="Path 1056" d="M551.262,575.949a2.851,2.851,0,0,0,0-1.458s-.242-.2-.582-.5c4.261-.586,21.123-2.886,26.807-3.133v.04s-.335,1.322.1,1.811Z" transform="translate(-550.68 -570.86)" fill="url(#linear-gradient-5)"/>
      </g>
      <g id="Group_309" data-name="Group 309" transform="translate(4750.78 1307.091)" opacity="0.1">
        <path id="Path_1057" data-name="Path 1057" d="M609.245,589s1.044,5.865-2.855,7.931A17.82,17.82,0,0,0,609.245,589Z" transform="translate(-606.39 -589)" fill="url(#linear-gradient-6)"/>
      </g>
      <g id="Group_311" data-name="Group 311" transform="translate(4749.61 1278.839)" opacity="0.1">
        <path id="Path_1059" data-name="Path 1059" d="M604.5,524.88s-1.445,5.9-.361,7.257S604.5,524.88,604.5,524.88Z" transform="translate(-603.735 -524.88)" fill="url(#linear-gradient-7)"/>
      </g>
      <g id="Group_314" data-name="Group 314" transform="translate(4743.461 1335.065)" opacity="0.1">
        <path id="Path_1063" data-name="Path 1063" d="M589.78,653.812s9.852,1,11.822-1.322C601.6,652.5,592.714,654.252,589.78,653.812Z" transform="translate(-589.78 -652.49)" fill="url(#linear-gradient-8)"/>
      </g>
      <g id="Group_316" data-name="Group 316" transform="translate(4744.224 1339.621)" opacity="0.1">
        <path id="Path_1065" data-name="Path 1065" d="M591.51,662.83s4.406,0,6.473.119S591.51,662.83,591.51,662.83Z" transform="translate(-591.51 -662.83)" fill="url(#linear-gradient-9)"/>
      </g>
      <g id="Group_317" data-name="Group 317" transform="translate(4727.176 1341.494)" opacity="0.1">
        <path id="Path_1066" data-name="Path 1066" d="M552.82,667.08s2.172,2.432,4.622,2S552.82,667.08,552.82,667.08Z" transform="translate(-552.82 -667.08)" fill="url(#linear-gradient-10)"/>
      </g>
      <g id="Group_319" data-name="Group 319" transform="translate(4764.324 1271.564)" opacity="0.1">
        <path id="Path_1074" data-name="Path 1074" d="M646.1,512.573a14.1,14.1,0,0,1-3.78,5.781h-1.185a54.694,54.694,0,0,1,2.432-5.794c.511-.775-3.882-2.573-6.437-3.565.392-.04.811-.626.811-.626S647.749,508.423,646.1,512.573Z" transform="translate(-637.13 -508.37)" fill="url(#linear-gradient-11)"/>
      </g>
      <path id="Path_1081" data-name="Path 1081" d="M593.19,729.38a31.608,31.608,0,0,0,5.287.04C599.848,729.142,593.19,729.38,593.19,729.38Z" transform="translate(4151.774 639.617)" opacity="0.1"/>
      <path id="Path_1082" data-name="Path 1082" d="M593.82,734.53s5.182.912,5.459.441S593.82,734.53,593.82,734.53Z" transform="translate(4151.421 636.683)" opacity="0.1"/>
      <path id="Path_1083" data-name="Path 1083" d="M557.82,732.38a14.354,14.354,0,0,1,4.151.789C563.433,733.838,557.82,732.38,557.82,732.38Z" transform="translate(4171.56 637.886)" opacity="0.1"/>
      <path id="Path_1096" data-name="Path 1096" d="M538,549.68s1.542.828,1.74,2.053S538,549.68,538,549.68Z" transform="translate(4182.646 740.086)" opacity="0.1"/>
      <path id="Path_1099" data-name="Path 1099" d="M591.57,664.32s4.353,0,6.371.119S591.57,664.32,591.57,664.32Z" transform="translate(4152.68 675.958)" opacity="0.1"/>
    </g>
    <g id="_8" data-name="8" transform="translate(210.018 -118.308)">
      <g id="Group_328" data-name="Group 328" transform="translate(46.744 308.323)">
        <g id="Group_321" data-name="Group 321" transform="translate(21.279 3.682)">
          <path id="Path_1100" data-name="Path 1100" d="M98.42,329.916a14.949,14.949,0,0,1-3.944,3.135,4.883,4.883,0,0,1-2.347.736,2.122,2.122,0,0,1-1.99-1.231c-.373-1,.309-2.075,1.056-2.841a12.194,12.194,0,0,1,5.248-3.158c.946-.279,2.159-.352,2.727.455a1.746,1.746,0,0,1,.138,1.556A4.212,4.212,0,0,1,98.42,329.916Z" transform="translate(-3.595 -291.099)" fill="#f4b798"/>
          <path id="Path_1101" data-name="Path 1101" d="M115.521,344.862,97.743,322.691s-1.012-.835-2.463-2.029c-7.4,8.361-3.491,20.573-6.733,30.78-4.3,18.1-12.558,25.651-16.31,45.082-.2,1.088-8.693.777-8.825,1.839,5.069,3.234,19.889,5.673,19.889,5.673s2.539-5.129,4.5-9.49a55.616,55.616,0,0,1,11.947-16.83l22.246-25.288Z" transform="translate(-34.443 -297.707)" fill="#1688cd"/>
          <path id="Path_1102" data-name="Path 1102" d="M97.667,336.75l-1.444,2.683-11.562.831a5.617,5.617,0,0,1-5.913-6.692l1.874-9.479,6.912,5.818Z" transform="translate(-16.799 -293.731)" fill="#dead8e"/>
          <path id="Path_1103" data-name="Path 1103" d="M106.182,321.139c-3.234-1.61-6.191-3.5-9.609-4.726-3.07-1.1-6.632.417-8.976,2.47a20.118,20.118,0,0,0-5.183,8.035,20.382,20.382,0,0,0-1.593,9.5c.466,4.227,3.1,6.5,5.695,9.445,2.774,3.147,7.621,1.772,11.126.991,4.577-1.015,3,.078,11.945-7.651C115.535,334.07,113.78,324.921,106.182,321.139Z" transform="translate(-14.373 -303.058)" fill="#f4b798"/>
          <path id="Path_1104" data-name="Path 1104" d="M96.631,326.412a5.287,5.287,0,0,1-.354-.473L93.861,322.4a14.6,14.6,0,0,1,.227,2.014c.356,1.278.814,2.226.425,3.549a7.536,7.536,0,0,1-2.174,3.463l1.051.909a2.642,2.642,0,0,1,1.809-.758c.689.037,1.179.609,1.816.907a4.632,4.632,0,0,0,4.033.106c1.647-.833,2.524-2.711,3.137-4.357-.65.74-1.218.566-1.995.3-1.06-.369-2.228-.417-3.312-.764A4.241,4.241,0,0,1,96.631,326.412Z" transform="translate(-0.923 -295.696)" fill="#bd8c6d"/>
          <path id="Path_1105" data-name="Path 1105" d="M91.182,312.357c2.714.058,5.654-.736,8.249-.449,1.455.164,3.193.253,3.5,2.146.06.382.192.894-.171,1.189,0,0,3.081-2.942,8.449-.589s6.932,11.116,11.744,11.945a11.48,11.48,0,0,1-2.174,1.667s3.24,5.876,6.684,5.576c-1.714,2.319-2.655,4.777-6.181,3.3,2.12,1.537,2.044,2.15,3.907,2.1-2.4,2.215-6.291,3.344-11.321-.248,3.674,2.653,5.1,2.554,5.1,2.554s-5.1,8.467-11.286-.037c-1.736-2.48-3.128-7.469-3.815-10.468-.382-1.669-.391-3.838-1.852-5.017-3.031-2.45-7.035-1.49-10.5-1.04-3.64.473-8.443,1.045-9.654-3.381-1.062-3.875-1.351-7.238,1.395-10.559a2.394,2.394,0,0,1,1.513-1.01c.784-.067,1.436.54,2.066,1.008A7.3,7.3,0,0,0,91.182,312.357Z" transform="translate(-13.953 -310.029)" fill="#d3a283"/>
          <path id="Path_1106" data-name="Path 1106" d="M92.29,314.319a14.6,14.6,0,0,1,12.866,6.7c4.6,6.735,7.72,9.186,10.073,8.847-2.936,1.721-7.472.7-9.965-1.759,1.256,3.4,3.191,6.472,6.245,6.33a13,13,0,0,1-3.176.147,8.111,8.111,0,0,1-3.031-1.267c-3.273-2.178-4.248-5.956-6.552-8.9a14.705,14.705,0,0,0-4.762-4.074,11.5,11.5,0,0,0-1.766-.738c-.335-.11-1.656-.643-1.962-.453,2.053-1.269,9.965.762,13.192,6.733C104.084,323.568,100.72,315.692,92.29,314.319Z" transform="translate(-3.331 -305.077)" fill="#dead8e"/>
          <path id="Path_1107" data-name="Path 1107" d="M90.947,313.7s9.088-5.017,15.319,8.59C104.791,320.695,101.134,314.458,90.947,313.7Z" transform="translate(-2.536 -306.826)" fill="#dead8e"/>
          <path id="Path_1108" data-name="Path 1108" d="M104.1,355.886c3.242-10.207-.663-22.419,6.733-30.78l-2.347-1.928c-3.5-2.869-7.653-6.263-7.856-6.349-.352-.147-17.344,5.745-17.344,5.745l2.936,9.993a10.967,10.967,0,0,1-1.405,9.177c-.054.084-.1.171-.155.25L49.993,391.174S80.352,403.693,90.127,406.7C90.261,405.635,99.8,373.983,104.1,355.886Z" transform="translate(-49.993 -302.151)" fill="#2198dd"/>
          <path id="Path_1109" data-name="Path 1109" d="M101.893,333.588c6.191,2.368,7.834,8.585,6,13.549a23.636,23.636,0,0,1-11.5,12.83c-1.252.633-13.6,6.254-13.777,5.65-1.028-3.474-5.857-17.879-5.857-17.879l8.1-6.541S96.535,331.538,101.893,333.588Z" transform="translate(-18.98 -283.059)" fill="#2198dd"/>
        </g>
        <g id="Group_325" data-name="Group 325" transform="translate(43.228 7.841)">
          <g id="Group_322" data-name="Group 322" transform="translate(53.134 2.595)">
            <path id="Path_1110" data-name="Path 1110" d="M94.362,351.476a2.1,2.1,0,0,0,2.023-2.176V315.331a2.1,2.1,0,0,0-2.023-2.174H84.773v38.318Z" transform="translate(-84.773 -313.157)" fill="#404040"/>
          </g>
          <path id="Path_1111" data-name="Path 1111" d="M110.382,318.367s-.481.434-1.388,1.246-2.215,1.971-3.875,3.577c-3.309,3.238-8.119,7.774-13.574,14.006-2.737,3.094-5.643,6.556-8.635,10.332-3.007,3.808-6.163,7.769-9.086,12.182-1.466,2.178-2.88,4.445-4.207,6.8-1.284,2.353-2.645,4.827-3.771,7.247a26.749,26.749,0,0,0-2.416,7.4,12.015,12.015,0,0,0-.017,3.5l.194.948.222.689.32.68.4.587c1.174,1.427,3.221,1.723,5.257,1.459a23.684,23.684,0,0,0,6.049-1.807,66.5,66.5,0,0,0,11.025-6.3,93.1,93.1,0,0,0,9.412-7.258c2.86-2.5,5.483-5.041,7.858-7.472s4.521-4.693,6.4-6.783c1.882-2.07,3.5-3.944,4.829-5.49,1.325-1.569,2.368-2.8,3.078-3.644.369-.382.585-.853.855-.844a.64.64,0,0,1,.367.168.87.87,0,0,1,.155.14l1.123,2.979s-1.513,1.751-4.164,4.814c-2.67,3.009-6.507,7.305-11.329,12.014-2.422,2.362-5.106,4.836-8.039,7.275a97.671,97.671,0,0,1-9.654,7.115A79.63,79.63,0,0,1,76.439,390.2a26.172,26.172,0,0,1-6.669,1.995,10.867,10.867,0,0,1-3.78-.11,6.718,6.718,0,0,1-3.681-2.18c-.237-.309-.468-.633-.689-.959l-.544-1.066-.423-1.224-.229-.98a15.558,15.558,0,0,1-.14-4.855A30.953,30.953,0,0,1,62.934,372c1.231-2.761,2.53-5.209,3.881-7.787,1.388-2.56,2.86-5.006,4.378-7.34,3.055-4.706,6.224-8.972,9.205-13.011,3.033-4.082,5.986-7.839,8.775-11.2,5.589-6.748,10.461-11.295,13.842-14.883a55.105,55.105,0,0,1,6.6-5.831Z" transform="translate(-60.16 -311.955)" fill="#404040"/>
          <path id="Path_1112" data-name="Path 1112" d="M91.106,313.157H80.9c-.881,0-1.593.974-1.593,2.174V349.3c0,1.2.712,2.176,1.593,2.176h10.2Z" transform="translate(-37.972 -310.562)" fill="#303030"/>
          <path id="Path_1113" data-name="Path 1113" d="M88.892,365.292l5.537,16.834c.363,1.1-20.282,5.464-22.274,5.419a6.133,6.133,0,0,1-4.2-1.576c-2.781-2.75-.576-7.353-.425-10.654a25.72,25.72,0,0,1,2.5-9.885s7.864-14.749,15.025-26.082l.045-9.734s3.292-5.8,6.653-10.55c2.088-.147,1.6,1.675,1.6,1.675l-3.035,9.728,1.585,5.242a7.2,7.2,0,0,0,5.742,4.272c2.055.058,4.743-.427,6.643.568a4.369,4.369,0,0,1,1.662,1.487c.833,2.219-1.943,1.235-2.884,1.164-1.55-.114-3.605-.41-5.11.071-3.588,1.148-6.2,1.392-7.422,4.985-2.3,6.776-2.99,12.163-7.91,22.177,1.4-.676,1.923-1.934,3.219-2.891Z" transform="translate(-52.745 -303.728)" fill="#fec29e"/>
          <g id="Group_324" data-name="Group 324" transform="translate(35.989 1.498)">
            <rect id="Rectangle_190" data-name="Rectangle 190" width="2.092" height="5.924" transform="translate(25.186 2.798)" fill="#d13f4a"/>
            <path id="Path_1114" data-name="Path 1114" d="M89.745,333.68l.015,0h.9a.948.948,0,0,0,.948-.95v-5.017a.948.948,0,0,0-.948-.95h-.9l-.015,0Z" transform="translate(-61.866 -296.292)" fill="#303030"/>
            <path id="Path_1115" data-name="Path 1115" d="M91.638,330.975v-.142h-5.85v.142a.887.887,0,0,0,.8.952h4.244A.887.887,0,0,0,91.638,330.975Z" transform="translate(-66.452 -291.578)" fill="#505050"/>
            <path id="Path_1116" data-name="Path 1116" d="M85.476,313.6v.142h5.848V313.6a.885.885,0,0,0-.8-.95H86.279A.885.885,0,0,0,85.476,313.6Z" transform="translate(-66.813 -312.649)" fill="#505050"/>
            <path id="Path_1117" data-name="Path 1117" d="M93.8,331.287V321.5c0-.617-1.112-1.453-2.811-2.09v13.967C92.691,332.74,93.8,331.906,93.8,331.287Z" transform="translate(-60.421 -304.816)" fill="#404040"/>
            <path id="Path_1118" data-name="Path 1118" d="M94.489,333.845V319.878c-.326-.121-.663-.24-1.03-.343-2.765-.79-5.485-.715-5.485.339v13.978c0,1.051,2.72,1.127,5.485.339C93.826,334.085,94.163,333.966,94.489,333.845Z" transform="translate(-63.919 -305.285)" fill="#303030"/>
            <path id="Path_1119" data-name="Path 1119" d="M91.532,345.025a14.7,14.7,0,1,1,14.7-14.7A14.7,14.7,0,0,1,91.532,345.025Z" transform="translate(-76.831 -309.204)" fill="#505050"/>
            <path id="Path_1120" data-name="Path 1120" d="M90.3,341.482a12.4,12.4,0,1,1,12.4-12.4A12.4,12.4,0,0,1,90.3,341.482Z" transform="translate(-75.595 -307.966)" fill="#414042"/>
            <path id="Path_1121" data-name="Path 1121" d="M88.662,336.809a9.355,9.355,0,1,1,9.354-9.356A9.356,9.356,0,0,1,88.662,336.809Z" transform="translate(-73.961 -306.334)" fill="#6c7a88"/>
            <g id="Group_323" data-name="Group 323" transform="translate(7.135 13.548)">
              <path id="Path_1122" data-name="Path 1122" d="M92.874,320.256l-12.083,9.063a7.555,7.555,0,1,0,12.083-9.063Z" transform="translate(-79.377 -317.382)" fill="#0dcdc0"/>
              <path id="Path_1123" data-name="Path 1123" d="M90.034,319.294a7.549,7.549,0,0,0-8.484,11.567L93.633,321.8A7.508,7.508,0,0,0,90.034,319.294Z" transform="translate(-80.136 -318.925)" fill="#0ead99"/>
              <path id="Path_1124" data-name="Path 1124" d="M88.074,325.018a2.992,2.992,0,1,1-1.923-3.767A2.991,2.991,0,0,1,88.074,325.018Z" transform="translate(-77.703 -316.4)" fill="#48647c" opacity="0.46"/>
            </g>
          </g>
          <path id="Path_1125" data-name="Path 1125" d="M88.1,316.619a1.274,1.274,0,1,1,1.274-1.274A1.273,1.273,0,0,1,88.1,316.619Z" transform="translate(-29.257 -309.502)" fill="#fce2aa"/>
        </g>
        <g id="Group_326" data-name="Group 326" transform="translate(52.507)">
          <path id="Path_1126" data-name="Path 1126" d="M89.187,314.786a1.977,1.977,0,0,0-2.215-.11,2.5,2.5,0,0,0-1.008,1.936c-.093,1.269.246,2.237-.015,3.519a5.043,5.043,0,0,0,.415,3.385,1.152,1.152,0,0,0,2.2-.408c.186-.917.4-1.833.559-2.755.19-1.105.669-2.088.846-3.182a2.618,2.618,0,0,0-.531-2.157A2.1,2.1,0,0,0,89.187,314.786Z" transform="translate(-39.692 -301.296)" fill="#fec29e"/>
          <path id="Path_1127" data-name="Path 1127" d="M86.8,314.266l-.294-.048a1.363,1.363,0,0,0-1.5,1.2c-.171,1.038-.358,2.077-.514,3.117a7.862,7.862,0,0,0,.52,3.73c.471,1.151,1.641.844,1.846-.4l.982-5.986A1.364,1.364,0,0,0,86.8,314.266Z" transform="translate(-41.308 -301.51)" fill="#fec29e"/>
          <path id="Path_1128" data-name="Path 1128" d="M85.522,313.461l-.309-.05a1.392,1.392,0,0,0-1.552,1.207,18.393,18.393,0,0,0-.408,5.127c.076.572.253,2.023.756,2.4.717.529,1.617-.363,1.727-1.073l.911-5.995A1.391,1.391,0,0,0,85.522,313.461Z" transform="translate(-42.76 -302.443)" fill="#fec29e"/>
          <path id="Path_1129" data-name="Path 1129" d="M83.865,326.684,80.475,321.6s13.613-.38,15.772-1.131,7.957,3.864,7.957,3.864l8.585-.889,2.806,1.85s-.009,6.843,3.685,8.527c-.4-3.521-.518-8.557-.518-8.557l-4.473-6.049-6.74-2.835-4.7-3.27-2.819-1.187s-22.117-5.25-28.749-3.068c-5.742,1.824-6.53.626-6.8,5.647s2.04,17.927,2.04,17.927Z" transform="translate(-64.459 -308.323)" fill="#fec29e"/>
        </g>
        <path id="Path_1130" data-name="Path 1130" d="M116.666,382.774l-14.385-18.7-35.552-11.8L52.54,368.21l-.444,1.345-11.96,119.8,13.43.493L82.3,383.828l25.294,44.666.422,62.369,12.577.94,6.611-64.34Z" transform="translate(-40.136 -257.395)" fill="#34495e"/>
        <path id="Path_1131" data-name="Path 1131" d="M61.367,355.257s-5.235,15.176-1.664,20c1.071-7.5,5.084-19.556,5.084-19.556Z" transform="translate(-18.908 -253.937)" fill="#2c3e50"/>
        <g id="Group_327" data-name="Group 327" transform="translate(12.404 92.704)">
          <path id="Path_1132" data-name="Path 1132" d="M54.757,351.266l-8.876,18.112,14.189-15.938Z" transform="translate(-45.882 -351.266)" fill="#2c3e50"/>
          <path id="Path_1133" data-name="Path 1133" d="M77.859,360.662l-8.937-2.924,14.385,18.7Z" transform="translate(-19.182 -343.765)" fill="#2c3e50"/>
        </g>
      </g>
      <g id="Group_330" data-name="Group 330" transform="translate(114.981 538.968)">
        <path id="Path_1134" data-name="Path 1134" d="M72.469,416.323v4.554l10.955.972-.464-6.685Z" transform="translate(-70.907 -415.163)" fill="#bccad8"/>
        <g id="Group_329" data-name="Group 329" transform="translate(0 2.897)">
          <path id="Path_1135" data-name="Path 1135" d="M72.867,416.865a12.451,12.451,0,0,0-.7,8.37,9.821,9.821,0,0,0,.473,1.4c3.588,1.984,5.544,3.109,5.906,3.089-1.651-3.933-3.467-8.892-5.237-12.825Z" transform="translate(-71.745 -416.088)" fill="#3c4a58"/>
          <path id="Path_1136" data-name="Path 1136" d="M94.165,434.362l-.715-1.841-4.484-3.756-.272-.229-4.527-10.3L79.5,416.505l-4.341,1.021-2.686-.209c1.77,3.933,3.031,7.867,4.685,11.8.069,0,.114-.011.114-.011s.082.348.255.883c.369.844.753,1.686,1.174,2.53-.421-.844-.805-1.686-1.174-2.53.57,1.766,2.172,5.663,5.46,6.571a9.246,9.246,0,0,0,1.513.287,21.268,21.268,0,0,0,4.656-.116c.386-.056.771-.115,1.142-.171,1.043-.155,1.984-.356,2.714-.527a.405.405,0,0,1,.127-.03c.4-.1.745-.186,1-.257a.564.564,0,0,0,.186-.257.689.689,0,0,0,.043-.186,2.325,2.325,0,0,0,.015-.386Z" transform="translate(-70.906 -416.505)" fill="#4d5a68"/>
          <path id="Path_1137" data-name="Path 1137" d="M94.748,430.839a.563.563,0,0,0,.186-.257.689.689,0,0,0,.043-.186,2.323,2.323,0,0,0,.015-.386l-.214-.557a1.723,1.723,0,0,1-1.3,1.015c-10.064,2.545-13.967-2.869-15.159-5.235a3.345,3.345,0,0,0-1.5-1.468,36.893,36.893,0,0,1-4.875-3.022c.056.218.123.451.205.7s.168.469.268.706c4.285,2.368,5.112,3.266,5.112,3.266s1.785,5.058,6.071,6.243a9.249,9.249,0,0,0,1.513.287,5.088,5.088,0,0,0,.786.071h.084c.16.013.315.013.473.013a15.219,15.219,0,0,0,2.569-.114c.244-.028.5-.056.745-.086.386-.056.771-.114,1.142-.171l2.714-.527.127-.03Z" transform="translate(-71.519 -411.595)" fill="#2c3a48"/>
        </g>
      </g>
      <g id="Group_332" data-name="Group 332" transform="translate(34.434 539.995)">
        <path id="Path_1138" data-name="Path 1138" d="M40.915,415.639l-.545,4.52,11.015.16.086-4.575Z" transform="translate(-27.555 -415.639)" fill="#bccad8"/>
        <g id="Group_331" data-name="Group 331" transform="translate(0 2.144)">
          <path id="Path_1139" data-name="Path 1139" d="M49.424,417.561a12.438,12.438,0,0,1-.186,8.393,9.626,9.626,0,0,1-.615,1.345c-3.778,1.6-5.84,2.508-6.2,2.45,2.062-3.737,4.389-8.478,6.563-12.2Z" transform="translate(-25.179 -415.57)" fill="#3c4a58"/>
          <path id="Path_1140" data-name="Path 1140" d="M34.747,432.972l.928-1.742,4.9-3.2.3-.194,5.729-9.68,4.048-1.528,4.985,1.9,2.692.115c-2.228,3.692-3.951,7.448-6.064,11.154a1.058,1.058,0,0,1-.114-.024s-.123.337-.358.846c-.466.792-.948,1.585-1.468,2.372.52-.788,1-1.58,1.468-2.372-.775,1.688-2.832,5.362-6.207,5.87a9.148,9.148,0,0,1-1.537.1,21.358,21.358,0,0,1-4.609-.671c-.376-.1-.751-.205-1.112-.307-1.017-.281-1.93-.594-2.632-.851a.45.45,0,0,0-.125-.043c-.384-.147-.715-.272-.961-.374a.618.618,0,0,1-.153-.278.659.659,0,0,1-.019-.19,2.292,2.292,0,0,1,.03-.384Z" transform="translate(-34.434 -416.632)" fill="#4d5a68"/>
          <path id="Path_1141" data-name="Path 1141" d="M35.57,429.129l.125.043,2.632.851c.361.1.736.205,1.112.307.24.058.49.117.728.173a15.424,15.424,0,0,0,2.539.423c.155.017.313.037.471.041l.084.011a4.556,4.556,0,0,0,.788.024,9.4,9.4,0,0,0,1.537-.1c4.4-.665,6.774-5.473,6.774-5.473s.93-.79,5.468-2.632c.127-.222.244-.447.35-.667s.2-.456.285-.667a36.912,36.912,0,0,1-5.2,2.418,3.359,3.359,0,0,0-1.671,1.278c-1.464,2.2-5.991,7.111-15.675,3.381a1.722,1.722,0,0,1-1.168-1.162l-.281.527a2.293,2.293,0,0,0-.03.384.659.659,0,0,0,.019.19.588.588,0,0,0,.153.278Z" transform="translate(-34.434 -411.036)" fill="#2c3a48"/>
        </g>
      </g>
    </g>
  </g>
</svg>
